<svg width="271" height="41" viewBox="0 0 271 41" fill="none" xmlns="http://www.w3.org/2000/svg">
<path d="M110.471 0.140511H9.87062C9.50392 0.140511 9.14162 0.140511 8.77589 0.142511C8.46974 0.144511 8.16603 0.150321 7.85694 0.155211C7.18545 0.163113 6.51554 0.222187 5.85304 0.331921C5.19146 0.444043 4.55061 0.655427 3.95216 0.958921C3.35444 1.26498 2.80828 1.66268 2.33351 2.13758C1.85624 2.61115 1.4584 3.15853 1.15529 3.75867C0.851338 4.35762 0.640578 4.99945 0.530288 5.66199C0.418948 6.3237 0.359036 6.99303 0.351088 7.66399C0.341808 7.97059 0.340827 8.27821 0.335938 8.58485V31.6991C0.340827 32.0096 0.341808 32.3104 0.351088 32.621C0.359038 33.2919 0.418951 33.9612 0.530288 34.6229C0.640273 35.2858 0.851046 35.928 1.15529 36.5272C1.45826 37.1254 1.85616 37.6706 2.33351 38.1415C2.80648 38.6185 3.35299 39.0165 3.95216 39.3202C4.55061 39.6245 5.19139 39.8372 5.85304 39.951C6.51566 40.0599 7.18549 40.119 7.85694 40.1278C8.16603 40.1346 8.46974 40.1385 8.77589 40.1385C9.14161 40.1405 9.50394 40.1405 9.87062 40.1405H110.471C110.83 40.1405 111.195 40.1405 111.555 40.1385C111.859 40.1385 112.172 40.1346 112.477 40.1278C113.147 40.1194 113.815 40.0603 114.477 39.951C115.14 39.8364 115.783 39.6238 116.385 39.3202C116.983 39.0163 117.529 38.6184 118.002 38.1415C118.478 37.6687 118.877 37.124 119.184 36.5272C119.486 35.9276 119.694 35.2855 119.803 34.6229C119.914 33.9611 119.976 33.292 119.988 32.621C119.992 32.3104 119.992 32.0096 119.992 31.6991C120 31.3358 120 30.9745 120 30.6053V9.67664C120 9.31043 120 8.94715 119.992 8.58485C119.992 8.27821 119.992 7.97059 119.988 7.66395C119.976 6.99293 119.914 6.32375 119.803 5.66195C119.694 4.99979 119.485 4.35801 119.184 3.75863C118.566 2.55571 117.588 1.57654 116.385 0.958831C115.783 0.656078 115.14 0.444751 114.477 0.331831C113.815 0.221614 113.147 0.162519 112.477 0.155071C112.172 0.150191 111.859 0.144331 111.555 0.142381C111.195 0.140381 110.83 0.140381 110.471 0.140381V0.140511Z" fill="#A6A6A6"/>
<path d="M8.7808 39.2656C8.47612 39.2656 8.1788 39.2617 7.87651 39.2549C7.2503 39.2468 6.62554 39.1922 6.00737 39.0918C5.43096 38.9925 4.87258 38.8079 4.35063 38.5439C3.83348 38.2822 3.36179 37.9389 2.95363 37.5273C2.53957 37.1206 2.19485 36.6489 1.93312 36.1308C1.66851 35.6094 1.48539 35.0505 1.39012 34.4736C1.28725 33.8537 1.23159 33.2269 1.22362 32.5986C1.21728 32.3877 1.20898 31.6855 1.20898 31.6855V8.58496C1.20898 8.58496 1.21782 7.89355 1.22367 7.69042C1.2313 7.06311 1.28664 6.43728 1.3892 5.81836C1.48464 5.23988 1.66791 4.67937 1.93266 4.15625C2.19343 3.63857 2.53624 3.16649 2.9478 2.75831C3.35891 2.34625 3.83211 2.00123 4.35014 1.73583C4.87089 1.47272 5.42822 1.28936 6.00346 1.1919C6.62366 1.09046 7.25059 1.03562 7.87897 1.02784L8.78129 1.01562H111.55L112.463 1.02833C113.086 1.03572 113.707 1.09007 114.321 1.19091C114.902 1.2896 115.466 1.47424 115.992 1.73877C117.03 2.27361 117.875 3.11979 118.407 4.1587C118.668 4.6782 118.848 5.23413 118.942 5.80761C119.046 6.43162 119.104 7.06236 119.116 7.69483C119.119 7.97802 119.119 8.28222 119.119 8.58496C119.127 8.95996 119.127 9.31689 119.127 9.67675V30.6054C119.127 30.9687 119.127 31.3232 119.119 31.6806C119.119 32.0058 119.119 32.3037 119.115 32.6103C119.104 33.2315 119.046 33.851 118.944 34.4638C118.851 35.0449 118.669 35.6081 118.404 36.1338C118.141 36.6462 117.798 37.1139 117.389 37.5195C116.98 37.9333 116.508 38.2786 115.989 38.542C115.464 38.808 114.902 38.9934 114.321 39.0918C113.703 39.1928 113.078 39.2473 112.452 39.2549C112.159 39.2617 111.853 39.2656 111.555 39.2656L110.471 39.2676L8.7808 39.2656Z" fill="black"/>
<path d="M25.1049 20.4417C25.1157 19.607 25.3374 18.7886 25.7494 18.0627C26.1614 17.3367 26.7504 16.7268 27.4615 16.2896C27.0098 15.6445 26.4138 15.1135 25.721 14.739C25.0282 14.3644 24.2575 14.1566 23.4703 14.1319C21.7911 13.9557 20.1631 15.1368 19.3074 15.1368C18.4352 15.1368 17.1177 14.1494 15.6989 14.1786C14.7813 14.2083 13.8869 14.4751 13.103 14.9532C12.3192 15.4313 11.6725 16.1042 11.226 16.9065C9.29201 20.2549 10.7346 25.176 12.5872 27.8826C13.5141 29.2079 14.5974 30.6884 16.0148 30.6359C17.4019 30.5784 17.9199 29.7514 19.5942 29.7514C21.253 29.7514 21.739 30.6359 23.1852 30.6025C24.6736 30.5783 25.6114 29.2713 26.5058 27.9334C27.1717 26.989 27.6842 25.9453 28.0242 24.8409C27.1595 24.4751 26.4215 23.863 25.9024 23.0807C25.3833 22.2984 25.1059 21.3806 25.1049 20.4417Z" fill="white"/>
<path d="M22.3735 12.3519C23.185 11.3777 23.5848 10.1256 23.488 8.86133C22.2482 8.99155 21.1029 9.58411 20.2804 10.5209C19.8783 10.9786 19.5703 11.511 19.3741 12.0878C19.1778 12.6646 19.0972 13.2744 19.1367 13.8823C19.7569 13.8887 20.3704 13.7543 20.931 13.4892C21.4917 13.2241 21.9849 12.8353 22.3735 12.3519Z" fill="white"/>
<path d="M42.6382 27.2803H37.9048L36.7681 30.6367H34.7632L39.2466 18.2188H41.3296L45.813 30.6367H43.7739L42.6382 27.2803ZM38.395 25.7315H42.147L40.2974 20.2842H40.2456L38.395 25.7315Z" fill="white"/>
<path d="M55.4956 26.1101C55.4956 28.9236 53.9898 30.7312 51.7173 30.7312C51.1417 30.7613 50.5692 30.6287 50.0654 30.3485C49.5616 30.0684 49.1469 29.6521 48.8687 29.1472H48.8257V33.6315H46.9673V21.5827H48.7661V23.0886H48.8003C49.0913 22.5861 49.513 22.1719 50.0206 21.8901C50.5283 21.6082 51.1028 21.4693 51.6831 21.488C53.9809 21.488 55.4956 23.3044 55.4956 26.1101ZM53.5855 26.1101C53.5855 24.2771 52.6382 23.072 51.1929 23.072C49.773 23.072 48.8179 24.3025 48.8179 26.1101C48.8179 27.9343 49.773 29.156 51.1929 29.156C52.6382 29.156 53.5855 27.9597 53.5855 26.1101Z" fill="white"/>
<path d="M65.4605 26.1101C65.4605 28.9235 63.9546 30.7312 61.6822 30.7312C61.1065 30.7613 60.534 30.6287 60.0302 30.3485C59.5264 30.0684 59.1117 29.652 58.8335 29.1472H58.7905V33.6315H56.9321V21.5827H58.7309V23.0886H58.7651C59.0561 22.5861 59.4778 22.1719 59.9854 21.8901C60.4931 21.6082 61.0676 21.4693 61.6479 21.488C63.9458 21.488 65.4605 23.3044 65.4605 26.1101ZM63.5503 26.1101C63.5503 24.2771 62.603 23.072 61.1577 23.072C59.7378 23.072 58.7827 24.3024 58.7827 26.1101C58.7827 27.9343 59.7378 29.156 61.1577 29.156C62.6031 29.156 63.5503 27.9597 63.5503 26.1101H63.5503Z" fill="white"/>
<path d="M72.0464 27.1768C72.1841 28.4083 73.3804 29.2168 75.0152 29.2168C76.5816 29.2168 77.7085 28.4082 77.7085 27.2979C77.7085 26.334 77.0288 25.7569 75.4195 25.3613L73.8101 24.9736C71.5298 24.4229 70.4712 23.3564 70.4712 21.626C70.4712 19.4834 72.3384 18.0117 74.9898 18.0117C77.6138 18.0117 79.4126 19.4834 79.4732 21.626H77.5972C77.4849 20.3867 76.4605 19.6387 74.9634 19.6387C73.4663 19.6387 72.4419 20.3955 72.4419 21.4971C72.4419 22.375 73.0962 22.8916 74.6968 23.2871L76.0649 23.623C78.6128 24.2256 79.6714 25.249 79.6714 27.0654C79.6714 29.3886 77.8208 30.8437 74.8774 30.8437C72.1235 30.8437 70.2642 29.4228 70.144 27.1767L72.0464 27.1768Z" fill="white"/>
<path d="M83.6821 19.4404V21.583H85.4038V23.0547H83.6821V28.0459C83.6821 28.8213 84.0269 29.1826 84.7837 29.1826C84.9881 29.1791 85.1921 29.1647 85.395 29.1396V30.6025C85.0547 30.6661 84.7089 30.6949 84.3628 30.6884C82.5298 30.6884 81.8149 30 81.8149 28.2441V23.0547H80.4985V21.583H81.8149V19.4404H83.6821Z" fill="white"/>
<path d="M86.4009 26.1103C86.4009 23.2617 88.0786 21.4717 90.6948 21.4717C93.3198 21.4717 94.9897 23.2617 94.9897 26.1103C94.9897 28.9668 93.3286 30.749 90.6948 30.749C88.062 30.749 86.4009 28.9668 86.4009 26.1103ZM93.0962 26.1103C93.0962 24.1562 92.2007 23.0029 90.6948 23.0029C89.189 23.0029 88.2944 24.165 88.2944 26.1103C88.2944 28.0723 89.189 29.2168 90.6948 29.2168C92.2007 29.2168 93.0961 28.0723 93.0961 26.1103H93.0962Z" fill="white"/>
<path d="M96.522 21.5826H98.2944V23.1236H98.3374C98.4574 22.6424 98.7393 22.217 99.1359 21.9191C99.5325 21.6213 100.02 21.469 100.515 21.4879C100.729 21.4872 100.943 21.5104 101.152 21.5572V23.2955C100.882 23.2129 100.599 23.175 100.317 23.1832C100.047 23.1723 99.7778 23.2199 99.5279 23.3228C99.2781 23.4256 99.0535 23.5814 98.8695 23.7793C98.6855 23.9772 98.5465 24.2125 98.4621 24.4692C98.3777 24.7259 98.3498 24.9978 98.3804 25.2662V30.6363H96.522L96.522 21.5826Z" fill="white"/>
<path d="M109.72 27.9775C109.47 29.6211 107.87 30.749 105.822 30.749C103.188 30.749 101.553 28.9844 101.553 26.1533C101.553 23.3135 103.197 21.4717 105.744 21.4717C108.249 21.4717 109.824 23.1924 109.824 25.9375V26.5742H103.429V26.6865C103.4 27.0197 103.441 27.3554 103.552 27.6712C103.662 27.9871 103.838 28.2759 104.068 28.5184C104.299 28.7609 104.578 28.9517 104.888 29.078C105.197 29.2043 105.53 29.2633 105.865 29.251C106.304 29.2921 106.745 29.1904 107.121 28.961C107.498 28.7315 107.791 28.3866 107.956 27.9775L109.72 27.9775ZM103.438 25.2754H107.964C107.981 24.9758 107.936 24.676 107.831 24.3948C107.726 24.1136 107.565 23.857 107.356 23.6413C107.148 23.4255 106.897 23.2552 106.619 23.1409C106.342 23.0267 106.044 22.9711 105.744 22.9775C105.441 22.9757 105.141 23.0339 104.861 23.1486C104.581 23.2634 104.326 23.4324 104.112 23.6461C103.898 23.8597 103.728 24.1137 103.612 24.3933C103.496 24.673 103.437 24.9728 103.438 25.2754V25.2754Z" fill="white"/>
<path d="M38.1621 8.87103C38.5517 8.84307 38.9427 8.90193 39.3068 9.04336C39.6709 9.1848 39.9991 9.40528 40.2677 9.6889C40.5363 9.97253 40.7386 10.3122 40.86 10.6835C40.9814 11.0548 41.0188 11.4484 40.9697 11.8359C40.9697 13.7421 39.9395 14.8379 38.1621 14.8379H36.0068V8.87103H38.1621ZM36.9336 13.994H38.0586C38.337 14.0107 38.6156 13.965 38.8741 13.8604C39.1327 13.7558 39.3646 13.5948 39.5531 13.3893C39.7416 13.1837 39.8819 12.9387 39.9638 12.6721C40.0456 12.4055 40.067 12.124 40.0264 11.848C40.0641 11.5732 40.0405 11.2934 39.9574 11.0288C39.8743 10.7641 39.7336 10.5211 39.5456 10.3172C39.3575 10.1132 39.1267 9.95342 38.8696 9.84919C38.6125 9.74495 38.3356 9.69887 38.0586 9.71424H36.9336V13.994Z" fill="white"/>
<path d="M42.0164 12.5844C41.9881 12.2885 42.0219 11.9899 42.1158 11.7079C42.2096 11.4258 42.3614 11.1665 42.5613 10.9465C42.7613 10.7265 43.005 10.5507 43.2768 10.4305C43.5487 10.3102 43.8427 10.248 44.1399 10.248C44.4372 10.248 44.7312 10.3102 45.003 10.4305C45.2749 10.5507 45.5186 10.7265 45.7185 10.9465C45.9185 11.1665 46.0702 11.4258 46.1641 11.7079C46.2579 11.9899 46.2918 12.2885 46.2635 12.5844C46.2923 12.8806 46.2589 13.1796 46.1653 13.4622C46.0717 13.7447 45.92 14.0045 45.72 14.2249C45.52 14.4453 45.2761 14.6215 45.004 14.742C44.7319 14.8625 44.4376 14.9248 44.1399 14.9248C43.8423 14.9248 43.548 14.8625 43.2758 14.742C43.0037 14.6215 42.7598 14.4453 42.5598 14.2249C42.3598 14.0045 42.2082 13.7447 42.1146 13.4622C42.021 13.1796 41.9875 12.8806 42.0164 12.5844ZM45.3494 12.5844C45.3494 11.6084 44.9109 11.0376 44.1414 11.0376C43.3689 11.0376 42.9344 11.6084 42.9344 12.5844C42.9344 13.5683 43.369 14.1347 44.1414 14.1347C44.9109 14.1347 45.3494 13.5644 45.3494 12.5844H45.3494Z" fill="white"/>
<path d="M51.9092 14.8379H50.9873L50.0566 11.5215H49.9863L49.0596 14.8379H48.1465L46.9053 10.335H47.8066L48.6133 13.771H48.6797L49.6055 10.335H50.458L51.3838 13.771H51.4541L52.2568 10.335H53.1455L51.9092 14.8379Z" fill="white"/>
<path d="M54.1895 10.3345H55.0449V11.0498H55.1113C55.224 10.7929 55.414 10.5776 55.6549 10.4337C55.8957 10.2899 56.1755 10.2249 56.4551 10.2476C56.6742 10.2311 56.8942 10.2642 57.0988 10.3443C57.3034 10.4244 57.4873 10.5495 57.637 10.7103C57.7867 10.8711 57.8983 11.0636 57.9635 11.2734C58.0287 11.4832 58.0458 11.705 58.0137 11.9224V14.8374H57.125V12.1456C57.125 11.4219 56.8106 11.0621 56.1533 11.0621C56.0046 11.0551 55.8561 11.0804 55.718 11.1363C55.58 11.1921 55.4556 11.2771 55.3535 11.3855C55.2514 11.4939 55.1739 11.6231 55.1263 11.7642C55.0788 11.9053 55.0624 12.0551 55.0781 12.2032V14.8374H54.1895L54.1895 10.3345Z" fill="white"/>
<path d="M59.4297 8.57715H60.3184V14.8379H59.4297V8.57715Z" fill="white"/>
<path d="M61.5535 12.5845C61.5252 12.2886 61.5591 11.99 61.6529 11.7079C61.7468 11.4258 61.8986 11.1665 62.0985 10.9465C62.2985 10.7265 62.5422 10.5507 62.8141 10.4305C63.086 10.3102 63.38 10.248 63.6773 10.248C63.9745 10.248 64.2686 10.3102 64.5404 10.4305C64.8123 10.5507 65.056 10.7265 65.256 10.9465C65.4559 11.1665 65.6077 11.4258 65.7016 11.7079C65.7954 11.99 65.8293 12.2886 65.801 12.5845C65.8298 12.8807 65.7964 13.1797 65.7027 13.4623C65.6091 13.7448 65.4574 14.0046 65.2574 14.225C65.0574 14.4454 64.8135 14.6215 64.5414 14.7421C64.2692 14.8626 63.9749 14.9249 63.6773 14.9249C63.3796 14.9249 63.0853 14.8626 62.8132 14.7421C62.541 14.6215 62.2971 14.4454 62.0971 14.225C61.8971 14.0046 61.7454 13.7448 61.6518 13.4623C61.5581 13.1797 61.5247 12.8807 61.5535 12.5845ZM64.8865 12.5845C64.8865 11.6084 64.448 11.0376 63.6785 11.0376C62.906 11.0376 62.4715 11.6084 62.4715 12.5845C62.4715 13.5684 62.906 14.1348 63.6785 14.1348C64.448 14.1348 64.8865 13.5645 64.8865 12.5845H64.8865Z" fill="white"/>
<path d="M66.7368 13.5644C66.7368 12.7539 67.3403 12.2866 68.4116 12.2202L69.6313 12.1499V11.7612C69.6313 11.2856 69.3169 11.0171 68.7095 11.0171C68.2134 11.0171 67.8696 11.1992 67.771 11.5176H66.9106C67.0015 10.7441 67.729 10.248 68.7505 10.248C69.8794 10.248 70.5161 10.81 70.5161 11.7612V14.8379H69.6606V14.2051H69.5903C69.4476 14.4321 69.2472 14.6171 69.0096 14.7413C68.772 14.8655 68.5056 14.9245 68.2378 14.9121C68.0488 14.9317 67.8577 14.9116 67.6769 14.8529C67.4962 14.7942 67.3297 14.6982 67.1883 14.5713C67.0469 14.4443 66.9337 14.2891 66.8559 14.1157C66.7781 13.9423 66.7376 13.7545 66.7368 13.5644ZM69.6313 13.1797V12.8032L68.5317 12.8735C67.9116 12.915 67.6304 13.126 67.6304 13.5229C67.6304 13.9282 67.9819 14.164 68.4654 14.164C68.607 14.1784 68.7501 14.1641 68.8861 14.122C69.0221 14.0799 69.1482 14.0109 69.257 13.919C69.3658 13.8272 69.455 13.7144 69.5193 13.5874C69.5836 13.4604 69.6217 13.3217 69.6313 13.1797Z" fill="white"/>
<path d="M71.6841 12.5845C71.6841 11.1616 72.4155 10.2603 73.5532 10.2603C73.8346 10.2473 74.1139 10.3147 74.3585 10.4546C74.603 10.5945 74.8026 10.8011 74.9341 11.0503H75.0005V8.57715H75.8892V14.8379H75.0376V14.1265H74.9673C74.8257 14.3739 74.6191 14.578 74.3698 14.7165C74.1206 14.8549 73.8382 14.9226 73.5532 14.9121C72.4077 14.9121 71.6841 14.0108 71.6841 12.5845ZM72.6021 12.5845C72.6021 13.5396 73.0523 14.1143 73.8052 14.1143C74.5542 14.1143 75.0171 13.5313 75.0171 12.5884C75.0171 11.6499 74.5494 11.0586 73.8052 11.0586C73.0571 11.0586 72.6021 11.6372 72.6021 12.5845H72.6021Z" fill="white"/>
<path d="M79.5657 12.5844C79.5374 12.2885 79.5712 11.9899 79.6651 11.7079C79.7589 11.4258 79.9107 11.1665 80.1106 10.9465C80.3106 10.7265 80.5543 10.5507 80.8261 10.4305C81.098 10.3102 81.392 10.248 81.6892 10.248C81.9865 10.248 82.2805 10.3102 82.5524 10.4305C82.8242 10.5507 83.0679 10.7265 83.2679 10.9465C83.4678 11.1665 83.6196 11.4258 83.7134 11.7079C83.8072 11.9899 83.8411 12.2885 83.8128 12.5844C83.8416 12.8806 83.8082 13.1796 83.7146 13.4622C83.621 13.7447 83.4693 14.0045 83.2693 14.2249C83.0693 14.4453 82.8254 14.6215 82.5533 14.742C82.2812 14.8625 81.9869 14.9248 81.6892 14.9248C81.3916 14.9248 81.0973 14.8625 80.8252 14.742C80.553 14.6215 80.3091 14.4453 80.1092 14.2249C79.9092 14.0045 79.7575 13.7447 79.6639 13.4622C79.5703 13.1796 79.5369 12.8806 79.5657 12.5844ZM82.8987 12.5844C82.8987 11.6084 82.4602 11.0376 81.6907 11.0376C80.9182 11.0376 80.4837 11.6084 80.4837 12.5844C80.4837 13.5683 80.9183 14.1347 81.6907 14.1347C82.4602 14.1347 82.8987 13.5644 82.8987 12.5844Z" fill="white"/>
<path d="M85.0054 10.3345H85.8608V11.0498H85.9273C86.0399 10.7929 86.2299 10.5776 86.4708 10.4337C86.7117 10.2899 86.9914 10.2249 87.271 10.2476C87.4901 10.2311 87.7101 10.2642 87.9147 10.3443C88.1193 10.4244 88.3033 10.5495 88.4529 10.7103C88.6026 10.8711 88.7142 11.0636 88.7794 11.2734C88.8446 11.4832 88.8617 11.705 88.8296 11.9224V14.8374H87.9409V12.1456C87.9409 11.4219 87.6265 11.0621 86.9692 11.0621C86.8205 11.0551 86.672 11.0804 86.5339 11.1363C86.3959 11.1921 86.2715 11.2771 86.1694 11.3855C86.0673 11.4939 85.9898 11.6231 85.9423 11.7642C85.8947 11.9053 85.8783 12.0551 85.894 12.2032V14.8374H85.0054V10.3345Z" fill="white"/>
<path d="M93.8511 9.21387V10.3555H94.8267V11.104H93.8511V13.4194C93.8511 13.8911 94.0454 14.0977 94.4878 14.0977C94.601 14.0973 94.7142 14.0904 94.8267 14.0771V14.8174C94.6671 14.8459 94.5054 14.8611 94.3433 14.8628C93.355 14.8628 92.9614 14.5151 92.9614 13.647V11.104H92.2466V10.3554H92.9614V9.21387H93.8511Z" fill="white"/>
<path d="M96.0405 8.57715H96.9214V11.0586H96.9917C97.1098 10.7993 97.305 10.5827 97.5507 10.4383C97.7964 10.294 98.0807 10.2289 98.3647 10.252C98.5827 10.2401 98.8005 10.2765 99.0028 10.3585C99.2051 10.4406 99.3868 10.5662 99.5349 10.7266C99.683 10.8869 99.7939 11.078 99.8597 11.2861C99.9255 11.4942 99.9445 11.7143 99.9155 11.9307V14.8379H99.0259V12.1499C99.0259 11.4307 98.6909 11.0664 98.063 11.0664C97.9103 11.0539 97.7567 11.0749 97.6129 11.1279C97.4691 11.181 97.3387 11.2648 97.2307 11.3735C97.1227 11.4823 97.0397 11.6133 96.9877 11.7574C96.9356 11.9016 96.9157 12.0553 96.9292 12.208V14.8379H96.0406L96.0405 8.57715Z" fill="white"/>
<path d="M105.097 13.6221C104.977 14.0337 104.715 14.3897 104.358 14.6278C104.002 14.866 103.573 14.9711 103.146 14.9249C102.849 14.9327 102.555 14.8759 102.282 14.7584C102.01 14.6408 101.766 14.4654 101.568 14.2443C101.37 14.0231 101.223 13.7616 101.136 13.4778C101.049 13.1939 101.026 12.8946 101.066 12.6007C101.027 12.3058 101.051 12.0058 101.137 11.7212C101.224 11.4365 101.371 11.1737 101.567 10.9507C101.764 10.7276 102.007 10.5494 102.278 10.4282C102.55 10.307 102.845 10.2456 103.142 10.2481C104.395 10.2481 105.151 11.1041 105.151 12.5181V12.8282H101.971V12.878C101.957 13.0433 101.978 13.2096 102.032 13.3663C102.086 13.5231 102.173 13.6668 102.286 13.7883C102.399 13.9097 102.536 14.0062 102.688 14.0716C102.84 14.137 103.005 14.1699 103.171 14.168C103.383 14.1935 103.598 14.1553 103.789 14.058C103.98 13.9608 104.138 13.8091 104.242 13.6221L105.097 13.6221ZM101.971 12.171H104.246C104.257 12.0198 104.236 11.868 104.185 11.7253C104.134 11.5826 104.054 11.4521 103.95 11.3423C103.845 11.2324 103.719 11.1456 103.579 11.0874C103.439 11.0293 103.289 11.001 103.137 11.0045C102.984 11.0025 102.831 11.0314 102.689 11.0893C102.546 11.1473 102.417 11.2331 102.308 11.3419C102.2 11.4506 102.114 11.5799 102.056 11.7223C101.998 11.8647 101.969 12.0173 101.971 12.171H101.971Z" fill="white"/>
<path d="M266 0.140625H141C138.239 0.140625 136 2.3792 136 5.14062V35.1406C136 37.9021 138.239 40.1406 141 40.1406H266C268.761 40.1406 271 37.9021 271 35.1406V5.14062C271 2.3792 268.761 0.140625 266 0.140625Z" fill="black"/>
<path d="M266 0.940625C267.114 0.940625 268.182 1.38312 268.97 2.17078C269.758 2.95843 270.2 4.02672 270.2 5.14062V35.1406C270.2 36.2545 269.758 37.3228 268.97 38.1105C268.182 38.8981 267.114 39.3406 266 39.3406H141C139.886 39.3406 138.818 38.8981 138.03 38.1105C137.242 37.3228 136.8 36.2545 136.8 35.1406V5.14062C136.8 4.02672 137.242 2.95843 138.03 2.17078C138.818 1.38312 139.886 0.940625 141 0.940625H266ZM266 0.140625H141C139.674 0.140625 138.402 0.667409 137.464 1.60509C136.527 2.54277 136 3.81454 136 5.14062V35.1406C136 36.4667 136.527 37.7385 137.464 38.6762C138.402 39.6138 139.674 40.1406 141 40.1406H266C267.326 40.1406 268.598 39.6138 269.536 38.6762C270.473 37.7385 271 36.4667 271 35.1406V5.14062C271 3.81454 270.473 2.54277 269.536 1.60509C268.598 0.667409 267.326 0.140625 266 0.140625Z" fill="#A6A6A6"/>
<path d="M180.376 10.6264H182.467V13.5275C182.153 13.6339 181.83 13.713 181.497 13.7648C181.167 13.8167 180.797 13.8426 180.388 13.8426C179.766 13.8426 179.241 13.7185 178.813 13.4702C178.387 13.222 178.064 12.8687 177.843 12.4104C177.622 11.9494 177.511 11.4025 177.511 10.7696C177.511 10.1504 177.633 9.6103 177.876 9.14929C178.121 8.68828 178.474 8.33093 178.935 8.07724C179.399 7.82082 179.956 7.69261 180.605 7.69261C180.938 7.69261 181.253 7.72398 181.55 7.78672C181.85 7.84673 182.128 7.93266 182.385 8.0445L182.119 8.65009C181.898 8.55461 181.654 8.47278 181.386 8.40458C181.122 8.33638 180.848 8.30229 180.564 8.30229C180.076 8.30229 179.657 8.40322 179.308 8.60508C178.961 8.80694 178.695 9.092 178.51 9.46026C178.327 9.82853 178.236 10.265 178.236 10.7696C178.236 11.2688 178.316 11.7039 178.477 12.0749C178.638 12.4432 178.889 12.7296 179.23 12.9342C179.571 13.1388 180.01 13.2411 180.548 13.2411C180.818 13.2411 181.05 13.2261 181.243 13.1961C181.437 13.1633 181.613 13.1251 181.771 13.0815V11.2484H180.376V10.6264ZM187.246 13.7607H183.915V7.77854H187.246V8.3923H184.611V10.3277H187.094V10.9333H184.611V13.147H187.246V13.7607ZM190.409 13.7607H189.709V8.3923H187.827V7.77854H192.283V8.3923H190.409V13.7607ZM195.364 13.7607V7.77854H196.06V13.7607H195.364ZM199.542 13.7607H198.842V8.3923H196.96V7.77854H201.416V8.3923H199.542V13.7607ZM209.685 10.7615C209.685 11.2225 209.627 11.6426 209.509 12.0217C209.392 12.3982 209.217 12.7228 208.986 12.9956C208.756 13.2656 208.471 13.4743 208.13 13.6216C207.789 13.7689 207.394 13.8426 206.944 13.8426C206.48 13.8426 206.075 13.7689 205.729 13.6216C205.385 13.4743 205.098 13.2643 204.869 12.9915C204.643 12.7187 204.472 12.3927 204.358 12.0135C204.246 11.6344 204.19 11.2143 204.19 10.7533C204.19 10.1422 204.291 9.6062 204.493 9.1452C204.695 8.68419 205 8.32547 205.409 8.06905C205.821 7.81263 206.337 7.68442 206.956 7.68442C207.548 7.68442 208.046 7.81127 208.45 8.06496C208.856 8.31865 209.163 8.676 209.37 9.13701C209.58 9.59529 209.685 10.1368 209.685 10.7615ZM204.922 10.7615C204.922 11.2688 204.995 11.708 205.139 12.079C205.284 12.45 205.505 12.7364 205.802 12.9383C206.102 13.1402 206.483 13.2411 206.944 13.2411C207.408 13.2411 207.787 13.1402 208.081 12.9383C208.379 12.7364 208.598 12.45 208.74 12.079C208.882 11.708 208.953 11.2688 208.953 10.7615C208.953 9.98947 208.791 9.38661 208.466 8.95288C208.144 8.51642 207.641 8.29819 206.956 8.29819C206.492 8.29819 206.11 8.39776 205.81 8.59689C205.51 8.79603 205.287 9.07973 205.139 9.44799C204.995 9.81352 204.922 10.2513 204.922 10.7615ZM215.696 13.7607H214.894L211.633 8.73602H211.6C211.608 8.86968 211.618 9.02244 211.629 9.1943C211.64 9.36342 211.648 9.54483 211.653 9.73851C211.662 9.92946 211.666 10.1245 211.666 10.3236V13.7607H211.019V7.77854H211.817L215.066 12.7869H215.095C215.089 12.6914 215.082 12.5564 215.074 12.3818C215.066 12.2045 215.058 12.0149 215.05 11.813C215.044 11.6085 215.041 11.4189 215.041 11.2443V7.77854H215.696V13.7607Z" fill="white"/>
<path d="M180.376 10.6264V10.5264H180.276V10.6264H180.376ZM182.467 10.6264H182.567V10.5264H182.467V10.6264ZM182.467 13.5275L182.499 13.6222L182.567 13.5992V13.5275H182.467ZM181.497 13.7648L181.481 13.666L181.481 13.666L181.497 13.7648ZM178.813 13.4702L178.762 13.5566L178.763 13.5567L178.813 13.4702ZM177.843 12.4104L177.753 12.4537L177.753 12.4539L177.843 12.4104ZM177.876 9.14929L177.787 9.10228L177.787 9.10269L177.876 9.14929ZM178.935 8.07724L178.984 8.16485L178.984 8.16475L178.935 8.07724ZM181.55 7.78672L181.529 7.88457L181.53 7.88478L181.55 7.78672ZM182.385 8.0445L182.476 8.08471L182.517 7.99292L182.425 7.95284L182.385 8.0445ZM182.119 8.65009L182.079 8.74188L182.17 8.78131L182.21 8.6903L182.119 8.65009ZM181.386 8.40458L181.361 8.50142L181.362 8.50148L181.386 8.40458ZM179.308 8.60508L179.258 8.5185L179.257 8.51868L179.308 8.60508ZM178.51 9.46026L178.421 9.41528L178.42 9.41581L178.51 9.46026ZM178.477 12.0749L178.385 12.1147L178.386 12.115L178.477 12.0749ZM179.23 12.9342L179.179 13.0199L179.23 12.9342ZM181.243 13.1961L181.259 13.2949L181.26 13.2947L181.243 13.1961ZM181.771 13.0815L181.798 13.1779L181.871 13.1577V13.0815H181.771ZM181.771 11.2484H181.871V11.1484H181.771V11.2484ZM180.376 11.2484H180.276V11.3484H180.376V11.2484ZM180.376 10.7264H182.467V10.5264H180.376V10.7264ZM182.367 10.6264V13.5275H182.567V10.6264H182.367ZM182.435 13.4328C182.126 13.5373 181.809 13.6151 181.481 13.666L181.512 13.8636C181.851 13.8109 182.18 13.7305 182.499 13.6222L182.435 13.4328ZM181.481 13.666C181.157 13.7169 180.793 13.7426 180.388 13.7426V13.9426C180.801 13.9426 181.176 13.9164 181.512 13.8636L181.481 13.666ZM180.388 13.7426C179.779 13.7426 179.272 13.6211 178.863 13.3837L178.763 13.5567C179.209 13.8158 179.753 13.9426 180.388 13.9426V13.7426ZM178.863 13.3838C178.455 13.146 178.146 12.808 177.933 12.367L177.753 12.4539C177.982 12.9295 178.319 13.298 178.762 13.5566L178.863 13.3838ZM177.933 12.3672C177.72 11.9225 177.611 11.391 177.611 10.7696H177.411C177.411 11.414 177.524 11.9764 177.753 12.4537L177.933 12.3672ZM177.611 10.7696C177.611 10.1636 177.73 9.64005 177.964 9.19588L177.787 9.10269C177.536 9.58054 177.411 10.1372 177.411 10.7696H177.611ZM177.964 9.19629C178.2 8.75255 178.539 8.40925 178.984 8.16485L178.887 7.98963C178.409 8.2526 178.042 8.624 177.787 9.10228L177.964 9.19629ZM178.984 8.16475C179.43 7.91817 179.969 7.79261 180.605 7.79261V7.59261C179.942 7.59261 179.369 7.72346 178.887 7.98972L178.984 8.16475ZM180.605 7.79261C180.931 7.79261 181.239 7.82338 181.529 7.88456L181.571 7.68887C181.266 7.62457 180.944 7.59261 180.605 7.59261V7.79261ZM181.53 7.88478C181.824 7.94352 182.096 8.02743 182.345 8.13616L182.425 7.95284C182.161 7.83789 181.876 7.74994 181.57 7.68866L181.53 7.88478ZM182.293 8.00429L182.027 8.60988L182.21 8.6903L182.476 8.08471L182.293 8.00429ZM182.159 8.55829C181.932 8.46045 181.683 8.377 181.411 8.30768L181.362 8.50148C181.625 8.56855 181.864 8.64878 182.079 8.74188L182.159 8.55829ZM181.411 8.30774C181.138 8.23737 180.856 8.20229 180.564 8.20229V8.40229C180.84 8.40229 181.105 8.4354 181.361 8.50142L181.411 8.30774ZM180.564 8.20229C180.062 8.20229 179.625 8.30617 179.258 8.5185L179.358 8.69165C179.689 8.50027 180.09 8.40229 180.564 8.40229V8.20229ZM179.257 8.51868C178.894 8.73057 178.615 9.03025 178.421 9.41528L178.599 9.50525C178.776 9.15375 179.029 8.88331 179.358 8.69148L179.257 8.51868ZM178.42 9.41581C178.229 9.80067 178.136 10.253 178.136 10.7696H178.336C178.336 10.277 178.425 9.85638 178.599 9.50472L178.42 9.41581ZM178.136 10.7696C178.136 11.2794 178.218 11.7286 178.385 12.1147L178.569 12.0351C178.415 11.6793 178.336 11.2583 178.336 10.7696H178.136ZM178.386 12.115C178.555 12.5021 178.82 12.8045 179.179 13.0199L179.281 12.8484C178.959 12.6547 178.721 12.3843 178.569 12.0349L178.386 12.115ZM179.179 13.0199C179.54 13.2366 179.998 13.3411 180.548 13.3411V13.1411C180.022 13.1411 179.602 13.041 179.281 12.8484L179.179 13.0199ZM180.548 13.3411C180.821 13.3411 181.058 13.3259 181.259 13.2949L181.228 13.0973C181.041 13.1262 180.814 13.1411 180.548 13.1411V13.3411ZM181.26 13.2947C181.456 13.2615 181.636 13.2226 181.798 13.1779L181.744 12.9851C181.59 13.0277 181.417 13.0652 181.227 13.0975L181.26 13.2947ZM181.871 13.0815V11.2484H181.671V13.0815H181.871ZM181.771 11.1484H180.376V11.3484H181.771V11.1484ZM180.476 11.2484V10.6264H180.276V11.2484H180.476ZM187.246 13.7607V13.8607H187.346V13.7607H187.246ZM183.915 13.7607H183.815V13.8607H183.915V13.7607ZM183.915 7.77854V7.67853H183.815V7.77854H183.915ZM187.246 7.77854H187.346V7.67853H187.246V7.77854ZM187.246 8.3923V8.4923H187.346V8.3923H187.246ZM184.611 8.3923V8.2923H184.511V8.3923H184.611ZM184.611 10.3277H184.511V10.4277H184.611V10.3277ZM187.094 10.3277H187.194V10.2277H187.094V10.3277ZM187.094 10.9333V11.0333H187.194V10.9333H187.094ZM184.611 10.9333V10.8333H184.511V10.9333H184.611ZM184.611 13.147H184.511V13.247H184.611V13.147ZM187.246 13.147H187.346V13.047H187.246V13.147ZM187.246 13.6607H183.915V13.8607H187.246V13.6607ZM184.015 13.7607V7.77854H183.815V13.7607H184.015ZM183.915 7.87854H187.246V7.67853H183.915V7.87854ZM187.146 7.77854V8.3923H187.346V7.77854H187.146ZM187.246 8.2923H184.611V8.4923H187.246V8.2923ZM184.511 8.3923V10.3277H184.711V8.3923H184.511ZM184.611 10.4277H187.094V10.2277H184.611V10.4277ZM186.994 10.3277V10.9333H187.194V10.3277H186.994ZM187.094 10.8333H184.611V11.0333H187.094V10.8333ZM184.511 10.9333V13.147H184.711V10.9333H184.511ZM184.611 13.247H187.246V13.047H184.611V13.247ZM187.146 13.147V13.7607H187.346V13.147H187.146ZM190.409 13.7607V13.8607H190.509V13.7607H190.409ZM189.709 13.7607H189.609V13.8607H189.709V13.7607ZM189.709 8.3923H189.809V8.2923H189.709V8.3923ZM187.827 8.3923H187.727V8.4923H187.827V8.3923ZM187.827 7.77854V7.67853H187.727V7.77854H187.827ZM192.283 7.77854H192.383V7.67853H192.283V7.77854ZM192.283 8.3923V8.4923H192.383V8.3923H192.283ZM190.409 8.3923V8.2923H190.309V8.3923H190.409ZM190.409 13.6607H189.709V13.8607H190.409V13.6607ZM189.809 13.7607V8.3923H189.609V13.7607H189.809ZM189.709 8.2923H187.827V8.4923H189.709V8.2923ZM187.927 8.3923V7.77854H187.727V8.3923H187.927ZM187.827 7.87854H192.283V7.67853H187.827V7.87854ZM192.183 7.77854V8.3923H192.383V7.77854H192.183ZM192.283 8.2923H190.409V8.4923H192.283V8.2923ZM190.309 8.3923V13.7607H190.509V8.3923H190.309ZM195.364 13.7607H195.264V13.8607H195.364V13.7607ZM195.364 7.77854V7.67853H195.264V7.77854H195.364ZM196.06 7.77854H196.16V7.67853H196.06V7.77854ZM196.06 13.7607V13.8607H196.16V13.7607H196.06ZM195.464 13.7607V7.77854H195.264V13.7607H195.464ZM195.364 7.87854H196.06V7.67853H195.364V7.87854ZM195.96 7.77854V13.7607H196.16V7.77854H195.96ZM196.06 13.6607H195.364V13.8607H196.06V13.6607ZM199.542 13.7607V13.8607H199.642V13.7607H199.542ZM198.842 13.7607H198.742V13.8607H198.842V13.7607ZM198.842 8.3923H198.942V8.2923H198.842V8.3923ZM196.96 8.3923H196.86V8.4923H196.96V8.3923ZM196.96 7.77854V7.67853H196.86V7.77854H196.96ZM201.416 7.77854H201.516V7.67853H201.416V7.77854ZM201.416 8.3923V8.4923H201.516V8.3923H201.416ZM199.542 8.3923V8.2923H199.442V8.3923H199.542ZM199.542 13.6607H198.842V13.8607H199.542V13.6607ZM198.942 13.7607V8.3923H198.742V13.7607H198.942ZM198.842 8.2923H196.96V8.4923H198.842V8.2923ZM197.06 8.3923V7.77854H196.86V8.3923H197.06ZM196.96 7.87854H201.416V7.67853H196.96V7.87854ZM201.316 7.77854V8.3923H201.516V7.77854H201.316ZM201.416 8.2923H199.542V8.4923H201.416V8.2923ZM199.442 8.3923V13.7607H199.642V8.3923H199.442ZM209.509 12.0217L209.605 12.0515L209.605 12.0513L209.509 12.0217ZM208.986 12.9956L208.909 12.9308L208.909 12.9309L208.986 12.9956ZM208.13 13.6216L208.17 13.7134L208.13 13.6216ZM205.729 13.6216L205.689 13.7135L205.689 13.7136L205.729 13.6216ZM204.869 12.9915L204.792 13.0554L204.793 13.0558L204.869 12.9915ZM204.358 12.0135L204.262 12.0418L204.262 12.0425L204.358 12.0135ZM205.409 8.06905L205.356 7.98416L205.356 7.98432L205.409 8.06905ZM208.45 8.06496L208.396 8.14963L208.397 8.14979L208.45 8.06496ZM209.37 9.13701L209.279 9.17803L209.279 9.17868L209.37 9.13701ZM205.802 12.9383L205.746 13.021L205.746 13.0213L205.802 12.9383ZM208.081 12.9383L208.025 12.8556L208.025 12.8558L208.081 12.9383ZM208.466 8.95288L208.385 9.01224L208.386 9.0128L208.466 8.95288ZM205.81 8.59689L205.755 8.51357L205.81 8.59689ZM205.139 9.44799L205.046 9.41085L205.046 9.41121L205.139 9.44799ZM209.585 10.7615C209.585 11.214 209.528 11.624 209.414 11.9922L209.605 12.0513C209.726 11.6611 209.785 11.2309 209.785 10.7615H209.585ZM209.414 11.992C209.3 12.3569 209.132 12.6693 208.909 12.9308L209.062 13.0603C209.303 12.7763 209.484 12.4395 209.605 12.0515L209.414 11.992ZM208.909 12.9309C208.691 13.1886 208.418 13.3883 208.091 13.5298L208.17 13.7134C208.524 13.5603 208.822 13.3426 209.062 13.0603L208.909 12.9309ZM208.091 13.5298C207.765 13.6707 207.383 13.7426 206.944 13.7426V13.9426C207.405 13.9426 207.814 13.8672 208.17 13.7134L208.091 13.5298ZM206.944 13.7426C206.49 13.7426 206.099 13.6706 205.768 13.5296L205.689 13.7136C206.051 13.8673 206.47 13.9426 206.944 13.9426V13.7426ZM205.768 13.5297C205.438 13.3883 205.164 13.1874 204.946 12.9272L204.793 13.0558C205.032 13.3412 205.332 13.5604 205.689 13.7135L205.768 13.5297ZM204.946 12.9276C204.729 12.6662 204.565 12.3525 204.453 11.9846L204.262 12.0425C204.38 12.4329 204.556 12.7711 204.792 13.0554L204.946 12.9276ZM204.454 11.9853C204.345 11.6166 204.29 11.2063 204.29 10.7533H204.09C204.09 11.2223 204.147 11.6521 204.262 12.0418L204.454 11.9853ZM204.29 10.7533C204.29 10.1531 204.389 9.63126 204.584 9.18531L204.401 9.10508C204.193 9.58114 204.09 10.1313 204.09 10.7533H204.29ZM204.584 9.18531C204.779 8.74188 205.071 8.39907 205.462 8.15379L205.356 7.98432C204.929 8.25187 204.611 8.62649 204.401 9.10508L204.584 9.18531ZM205.462 8.15395C205.854 7.90979 206.35 7.78442 206.956 7.78442V7.58442C206.323 7.58442 205.788 7.71548 205.356 7.98416L205.462 8.15395ZM206.956 7.78442C207.534 7.78442 208.012 7.90812 208.396 8.14963L208.503 7.98029C208.08 7.71442 207.562 7.58442 206.956 7.58442V7.78442ZM208.397 8.14979C208.785 8.3924 209.079 8.73404 209.279 9.17803L209.461 9.096C209.246 8.61796 208.927 8.24491 208.503 7.98013L208.397 8.14979ZM209.279 9.17868C209.482 9.62115 209.585 10.1478 209.585 10.7615H209.785C209.785 10.1257 209.678 9.56944 209.461 9.09535L209.279 9.17868ZM204.822 10.7615C204.822 11.278 204.896 11.7301 205.046 12.1153L205.232 12.0427C205.093 11.686 205.022 11.2597 205.022 10.7615H204.822ZM205.046 12.1153C205.197 12.5031 205.43 12.8066 205.746 13.021L205.858 12.8556C205.58 12.6663 205.371 12.397 205.232 12.0427L205.046 12.1153ZM205.746 13.0213C206.067 13.2369 206.468 13.3411 206.944 13.3411V13.1411C206.497 13.1411 206.138 13.0434 205.858 12.8553L205.746 13.0213ZM206.944 13.3411C207.422 13.3411 207.822 13.237 208.138 13.0208L208.025 12.8558C207.751 13.0433 207.393 13.1411 206.944 13.1411V13.3411ZM208.137 13.021C208.453 12.8065 208.685 12.5027 208.833 12.1147L208.647 12.0433C208.511 12.3973 208.304 12.6664 208.025 12.8556L208.137 13.021ZM208.833 12.1147C208.981 11.7297 209.053 11.2778 209.053 10.7615H208.853C208.853 11.2599 208.783 11.6864 208.647 12.0433L208.833 12.1147ZM209.053 10.7615C209.053 9.97676 208.888 9.34996 208.546 8.89296L208.386 9.0128C208.693 9.42326 208.853 10.0022 208.853 10.7615H209.053ZM208.546 8.89353C208.201 8.42488 207.663 8.19819 206.956 8.19819V8.39819C207.618 8.39819 208.087 8.60796 208.385 9.01224L208.546 8.89353ZM206.956 8.19819C206.478 8.19819 206.076 8.30083 205.755 8.51357L205.866 8.68022C206.145 8.49469 206.506 8.39819 206.956 8.39819V8.19819ZM205.755 8.51357C205.436 8.72507 205.2 9.02573 205.046 9.41085L205.232 9.48513C205.373 9.13372 205.584 8.86699 205.866 8.68022L205.755 8.51357ZM205.046 9.41121C204.896 9.79137 204.822 10.2423 204.822 10.7615H205.022C205.022 10.2604 205.093 9.83568 205.232 9.48477L205.046 9.41121ZM215.696 13.7607V13.8607H215.796V13.7607H215.696ZM214.894 13.7607L214.81 13.8152L214.84 13.8607H214.894V13.7607ZM211.633 8.73602L211.717 8.68157L211.687 8.63602H211.633V8.73602ZM211.6 8.73602V8.63602H211.494L211.5 8.74213L211.6 8.73602ZM211.629 9.1943L211.529 9.20063L211.529 9.20074L211.629 9.1943ZM211.653 9.73851L211.553 9.74132L211.554 9.74279L211.653 9.73851ZM211.666 13.7607V13.8607H211.766V13.7607H211.666ZM211.019 13.7607H210.919V13.8607H211.019V13.7607ZM211.019 7.77854V7.67853H210.919V7.77854H211.019ZM211.817 7.77854L211.901 7.72411L211.871 7.67853H211.817V7.77854ZM215.066 12.7869L214.982 12.8413L215.012 12.8869H215.066V12.7869ZM215.095 12.7869V12.8869H215.201L215.194 12.7812L215.095 12.7869ZM215.074 12.3818L214.974 12.3864L214.974 12.3865L215.074 12.3818ZM215.05 11.813L214.95 11.8157L214.95 11.8171L215.05 11.813ZM215.041 7.77854V7.67853H214.941V7.77854H215.041ZM215.696 7.77854H215.796V7.67853H215.696V7.77854ZM215.696 13.6607H214.894V13.8607H215.696V13.6607ZM214.978 13.7063L211.717 8.68157L211.549 8.79046L214.81 13.8152L214.978 13.7063ZM211.633 8.63602H211.6V8.83602H211.633V8.63602ZM211.5 8.74213C211.509 8.87588 211.518 9.02872 211.529 9.20063L211.729 9.18796C211.718 9.01616 211.708 8.86348 211.7 8.7299L211.5 8.74213ZM211.529 9.20074C211.54 9.3685 211.548 9.54868 211.553 9.74132L211.753 9.73569C211.748 9.54097 211.74 9.35835 211.729 9.18786L211.529 9.20074ZM211.554 9.74279C211.562 9.93225 211.566 10.1259 211.566 10.3236H211.766C211.766 10.1231 211.762 9.92666 211.753 9.73422L211.554 9.74279ZM211.566 10.3236V13.7607H211.766V10.3236H211.566ZM211.666 13.6607H211.019V13.8607H211.666V13.6607ZM211.119 13.7607V7.77854H210.919V13.7607H211.119ZM211.019 7.87854H211.817V7.67853H211.019V7.87854ZM211.733 7.83296L214.982 12.8413L215.15 12.7325L211.901 7.72411L211.733 7.83296ZM215.066 12.8869H215.095V12.6869H215.066V12.8869ZM215.194 12.7812C215.189 12.6862 215.182 12.5516 215.174 12.3771L214.974 12.3865C214.982 12.5612 214.989 12.6966 214.995 12.7926L215.194 12.7812ZM215.174 12.3772C215.166 12.2001 215.158 12.0107 215.15 11.809L214.95 11.8171C214.958 12.0191 214.966 12.2089 214.974 12.3864L215.174 12.3772ZM215.15 11.8104C215.144 11.6065 215.141 11.4178 215.141 11.2443H214.941C214.941 11.4199 214.944 11.6104 214.95 11.8157L215.15 11.8104ZM215.141 11.2443V7.77854H214.941V11.2443H215.141ZM215.041 7.87854H215.696V7.67853H215.041V7.87854ZM215.596 7.77854V13.7607H215.796V7.77854H215.596Z" fill="white"/>
<path d="M204.14 21.8905C203.298 21.8925 202.475 22.1443 201.775 22.614C201.076 23.0838 200.531 23.7504 200.211 24.5296C199.89 25.3087 199.808 26.1655 199.974 26.9914C200.14 27.8174 200.548 28.5755 201.145 29.1699C201.742 29.7642 202.502 30.1682 203.329 30.3306C204.156 30.4931 205.012 30.4067 205.79 30.0824C206.567 29.7582 207.231 29.2106 207.698 28.509C208.164 27.8073 208.412 26.9831 208.41 26.1405C208.418 25.5785 208.313 25.0205 208.101 24.4999C207.889 23.9793 207.575 23.5066 207.176 23.1101C206.778 22.7135 206.304 22.4012 205.782 22.1917C205.261 21.9822 204.702 21.8798 204.14 21.8905ZM204.14 28.7205C203.624 28.7567 203.108 28.6366 202.661 28.3759C202.214 28.1153 201.855 27.7261 201.632 27.259C201.409 26.7919 201.331 26.2684 201.41 25.7567C201.488 25.245 201.718 24.7686 202.071 24.3896C202.424 24.0105 202.882 23.7463 203.387 23.6313C203.892 23.5163 204.419 23.5558 204.901 23.7446C205.383 23.9335 205.797 24.263 206.09 24.6903C206.382 25.1175 206.539 25.6229 206.54 26.1405C206.556 26.4686 206.506 26.7965 206.394 27.105C206.281 27.4135 206.108 27.6963 205.884 27.9367C205.661 28.1772 205.391 28.3704 205.091 28.505C204.792 28.6397 204.468 28.7129 204.14 28.7205ZM194.82 21.8905C193.978 21.8925 193.155 22.1443 192.455 22.614C191.756 23.0838 191.211 23.7504 190.891 24.5296C190.57 25.3087 190.488 26.1655 190.654 26.9914C190.82 27.8174 191.228 28.5755 191.825 29.1699C192.422 29.7642 193.182 30.1682 194.009 30.3306C194.836 30.4931 195.692 30.4067 196.47 30.0824C197.247 29.7582 197.911 29.2106 198.378 28.509C198.844 27.8073 199.092 26.9831 199.09 26.1405C199.098 25.5785 198.993 25.0205 198.781 24.4999C198.569 23.9793 198.255 23.5066 197.856 23.1101C197.458 22.7135 196.984 22.4012 196.462 22.1917C195.941 21.9822 195.382 21.8798 194.82 21.8905ZM194.82 28.7205C194.304 28.7567 193.788 28.6366 193.341 28.3759C192.894 28.1153 192.535 27.7261 192.312 27.259C192.089 26.7919 192.011 26.2684 192.09 25.7567C192.168 25.245 192.398 24.7686 192.751 24.3896C193.104 24.0105 193.562 23.7463 194.067 23.6313C194.572 23.5163 195.099 23.5558 195.581 23.7446C196.063 23.9335 196.477 24.263 196.77 24.6903C197.062 25.1175 197.219 25.6229 197.22 26.1405C197.236 26.4686 197.186 26.7965 197.074 27.105C196.961 27.4135 196.788 27.6963 196.564 27.9367C196.341 28.1772 196.071 28.3704 195.771 28.505C195.472 28.6397 195.148 28.7129 194.82 28.7205ZM183.74 23.2005V25.0005H188.06C187.992 25.8484 187.64 26.6483 187.06 27.2705C186.627 27.7121 186.106 28.0577 185.53 28.2851C184.955 28.5124 184.338 28.6165 183.72 28.5905C182.447 28.5905 181.226 28.0848 180.326 27.1847C179.426 26.2845 178.92 25.0636 178.92 23.7905C178.92 22.5175 179.426 21.2966 180.326 20.3964C181.226 19.4963 182.447 18.9905 183.72 18.9905C184.941 18.9724 186.119 19.4359 187 20.2805L188.27 19.0105C187.674 18.4211 186.966 17.9564 186.189 17.6439C185.411 17.3314 184.578 17.1773 183.74 17.1905C182.851 17.1559 181.964 17.3012 181.133 17.6175C180.301 17.9339 179.542 18.4148 178.901 19.0316C178.26 19.6483 177.75 20.3881 177.401 21.2067C177.053 22.0253 176.873 22.9059 176.873 23.7955C176.873 24.6852 177.053 25.5657 177.401 26.3843C177.75 27.203 178.26 27.9428 178.901 28.5595C179.542 29.1763 180.301 29.6572 181.133 29.9736C181.964 30.2899 182.851 30.4351 183.74 30.4005C184.596 30.4347 185.448 30.2875 186.243 29.9687C187.038 29.6499 187.756 29.1666 188.35 28.5505C189.4 27.397 189.96 25.8797 189.91 24.3205C189.914 23.9453 189.884 23.5704 189.82 23.2005H183.74ZM229.05 24.6005C228.789 23.8333 228.302 23.1633 227.652 22.6794C227.002 22.1955 226.22 21.9204 225.41 21.8905C224.863 21.8895 224.322 22.0006 223.819 22.2171C223.317 22.4336 222.864 22.7508 222.489 23.1491C222.115 23.5474 221.825 24.0184 221.64 24.5329C221.454 25.0475 221.376 25.5946 221.41 26.1405C221.402 27.0534 221.689 27.9445 222.228 28.6808C222.768 29.4171 223.531 29.959 224.404 30.2257C225.277 30.4923 226.213 30.4694 227.072 30.1603C227.931 29.8511 228.667 29.2724 229.17 28.5105L227.72 27.5105C227.504 27.8708 227.197 28.1683 226.831 28.3736C226.464 28.5788 226.05 28.6846 225.63 28.6805C225.197 28.6984 224.768 28.5848 224.4 28.3546C224.033 28.1243 223.743 27.7883 223.57 27.3905L229.26 25.0405L229.05 24.6005ZM223.25 26.0205C223.23 25.7099 223.272 25.3984 223.373 25.1042C223.475 24.8099 223.634 24.539 223.842 24.3071C224.05 24.0752 224.302 23.8871 224.583 23.7537C224.864 23.6204 225.169 23.5445 225.48 23.5305C225.802 23.5109 226.123 23.5867 226.402 23.7486C226.682 23.9105 226.907 24.1512 227.05 24.4405L223.25 26.0205ZM218.63 30.1405H220.5V17.6405H218.63V30.1405ZM215.57 22.8405H215.5C215.221 22.5224 214.876 22.2684 214.489 22.0958C214.103 21.9232 213.683 21.8361 213.26 21.8405C212.167 21.8935 211.137 22.365 210.382 23.1571C209.627 23.9493 209.206 25.0014 209.206 26.0955C209.206 27.1897 209.627 28.2418 210.382 29.034C211.137 29.8261 212.167 30.2976 213.26 30.3505C213.684 30.3591 214.105 30.2738 214.492 30.101C214.879 29.9281 215.223 29.6719 215.5 29.3505H215.57V29.9605C215.57 31.5905 214.7 32.4605 213.3 32.4605C212.832 32.4503 212.378 32.3012 211.996 32.0324C211.613 31.7635 211.318 31.387 211.15 30.9505L209.53 31.6205C209.83 32.3728 210.35 33.0164 211.023 33.4664C211.697 33.9163 212.49 34.1514 213.3 34.1405C215.49 34.1405 217.3 32.8505 217.3 29.7105V22.1405H215.57V22.8405ZM213.42 28.7205C212.765 28.6797 212.15 28.3906 211.7 27.9122C211.251 27.4338 211.001 26.802 211.001 26.1455C211.001 25.4891 211.251 24.8573 211.7 24.3789C212.15 23.9005 212.765 23.6114 213.42 23.5705C213.74 23.5844 214.055 23.6625 214.344 23.8002C214.633 23.9379 214.892 24.1324 215.105 24.3722C215.318 24.612 215.48 24.8921 215.582 25.1959C215.684 25.4997 215.725 25.8209 215.7 26.1405C215.727 26.4612 215.689 26.7841 215.588 27.0897C215.487 27.3953 215.325 27.6772 215.112 27.9183C214.899 28.1595 214.639 28.3549 214.348 28.4928C214.057 28.6307 213.742 28.7082 213.42 28.7205ZM237.81 17.6405H233.33V30.1405H235.2V25.4005H237.81C238.343 25.4388 238.878 25.3669 239.382 25.1893C239.886 25.0116 240.348 24.7321 240.739 24.368C241.13 24.004 241.442 23.5633 241.655 23.0734C241.869 22.5835 241.979 22.0549 241.979 21.5205C241.979 20.9862 241.869 20.4576 241.655 19.9677C241.442 19.4778 241.13 19.0371 240.739 18.6731C240.348 18.309 239.886 18.0295 239.382 17.8518C238.878 17.6742 238.343 17.6023 237.81 17.6405ZM237.81 23.6405H235.2V19.3805H237.85C238.131 19.3805 238.409 19.4359 238.669 19.5434C238.929 19.651 239.165 19.8086 239.363 20.0073C239.562 20.2061 239.72 20.442 239.827 20.7016C239.935 20.9612 239.99 21.2395 239.99 21.5205C239.99 21.8016 239.935 22.0799 239.827 22.3395C239.72 22.5991 239.562 22.835 239.363 23.0338C239.165 23.2325 238.929 23.3901 238.669 23.4976C238.409 23.6052 238.131 23.6605 237.85 23.6605L237.81 23.6405ZM249.35 21.8505C248.669 21.8086 247.991 21.9671 247.399 22.3066C246.807 22.646 246.328 23.1515 246.02 23.7605L247.67 24.4505C247.837 24.15 248.087 23.9041 248.39 23.7426C248.694 23.5811 249.038 23.5109 249.38 23.5405C249.617 23.5128 249.858 23.5326 250.088 23.5989C250.317 23.6651 250.531 23.7764 250.718 23.9263C250.904 24.0761 251.058 24.2616 251.172 24.4718C251.286 24.682 251.356 24.9127 251.38 25.1505V25.2705C250.779 24.9545 250.109 24.7897 249.43 24.7905C247.65 24.7905 245.83 25.7905 245.83 27.6105C245.848 27.9974 245.943 28.3768 246.11 28.7261C246.277 29.0754 246.513 29.3876 246.803 29.6442C247.093 29.9007 247.432 30.0963 247.799 30.2193C248.166 30.3424 248.554 30.3904 248.94 30.3605C249.409 30.3865 249.877 30.2872 250.295 30.0728C250.714 29.8584 251.067 29.5367 251.32 29.1405H251.38V30.1405H253.18V25.3305C253.18 23.1405 251.52 21.8705 249.39 21.8705L249.35 21.8505ZM249.12 28.7005C248.51 28.7005 247.66 28.3905 247.66 27.6405C247.66 26.6405 248.72 26.3005 249.66 26.3005C250.254 26.2859 250.841 26.4309 251.36 26.7205C251.297 27.2636 251.04 27.7655 250.635 28.1333C250.231 28.501 249.707 28.7097 249.16 28.7205L249.12 28.7005ZM259.74 22.1405L257.6 27.5605H257.54L255.32 22.1405H253.32L256.65 29.7205L254.75 33.9305H256.7L261.82 22.1405H259.74ZM242.94 30.1405H244.8V17.6405H242.94V30.1405Z" fill="white"/>
<path d="M156.72 19.5605L146.07 30.8605C146.186 31.2879 146.399 31.6829 146.692 32.0149C146.986 32.3468 147.351 32.6069 147.761 32.7751C148.171 32.9433 148.614 33.015 149.056 32.9847C149.498 32.9545 149.927 32.823 150.31 32.6005L162.31 25.6805L156.72 19.5605Z" fill="#EA4335"/>
<path d="M167.49 17.6406L162.31 14.6406L156.49 19.8306L162.33 25.6806L167.48 22.6806C167.938 22.4354 168.321 22.0706 168.588 21.6251C168.854 21.1795 168.995 20.6699 168.995 20.1506C168.995 19.6313 168.854 19.1217 168.588 18.6762C168.321 18.2306 167.938 17.8658 167.48 17.6206L167.49 17.6406Z" fill="#FBBC04"/>
<path d="M146.07 9.4209C146.017 9.6571 145.994 9.89893 146 10.1409V30.1409C146.002 30.3908 146.035 30.6395 146.1 30.8809L157.1 19.8809L146.07 9.4209Z" fill="#4285F4"/>
<path d="M156.8 20.1403L162.31 14.6303L150.31 7.69027C149.859 7.42227 149.345 7.28065 148.82 7.28027C148.187 7.28209 147.573 7.49144 147.071 7.87621C146.568 8.26098 146.206 8.7999 146.04 9.41027L156.8 20.1403Z" fill="#34A853"/>
</svg>
