<svg width="177" height="33" viewBox="0 0 177 33" fill="none" xmlns="http://www.w3.org/2000/svg">
<path d="M23.4828 26.6253L2.07016 11.8549C-0.099749 10.3582 0.637877 7.24174 3.3437 6.50889L26.1015 0.332176C26.5836 0.158226 27.1001 0.101758 27.6085 0.167464C28.1167 0.23317 28.602 0.419152 29.024 0.709977C29.446 1.0008 29.7926 1.38808 30.0349 1.83967C30.2772 2.29125 30.4083 2.79413 30.4174 3.30655L29.0687 24.2525C28.9087 26.7387 25.6527 28.1221 23.4828 26.6253Z" fill="#CBD5E1"/>
<path d="M16.6914 30.2712L4.07652 5.60142C3.78815 5.03705 3.66126 4.40399 3.70983 3.77208C3.75839 3.14017 3.98054 2.53394 4.35175 2.02027C4.72298 1.50659 5.22885 1.10541 5.81359 0.860967C6.39833 0.616524 7.03922 0.538321 7.66558 0.634989L31.044 4.24313C31.5822 4.32622 32.0931 4.53587 32.5346 4.85485C32.9759 5.17384 33.3353 5.59305 33.5832 6.07801C33.831 6.56297 33.9603 7.09982 33.9602 7.64445C33.96 8.18906 33.8307 8.72589 33.5828 9.21077L22.8132 30.2724C22.524 30.8352 22.0852 31.3074 21.5451 31.6369C21.005 31.9666 20.3846 32.1408 19.7519 32.1407C19.1192 32.1406 18.4988 31.9661 17.9588 31.6363C17.4188 31.3064 16.9803 30.8341 16.6914 30.2712Z" fill="#CBD5E1"/>
<path d="M24.3809 8.8678L19.8921 8.14087L14.3809 9.71098L16.5807 14.2264L21.7319 17.9561C21.8456 18.0375 21.9706 18.0998 22.1024 18.1409L24.059 14.1261L24.3809 8.8678Z" fill="#0F172A"/>
<path d="M52.3662 19.676C52.3662 19.3713 52.3193 19.0979 52.2256 18.8557C52.1396 18.6057 51.9756 18.3792 51.7334 18.176C51.4912 17.9651 51.1514 17.7581 50.7139 17.5549C50.2764 17.3518 49.71 17.1409 49.0146 16.9221C48.2412 16.6721 47.5068 16.3909 46.8115 16.0784C46.124 15.7659 45.5146 15.4026 44.9834 14.9885C44.46 14.5667 44.0459 14.0784 43.7412 13.5237C43.4443 12.969 43.2959 12.3245 43.2959 11.5901C43.2959 10.8792 43.4521 10.2346 43.7646 9.65649C44.0771 9.07056 44.5146 8.57056 45.0771 8.15649C45.6396 7.73462 46.3037 7.4104 47.0693 7.18384C47.8428 6.95728 48.6904 6.84399 49.6123 6.84399C50.8701 6.84399 51.9678 7.07056 52.9053 7.52368C53.8428 7.97681 54.5693 8.5979 55.085 9.38696C55.6084 10.176 55.8701 11.0784 55.8701 12.094H52.3779C52.3779 11.594 52.2725 11.1565 52.0615 10.7815C51.8584 10.3987 51.5459 10.0979 51.124 9.87915C50.71 9.6604 50.1865 9.55103 49.5537 9.55103C48.9443 9.55103 48.4365 9.64478 48.0303 9.83228C47.624 10.012 47.3193 10.2581 47.1162 10.5706C46.9131 10.8752 46.8115 11.219 46.8115 11.6018C46.8115 11.8909 46.8818 12.1526 47.0225 12.387C47.1709 12.6213 47.3896 12.8401 47.6787 13.0432C47.9678 13.2463 48.3232 13.4377 48.7451 13.6174C49.167 13.7971 49.6553 13.9729 50.21 14.1448C51.1396 14.426 51.9561 14.7424 52.6592 15.094C53.3701 15.4456 53.9639 15.8401 54.4404 16.2776C54.917 16.7151 55.2764 17.2112 55.5186 17.7659C55.7607 18.3206 55.8818 18.9495 55.8818 19.6526C55.8818 20.3948 55.7373 21.0588 55.4482 21.6448C55.1592 22.2307 54.7412 22.7268 54.1943 23.1331C53.6475 23.5393 52.9951 23.8479 52.2373 24.0588C51.4795 24.2698 50.6318 24.3752 49.6943 24.3752C48.8506 24.3752 48.0186 24.2659 47.1982 24.0471C46.3779 23.8206 45.6318 23.4807 44.96 23.0276C44.2959 22.5745 43.7646 21.9963 43.3662 21.2932C42.9678 20.5901 42.7686 19.7581 42.7686 18.7971H46.2959C46.2959 19.3284 46.3779 19.7776 46.542 20.1448C46.7061 20.512 46.9365 20.8088 47.2334 21.0354C47.5381 21.262 47.8975 21.426 48.3115 21.5276C48.7334 21.6292 49.1943 21.6799 49.6943 21.6799C50.3037 21.6799 50.8037 21.594 51.1943 21.4221C51.5928 21.2502 51.8857 21.012 52.0732 20.7073C52.2686 20.4026 52.3662 20.0588 52.3662 19.676ZM61.4365 14.0862V24.1409H58.0498V11.4612H61.2256L61.4365 14.0862ZM60.9678 17.3557H60.0303C60.0303 16.4729 60.1357 15.6604 60.3467 14.9182C60.5654 14.1682 60.8818 13.5198 61.2959 12.9729C61.7178 12.4182 62.2373 11.9885 62.8545 11.6838C63.4717 11.3792 64.1865 11.2268 64.999 11.2268C65.5615 11.2268 66.0771 11.3127 66.5459 11.4846C67.0146 11.6487 67.417 11.9104 67.7529 12.2698C68.0967 12.6213 68.3623 13.0823 68.5498 13.6526C68.7373 14.2151 68.8311 14.8909 68.8311 15.6799V24.1409H65.4561V16.0549C65.4561 15.4768 65.3779 15.0315 65.2217 14.719C65.0654 14.4065 64.8428 14.1877 64.5537 14.0627C64.2725 13.9377 63.9326 13.8752 63.5342 13.8752C63.0967 13.8752 62.7139 13.9651 62.3857 14.1448C62.0654 14.3245 61.7998 14.5745 61.5889 14.8948C61.3779 15.2073 61.2217 15.5745 61.1201 15.9963C61.0186 16.4182 60.9678 16.8713 60.9678 17.3557ZM68.5146 16.969L67.3076 17.1213C67.3076 16.2932 67.4092 15.5237 67.6123 14.8127C67.8232 14.1018 68.1318 13.4768 68.5381 12.9377C68.9521 12.3987 69.4639 11.9807 70.0732 11.6838C70.6826 11.3792 71.3857 11.2268 72.1826 11.2268C72.792 11.2268 73.3467 11.3167 73.8467 11.4963C74.3467 11.6682 74.7725 11.9456 75.124 12.3284C75.4834 12.7034 75.7568 13.1956 75.9443 13.8049C76.1396 14.4143 76.2373 15.1604 76.2373 16.0432V24.1409H72.8506V16.0432C72.8506 15.4573 72.7725 15.012 72.6162 14.7073C72.4678 14.3948 72.249 14.1799 71.96 14.0627C71.6787 13.9377 71.3428 13.8752 70.9521 13.8752C70.5459 13.8752 70.1904 13.9573 69.8857 14.1213C69.5811 14.2776 69.3271 14.4963 69.124 14.7776C68.9209 15.0588 68.7686 15.387 68.667 15.762C68.5654 16.1292 68.5146 16.5315 68.5146 16.969ZM85.6943 21.2815V15.6331C85.6943 15.2268 85.6279 14.8792 85.4951 14.5901C85.3623 14.2932 85.1553 14.0627 84.874 13.8987C84.6006 13.7346 84.2451 13.6526 83.8076 13.6526C83.4326 13.6526 83.1084 13.719 82.835 13.8518C82.5615 13.9768 82.3506 14.1604 82.2021 14.4026C82.0537 14.637 81.9795 14.9143 81.9795 15.2346H78.6045C78.6045 14.6956 78.7295 14.1838 78.9795 13.6995C79.2295 13.2151 79.5928 12.7893 80.0693 12.4221C80.5459 12.0471 81.1123 11.7542 81.7686 11.5432C82.4326 11.3323 83.1748 11.2268 83.9951 11.2268C84.9795 11.2268 85.8545 11.3909 86.6201 11.719C87.3857 12.0471 87.9873 12.5393 88.4248 13.1956C88.8701 13.8518 89.0928 14.6721 89.0928 15.6565V21.0823C89.0928 21.7776 89.1357 22.3479 89.2217 22.7932C89.3076 23.2307 89.4326 23.6135 89.5967 23.9417V24.1409H86.1865C86.0225 23.7971 85.8975 23.3674 85.8115 22.8518C85.7334 22.3284 85.6943 21.8049 85.6943 21.2815ZM86.1396 16.4182L86.1631 18.3284H84.2764C83.8311 18.3284 83.4443 18.3792 83.1162 18.4807C82.7881 18.5823 82.5186 18.7268 82.3076 18.9143C82.0967 19.094 81.9404 19.3049 81.8389 19.5471C81.7451 19.7893 81.6982 20.0549 81.6982 20.344C81.6982 20.6331 81.7646 20.8948 81.8975 21.1292C82.0303 21.3557 82.2217 21.5354 82.4717 21.6682C82.7217 21.7932 83.0146 21.8557 83.3506 21.8557C83.8584 21.8557 84.2998 21.7542 84.6748 21.551C85.0498 21.3479 85.3389 21.0979 85.542 20.801C85.7529 20.5042 85.8623 20.2229 85.8701 19.9573L86.7607 21.387C86.6357 21.7073 86.4639 22.0393 86.2451 22.3831C86.0342 22.7268 85.7646 23.051 85.4365 23.3557C85.1084 23.6526 84.7139 23.8987 84.2529 24.094C83.792 24.2815 83.2451 24.3752 82.6123 24.3752C81.8076 24.3752 81.0771 24.2151 80.4209 23.8948C79.7725 23.5667 79.2568 23.1174 78.874 22.5471C78.499 21.969 78.3115 21.3127 78.3115 20.5784C78.3115 19.9143 78.4365 19.3245 78.6865 18.8088C78.9365 18.2932 79.3037 17.8596 79.7881 17.5081C80.2803 17.1487 80.8936 16.8792 81.6279 16.6995C82.3623 16.512 83.2139 16.4182 84.1826 16.4182H86.1396ZM95.0693 14.2268V24.1409H91.6943V11.4612H94.8701L95.0693 14.2268ZM98.8896 11.3792L98.8311 14.5081C98.667 14.4846 98.4678 14.4651 98.2334 14.4495C98.0068 14.426 97.7998 14.4143 97.6123 14.4143C97.1357 14.4143 96.7217 14.4768 96.3701 14.6018C96.0264 14.719 95.7373 14.8948 95.5029 15.1292C95.2764 15.3635 95.1045 15.6487 94.9873 15.9846C94.8779 16.3206 94.8154 16.7034 94.7998 17.1331L94.1201 16.9221C94.1201 16.1018 94.2021 15.3479 94.3662 14.6604C94.5303 13.9651 94.7686 13.3596 95.0811 12.844C95.4014 12.3284 95.792 11.9299 96.2529 11.6487C96.7139 11.3674 97.2412 11.2268 97.835 11.2268C98.0225 11.2268 98.2139 11.2424 98.4092 11.2737C98.6045 11.2971 98.7646 11.3323 98.8896 11.3792ZM107.28 11.4612V13.8518H99.8975V11.4612H107.28ZM101.726 8.33228H105.101V20.3206C105.101 20.6877 105.147 20.969 105.241 21.1643C105.343 21.3596 105.491 21.4963 105.687 21.5745C105.882 21.6448 106.128 21.6799 106.425 21.6799C106.636 21.6799 106.823 21.6721 106.987 21.6565C107.159 21.6331 107.304 21.6096 107.421 21.5862L107.433 24.0706C107.144 24.1643 106.831 24.2385 106.495 24.2932C106.159 24.3479 105.788 24.3752 105.382 24.3752C104.64 24.3752 103.991 24.2542 103.437 24.012C102.89 23.762 102.468 23.3635 102.171 22.8167C101.874 22.2698 101.726 21.551 101.726 20.6604V8.33228ZM112.929 7.07837V24.1409H109.413V7.07837H112.929ZM119.726 14.3674V17.1096H111.968V14.3674H119.726ZM120.546 7.07837V9.83228H111.968V7.07837H120.546ZM125.937 11.4612V24.1409H122.55V11.4612H125.937ZM122.339 8.15649C122.339 7.66431 122.511 7.25806 122.854 6.93774C123.198 6.61743 123.659 6.45728 124.237 6.45728C124.808 6.45728 125.265 6.61743 125.608 6.93774C125.96 7.25806 126.136 7.66431 126.136 8.15649C126.136 8.64868 125.96 9.05493 125.608 9.37524C125.265 9.69556 124.808 9.85571 124.237 9.85571C123.659 9.85571 123.198 9.69556 122.854 9.37524C122.511 9.05493 122.339 8.64868 122.339 8.15649ZM132.03 14.1682V24.1409H128.655V11.4612H131.819L132.03 14.1682ZM131.538 17.3557H130.624C130.624 16.4182 130.745 15.5745 130.987 14.8245C131.229 14.0667 131.569 13.4221 132.007 12.8909C132.444 12.3518 132.964 11.9417 133.565 11.6604C134.175 11.3713 134.854 11.2268 135.604 11.2268C136.198 11.2268 136.741 11.3127 137.233 11.4846C137.726 11.6565 138.147 11.9299 138.499 12.3049C138.858 12.6799 139.132 13.176 139.319 13.7932C139.515 14.4104 139.612 15.1643 139.612 16.0549V24.1409H136.214V16.0432C136.214 15.4807 136.136 15.0432 135.979 14.7307C135.823 14.4182 135.593 14.1995 135.288 14.0745C134.991 13.9417 134.624 13.8752 134.187 13.8752C133.733 13.8752 133.339 13.9651 133.003 14.1448C132.675 14.3245 132.401 14.5745 132.183 14.8948C131.972 15.2073 131.812 15.5745 131.702 15.9963C131.593 16.4182 131.538 16.8713 131.538 17.3557ZM149.667 21.3752V6.14087H153.065V24.1409H150.007L149.667 21.3752ZM141.651 17.9534V17.7073C141.651 16.7385 141.761 15.8596 141.979 15.0706C142.198 14.2737 142.519 13.5901 142.94 13.0198C143.362 12.4495 143.882 12.0081 144.499 11.6956C145.116 11.3831 145.819 11.2268 146.608 11.2268C147.351 11.2268 147.999 11.3831 148.554 11.6956C149.116 12.0081 149.593 12.4534 149.983 13.0315C150.382 13.6018 150.702 14.2776 150.944 15.0588C151.187 15.8323 151.362 16.6799 151.472 17.6018V18.1409C151.362 19.0237 151.187 19.844 150.944 20.6018C150.702 21.3596 150.382 22.0237 149.983 22.594C149.593 23.1565 149.116 23.594 148.554 23.9065C147.991 24.219 147.335 24.3752 146.585 24.3752C145.796 24.3752 145.093 24.2151 144.476 23.8948C143.866 23.5745 143.351 23.1252 142.929 22.5471C142.515 21.969 142.198 21.2893 141.979 20.5081C141.761 19.7268 141.651 18.8752 141.651 17.9534ZM145.026 17.7073V17.9534C145.026 18.4768 145.065 18.9651 145.144 19.4182C145.229 19.8713 145.366 20.2737 145.554 20.6252C145.749 20.969 145.999 21.2385 146.304 21.4338C146.616 21.6213 146.995 21.7151 147.44 21.7151C148.019 21.7151 148.495 21.5862 148.87 21.3284C149.245 21.0627 149.53 20.6995 149.726 20.2385C149.929 19.7776 150.046 19.2463 150.077 18.6448V17.1096C150.054 16.6174 149.983 16.176 149.866 15.7854C149.757 15.387 149.593 15.0471 149.374 14.7659C149.163 14.4846 148.897 14.2659 148.577 14.1096C148.265 13.9534 147.894 13.8752 147.464 13.8752C147.026 13.8752 146.651 13.9768 146.339 14.1799C146.026 14.3752 145.772 14.6448 145.577 14.9885C145.39 15.3323 145.249 15.7385 145.155 16.2073C145.069 16.6682 145.026 17.1682 145.026 17.7073ZM161.538 24.3752C160.554 24.3752 159.671 24.219 158.89 23.9065C158.108 23.5862 157.444 23.1448 156.897 22.5823C156.358 22.0198 155.944 21.3674 155.655 20.6252C155.366 19.8752 155.222 19.0784 155.222 18.2346V17.7659C155.222 16.8049 155.358 15.926 155.632 15.1292C155.905 14.3323 156.296 13.6409 156.804 13.0549C157.319 12.469 157.944 12.0198 158.679 11.7073C159.413 11.387 160.241 11.2268 161.163 11.2268C162.062 11.2268 162.858 11.3752 163.554 11.6721C164.249 11.969 164.831 12.3909 165.3 12.9377C165.776 13.4846 166.136 14.1409 166.378 14.9065C166.62 15.6643 166.741 16.5081 166.741 17.4377V18.844H156.663V16.594H163.425V16.3362C163.425 15.8674 163.339 15.4495 163.167 15.0823C163.003 14.7073 162.753 14.4104 162.417 14.1917C162.081 13.9729 161.651 13.8635 161.128 13.8635C160.683 13.8635 160.3 13.9612 159.979 14.1565C159.659 14.3518 159.397 14.6252 159.194 14.9768C158.999 15.3284 158.851 15.7424 158.749 16.219C158.655 16.6877 158.608 17.2034 158.608 17.7659V18.2346C158.608 18.7424 158.679 19.2112 158.819 19.6409C158.968 20.0706 159.175 20.4417 159.44 20.7542C159.714 21.0667 160.042 21.3088 160.425 21.4807C160.815 21.6526 161.257 21.7385 161.749 21.7385C162.358 21.7385 162.925 21.6213 163.448 21.387C163.979 21.1448 164.437 20.7815 164.819 20.2971L166.46 22.0784C166.194 22.4612 165.831 22.8284 165.37 23.1799C164.917 23.5315 164.37 23.8206 163.729 24.0471C163.089 24.2659 162.358 24.3752 161.538 24.3752ZM172.038 14.2268V24.1409H168.663V11.4612H171.839L172.038 14.2268ZM175.858 11.3792L175.8 14.5081C175.636 14.4846 175.437 14.4651 175.202 14.4495C174.976 14.426 174.769 14.4143 174.581 14.4143C174.104 14.4143 173.69 14.4768 173.339 14.6018C172.995 14.719 172.706 14.8948 172.472 15.1292C172.245 15.3635 172.073 15.6487 171.956 15.9846C171.847 16.3206 171.784 16.7034 171.769 17.1331L171.089 16.9221C171.089 16.1018 171.171 15.3479 171.335 14.6604C171.499 13.9651 171.737 13.3596 172.05 12.844C172.37 12.3284 172.761 11.9299 173.222 11.6487C173.683 11.3674 174.21 11.2268 174.804 11.2268C174.991 11.2268 175.183 11.2424 175.378 11.2737C175.573 11.2971 175.733 11.3323 175.858 11.3792Z" fill="#CBD5E1"/>
</svg>
