<svg width="108" height="49" viewBox="0 0 108 49" fill="none" xmlns="http://www.w3.org/2000/svg">
<g filter="url(#filter0_dd_2_7848)">
<path d="M34.6797 17.7656V29.1406H32.7188L27.6172 20.9922V29.1406H25.6562V17.7656H27.6172L32.7344 25.9297V17.7656H34.6797ZM41.0547 29.2969C40.4297 29.2969 39.8646 29.1953 39.3594 28.9922C38.8594 28.7839 38.4323 28.4948 38.0781 28.125C37.7292 27.7552 37.4609 27.3203 37.2734 26.8203C37.0859 26.3203 36.9922 25.7812 36.9922 25.2031V24.8906C36.9922 24.2292 37.0885 23.6302 37.2812 23.0938C37.474 22.5573 37.7422 22.099 38.0859 21.7188C38.4297 21.3333 38.8359 21.0391 39.3047 20.8359C39.7734 20.6328 40.2812 20.5312 40.8281 20.5312C41.4323 20.5312 41.9609 20.6328 42.4141 20.8359C42.8672 21.0391 43.2422 21.3255 43.5391 21.6953C43.8411 22.0599 44.0651 22.4948 44.2109 23C44.362 23.5052 44.4375 24.0625 44.4375 24.6719V25.4766H37.9062V24.125H42.5781V23.9766C42.5677 23.638 42.5 23.3203 42.375 23.0234C42.2552 22.7266 42.0703 22.487 41.8203 22.3047C41.5703 22.1224 41.237 22.0312 40.8203 22.0312C40.5078 22.0312 40.2292 22.099 39.9844 22.2344C39.7448 22.3646 39.5443 22.5547 39.3828 22.8047C39.2214 23.0547 39.0964 23.3568 39.0078 23.7109C38.9245 24.0599 38.8828 24.4531 38.8828 24.8906V25.2031C38.8828 25.5729 38.9323 25.9167 39.0312 26.2344C39.1354 26.5469 39.2865 26.8203 39.4844 27.0547C39.6823 27.2891 39.9219 27.474 40.2031 27.6094C40.4844 27.7396 40.8047 27.8047 41.1641 27.8047C41.6172 27.8047 42.0208 27.7135 42.375 27.5312C42.7292 27.349 43.0365 27.0911 43.2969 26.7578L44.2891 27.7188C44.1068 27.9844 43.8698 28.2396 43.5781 28.4844C43.2865 28.724 42.9297 28.9193 42.5078 29.0703C42.0911 29.2214 41.6068 29.2969 41.0547 29.2969ZM47.8438 20.6875L49.4531 23.4922L51.0938 20.6875H53.1641L50.6016 24.8359L53.2656 29.1406H51.1953L49.4766 26.2188L47.7578 29.1406H45.6797L48.3359 24.8359L45.7812 20.6875H47.8438ZM58.8281 20.6875V22.0625H54.0625V20.6875H58.8281ZM55.4375 18.6172H57.3203V26.8047C57.3203 27.0651 57.3568 27.2656 57.4297 27.4062C57.5078 27.5417 57.6146 27.6328 57.75 27.6797C57.8854 27.7266 58.0443 27.75 58.2266 27.75C58.3568 27.75 58.4818 27.7422 58.6016 27.7266C58.7214 27.7109 58.8177 27.6953 58.8906 27.6797L58.8984 29.1172C58.7422 29.1641 58.5599 29.2057 58.3516 29.2422C58.1484 29.2786 57.9141 29.2969 57.6484 29.2969C57.2161 29.2969 56.8333 29.2214 56.5 29.0703C56.1667 28.9141 55.9062 28.6615 55.7188 28.3125C55.5312 27.9635 55.4375 27.5 55.4375 26.9219V18.6172Z" fill="white"/>
<path d="M81.5 24.1406H94H81.5ZM94 24.1406L88 18.1406L94 24.1406ZM94 24.1406L88 30.1406L94 24.1406Z" fill="white"/>
<path d="M94 24.1406L88 30.1406M81.5 24.1406H94H81.5ZM94 24.1406L88 18.1406L94 24.1406Z" stroke="white" stroke-width="1.5" stroke-linecap="round" stroke-linejoin="round"/>
</g>
<defs>
<filter id="filter0_dd_2_7848" x="-2.5" y="-1.85938" width="113" height="54" filterUnits="userSpaceOnUse" color-interpolation-filters="sRGB">
<feFlood flood-opacity="0" result="BackgroundImageFix"/>
<feColorMatrix in="SourceAlpha" type="matrix" values="0 0 0 0 0 0 0 0 0 0 0 0 0 0 0 0 0 0 127 0" result="hardAlpha"/>
<feOffset/>
<feGaussianBlur stdDeviation="1"/>
<feColorMatrix type="matrix" values="0 0 0 0 0 0 0 0 0 0 0 0 0 0 0 0 0 0 0.07 0"/>
<feBlend mode="normal" in2="BackgroundImageFix" result="effect1_dropShadow_2_7848"/>
<feColorMatrix in="SourceAlpha" type="matrix" values="0 0 0 0 0 0 0 0 0 0 0 0 0 0 0 0 0 0 127 0" result="hardAlpha"/>
<feOffset dy="1"/>
<feGaussianBlur stdDeviation="1.5"/>
<feColorMatrix type="matrix" values="0 0 0 0 0 0 0 0 0 0 0 0 0 0 0 0 0 0 0.1 0"/>
<feBlend mode="normal" in2="effect1_dropShadow_2_7848" result="effect2_dropShadow_2_7848"/>
<feBlend mode="normal" in="SourceGraphic" in2="effect2_dropShadow_2_7848" result="shape"/>
</filter>
</defs>
</svg>
