<svg width="107" height="49" viewBox="0 0 107 49" fill="none" xmlns="http://www.w3.org/2000/svg">
<g filter="url(#filter0_dd_2_7847)">
<path d="M16.9141 24.7976L20.8641 28.7476C21.0417 28.937 21.1387 29.1882 21.1345 29.4479C21.1303 29.7075 21.0252 29.9554 20.8415 30.139C20.6578 30.3226 20.4098 30.4275 20.1501 30.4315C19.8905 30.4355 19.6394 30.3384 19.4501 30.1606L13.7931 24.5046C13.6999 24.4119 13.6259 24.3018 13.5755 24.1804C13.525 24.0591 13.499 23.929 13.499 23.7976C13.499 23.6662 13.525 23.5361 13.5755 23.4147C13.6259 23.2934 13.6999 23.1832 13.7931 23.0906L19.4501 17.4336C19.5423 17.3381 19.6526 17.2619 19.7747 17.2095C19.8967 17.1571 20.0279 17.1295 20.1607 17.1283C20.2934 17.1272 20.4251 17.1525 20.548 17.2028C20.6709 17.253 20.7826 17.3273 20.8765 17.4212C20.9703 17.5151 21.0446 17.6267 21.0949 17.7496C21.1452 17.8725 21.1705 18.0042 21.1693 18.137C21.1682 18.2698 21.1406 18.401 21.0882 18.523C21.0358 18.645 20.9596 18.7553 20.8641 18.8476L16.9141 22.7976H26.5001C26.7653 22.7976 27.0196 22.9029 27.2072 23.0905C27.3947 23.278 27.5001 23.5324 27.5001 23.7976C27.5001 24.0628 27.3947 24.3172 27.2072 24.5047C27.0196 24.6922 26.7653 24.7976 26.5001 24.7976H16.9141Z" fill="white"/>
<path d="M53.9766 24.8984H51.0156V23.3438H53.9766C54.4922 23.3438 54.9089 23.2604 55.2266 23.0938C55.5443 22.9271 55.776 22.6979 55.9219 22.4062C56.0729 22.1094 56.1484 21.7708 56.1484 21.3906C56.1484 21.0312 56.0729 20.6953 55.9219 20.3828C55.776 20.0651 55.5443 19.8099 55.2266 19.6172C54.9089 19.4245 54.4922 19.3281 53.9766 19.3281H51.6172V29.1406H49.6562V17.7656H53.9766C54.8568 17.7656 55.6042 17.9219 56.2188 18.2344C56.8385 18.5417 57.3099 18.9688 57.6328 19.5156C57.9557 20.0573 58.1172 20.6771 58.1172 21.375C58.1172 22.1094 57.9557 22.7396 57.6328 23.2656C57.3099 23.7917 56.8385 24.1953 56.2188 24.4766C55.6042 24.7578 54.8568 24.8984 53.9766 24.8984ZM62.0781 22.2969V29.1406H60.1953V20.6875H61.9922L62.0781 22.2969ZM64.6641 20.6328L64.6484 22.3828C64.5339 22.362 64.4089 22.3464 64.2734 22.3359C64.1432 22.3255 64.013 22.3203 63.8828 22.3203C63.5599 22.3203 63.276 22.3672 63.0312 22.4609C62.7865 22.5495 62.5807 22.6797 62.4141 22.8516C62.2526 23.0182 62.1276 23.2214 62.0391 23.4609C61.9505 23.7005 61.8984 23.9688 61.8828 24.2656L61.4531 24.2969C61.4531 23.7656 61.5052 23.2734 61.6094 22.8203C61.7135 22.3672 61.8698 21.9688 62.0781 21.625C62.2917 21.2812 62.5573 21.013 62.875 20.8203C63.1979 20.6276 63.5703 20.5312 63.9922 20.5312C64.1068 20.5312 64.2292 20.5417 64.3594 20.5625C64.4948 20.5833 64.5964 20.6068 64.6641 20.6328ZM69.9141 29.2969C69.2891 29.2969 68.724 29.1953 68.2188 28.9922C67.7188 28.7839 67.2917 28.4948 66.9375 28.125C66.5885 27.7552 66.3203 27.3203 66.1328 26.8203C65.9453 26.3203 65.8516 25.7812 65.8516 25.2031V24.8906C65.8516 24.2292 65.9479 23.6302 66.1406 23.0938C66.3333 22.5573 66.6016 22.099 66.9453 21.7188C67.2891 21.3333 67.6953 21.0391 68.1641 20.8359C68.6328 20.6328 69.1406 20.5312 69.6875 20.5312C70.2917 20.5312 70.8203 20.6328 71.2734 20.8359C71.7266 21.0391 72.1016 21.3255 72.3984 21.6953C72.7005 22.0599 72.9245 22.4948 73.0703 23C73.2214 23.5052 73.2969 24.0625 73.2969 24.6719V25.4766H66.7656V24.125H71.4375V23.9766C71.4271 23.638 71.3594 23.3203 71.2344 23.0234C71.1146 22.7266 70.9297 22.487 70.6797 22.3047C70.4297 22.1224 70.0964 22.0312 69.6797 22.0312C69.3672 22.0312 69.0885 22.099 68.8438 22.2344C68.6042 22.3646 68.4036 22.5547 68.2422 22.8047C68.0807 23.0547 67.9557 23.3568 67.8672 23.7109C67.7839 24.0599 67.7422 24.4531 67.7422 24.8906V25.2031C67.7422 25.5729 67.7917 25.9167 67.8906 26.2344C67.9948 26.5469 68.1458 26.8203 68.3438 27.0547C68.5417 27.2891 68.7812 27.474 69.0625 27.6094C69.3438 27.7396 69.6641 27.8047 70.0234 27.8047C70.4766 27.8047 70.8802 27.7135 71.2344 27.5312C71.5885 27.349 71.8958 27.0911 72.1562 26.7578L73.1484 27.7188C72.9661 27.9844 72.7292 28.2396 72.4375 28.4844C72.1458 28.724 71.7891 28.9193 71.3672 29.0703C70.9505 29.2214 70.4661 29.2969 69.9141 29.2969ZM77.9062 27.6484L79.9766 20.6875H81.9297L78.9922 29.1406H77.7734L77.9062 27.6484ZM76.3203 20.6875L78.4297 27.6797L78.5312 29.1406H77.3125L74.3594 20.6875H76.3203Z" fill="white"/>
</g>
<defs>
<filter id="filter0_dd_2_7847" x="-2.5" y="-1.85938" width="112" height="54" filterUnits="userSpaceOnUse" color-interpolation-filters="sRGB">
<feFlood flood-opacity="0" result="BackgroundImageFix"/>
<feColorMatrix in="SourceAlpha" type="matrix" values="0 0 0 0 0 0 0 0 0 0 0 0 0 0 0 0 0 0 127 0" result="hardAlpha"/>
<feOffset/>
<feGaussianBlur stdDeviation="1"/>
<feColorMatrix type="matrix" values="0 0 0 0 0 0 0 0 0 0 0 0 0 0 0 0 0 0 0.07 0"/>
<feBlend mode="normal" in2="BackgroundImageFix" result="effect1_dropShadow_2_7847"/>
<feColorMatrix in="SourceAlpha" type="matrix" values="0 0 0 0 0 0 0 0 0 0 0 0 0 0 0 0 0 0 127 0" result="hardAlpha"/>
<feOffset dy="1"/>
<feGaussianBlur stdDeviation="1.5"/>
<feColorMatrix type="matrix" values="0 0 0 0 0 0 0 0 0 0 0 0 0 0 0 0 0 0 0.1 0"/>
<feBlend mode="normal" in2="effect1_dropShadow_2_7847" result="effect2_dropShadow_2_7847"/>
<feBlend mode="normal" in="SourceGraphic" in2="effect2_dropShadow_2_7847" result="shape"/>
</filter>
</defs>
</svg>
