<svg width="320" height="65" viewBox="0 0 320 65" fill="none" xmlns="http://www.w3.org/2000/svg">
<path fill-rule="evenodd" clip-rule="evenodd" d="M0 32.4889L0.001544 32.3285L0.00472794 32.1681L0.00956001 32.0077L0.016032 31.8473L0.02416 31.6869L0.0339279 31.5265L0.045352 31.3662L0.058416 31.2059L0.0731359 31.0457L0.0895041 30.8854L0.10752 30.7254L0.127176 30.5654L0.148488 30.4056L0.171448 30.2459L0.196048 30.0864L0.222296 29.9271L0.250192 29.7679L0.27972 29.609L0.310896 29.4503L0.343712 29.2918L0.378168 29.1336L0.414248 28.9757L0.451976 28.8181L0.49132 28.6607L0.532304 28.5037L0.574904 28.347L0.619136 28.1907L0.664984 28.0348L0.712448 27.8793L0.76152 27.7241L0.812208 27.5694L0.864504 27.4151L0.9184 27.2613L0.973888 27.1079L1.03098 26.955L1.08965 26.8026L1.14991 26.6508L1.21175 26.4994L1.27517 26.3487L1.34015 26.1985L1.4067 26.0488L1.47482 25.8997L1.54448 25.7513L1.6157 25.6035L1.68846 25.4563L1.76275 25.3098L1.83858 25.164L1.91593 25.0188L1.99479 24.8744L2.07517 24.7306L2.15706 24.5876L2.24043 24.4453L2.3253 24.3038L2.41166 24.1631L2.49949 24.0232L2.58878 23.8841L2.67954 23.7458L2.77176 23.6083L2.86542 23.4717L2.96051 23.336L3.05703 23.2011L3.15497 23.0672L3.25432 22.9341L3.35507 22.802L3.45722 22.6708L3.56075 22.5405L3.66566 22.4112L3.77193 22.2829L3.87955 22.1556L3.98853 22.0293L4.09884 21.904L4.21047 21.7798L4.32342 21.6565L4.43769 21.5344L4.55324 21.4133L4.67008 21.2933L4.78819 21.1745L4.90757 21.0567L5.0282 20.94L5.15007 20.8245L5.27318 20.7102L5.3975 20.597L5.52302 20.485L5.64975 20.3741L5.77766 20.2645L5.90674 20.1561L6.03698 20.0489L6.16838 19.9429L6.3009 19.8382L6.43456 19.7347L6.56928 19.6326L6.7052 19.5317L6.84216 19.4321L6.98016 19.3338L7.1192 19.2368L7.25936 19.1411L7.40048 19.0468L7.54264 18.9538L7.68584 18.8622L7.83008 18.772L7.9752 18.6831L8.12136 18.5956L8.2684 18.5096L8.4164 18.4249L8.56536 18.3416L8.7152 18.2598L8.86592 18.1794L9.01752 18.1005L9.17 18.023L9.32336 17.947L9.47752 17.8725L9.63256 17.7994L9.78832 17.7279L9.94496 17.6578L10.1023 17.5893L10.2605 17.5222L10.4194 17.4567L10.579 17.3928L10.7393 17.3303L10.9003 17.2694L11.062 17.2101L11.2244 17.1523L11.3874 17.0961L11.5511 17.0415L11.7154 16.9885L11.8802 16.937L12.0458 16.8872L12.2118 16.839L12.3784 16.7923L12.5456 16.7473L12.7133 16.7039L12.8814 16.6621L13.0501 16.622L13.2193 16.5835L13.3889 16.5466L13.5589 16.5114L13.7294 16.4779L13.9002 16.446L14.0715 16.4158L14.2432 16.3872L14.4152 16.3603L14.5875 16.3351L14.7602 16.3116L14.9331 16.2897L15.1064 16.2696L15.2799 16.2511L15.4537 16.2343L15.6277 16.2192L15.8019 16.2059L15.9763 16.1942L16.9142 16.1406L16.9678 20.6596L16.9984 20.6592L17.1279 20.659L17.2574 20.6601L17.387 20.6625L17.5166 20.6661L17.6462 20.671L17.7759 20.6772L17.9056 20.6847L18.0353 20.6934L18.1649 20.7034L18.2946 20.7147L18.4241 20.7273L18.5536 20.7411L18.683 20.7563L18.8123 20.7727L18.9415 20.7904L19.0706 20.8093L19.1996 20.8296L19.3285 20.8511L19.4571 20.8739L19.5857 20.898L19.714 20.9233L19.8421 20.9499L19.9701 20.9778L20.0978 21.007L20.2252 21.0374L20.3525 21.0691L20.4794 21.1021L20.6061 21.1363L20.7325 21.1718L20.8586 21.2085L20.9844 21.2465L21.1098 21.2858L21.235 21.3263L21.3598 21.368L21.4842 21.411L21.6082 21.4553L21.7318 21.5008L21.855 21.5475L21.9778 21.5955L22.1002 21.6446L22.2222 21.6951L22.3436 21.7467L22.4646 21.7996L22.5852 21.8536L22.7052 21.9089L22.8247 21.9654L22.9438 22.0231L23.0622 22.082L23.1802 22.142L23.2975 22.2033L23.4143 22.2658L23.5306 22.3294L23.6462 22.3942L23.7612 22.4602L23.8756 22.5273L23.9894 22.5956L24.1025 22.665L24.215 22.7356L24.3267 22.8073L24.4378 22.8801L24.5482 22.9541L24.658 23.0293L24.767 23.1054L24.8753 23.1828L24.9828 23.2612L25.0895 23.3407L25.1956 23.4213L25.3008 23.503L25.4053 23.5858L25.5089 23.6696L25.6118 23.7545L25.7138 23.8405L25.815 23.9274L25.9154 24.0154L26.0149 24.1045L26.1134 24.1945L26.2112 24.2857L26.3081 24.3777L26.4041 24.4708L26.4991 24.5649L26.5933 24.6599L26.6865 24.756L26.7788 24.8529L26.8701 24.9509L26.9605 25.0497L27.0498 25.1496L27.1382 25.2503L27.2257 25.352L27.3121 25.4545L27.3975 25.558L27.4819 25.6624L27.5653 25.7676L27.6476 25.8737L27.7289 25.9806L27.8091 26.0885L27.8882 26.1971L27.9663 26.3066L28.0433 26.4169L28.1192 26.528L28.194 26.6399L28.2677 26.7526L28.3402 26.8661L28.4116 26.9804L28.4819 27.0953L28.551 27.2111L28.619 27.3276L28.6858 27.4448L28.7515 27.5627L28.816 27.6813L28.8793 27.8006L28.9414 27.9206L29.0022 28.0413L29.0619 28.1625L29.1204 28.2845L29.1777 28.4071L29.2337 28.5303L29.2885 28.6541L29.342 28.7785L29.3942 28.9036L29.4453 29.0291L29.495 29.1553L29.5435 29.2819L29.5907 29.4092L29.6366 29.5369L29.6813 29.6652L29.7246 29.7939L29.7667 29.9232L29.8074 30.0529L29.8469 30.183L29.885 30.3137L29.9218 30.4447L29.9572 30.5762L29.9914 30.7081L30.0241 30.8404L30.0556 30.9731L30.0857 31.1061L30.1144 31.2396L30.1418 31.3733L30.1678 31.5074L30.1925 31.6418L30.2158 31.7765L30.2378 31.9115L30.2583 32.0468L30.2775 32.1824L30.2953 32.3181L30.3117 32.4542L30.3267 32.5905L30.3403 32.7269L30.3526 32.8636L30.3634 33.0005L30.3729 33.1375L30.3809 33.2747L30.3875 33.412L30.3928 33.5495L30.3966 33.687L30.399 33.8247L30.4 33.9625L30.3996 34.1003L30.3978 34.2382L30.3945 34.3762L30.3898 34.5141L30.3838 34.6521L30.3763 34.7901L30.3674 34.9281L30.357 35.0661L30.3453 35.2041L30.3321 35.342L30.3175 35.4798L30.3014 35.6175L30.284 35.7552L30.2652 35.8927L30.2449 36.0301L30.2232 36.1674L30.2001 36.3045L30.1755 36.4415L30.1496 36.5783L30.1222 36.7149L30.0934 36.8513L30.0632 36.9875L30.0316 37.1235L29.9986 37.2592L29.9642 37.3946L29.9283 37.5297L29.8911 37.6646L29.8525 37.7992L29.8125 37.9334L29.771 38.0674L29.7282 38.2009L29.684 38.3342L29.6384 38.467L29.5914 38.5995L29.543 38.7316L29.4933 38.8632L29.4422 38.9944L29.3897 39.1252L29.3358 39.2555L29.2806 39.3853L29.2241 39.5148L29.1662 39.6436L29.1069 39.772L29.0462 39.8998L28.9843 40.0271L28.921 40.1539L28.8564 40.2801L28.7904 40.4057L28.7232 40.5307L28.6546 40.6552L28.5847 40.7789L28.5135 40.9021L28.441 41.0247L28.3673 41.1465L28.2922 41.2678L28.2158 41.3883L28.1382 41.5081L28.0594 41.6273L27.9793 41.7457L27.8979 41.8633L27.8153 41.9803L27.7314 42.0965L27.6463 42.2119L27.56 42.3265L27.4725 42.4404L27.3838 42.5533L27.2938 42.6656L27.2027 42.7769L27.1104 42.8874L27.0169 42.9971L26.9222 43.1059L26.8264 43.2138L26.7294 43.3209L26.6314 43.427L26.5322 43.5322L26.4318 43.6365L26.3303 43.7398L26.2277 43.8422L26.124 43.9437L26.0193 44.0441L25.9134 44.1437L25.8066 44.2421L25.6986 44.3397L25.5895 44.4361L25.4795 44.5315L25.3684 44.626L25.2563 44.7193L25.1432 44.8116L25.0291 44.9029L24.914 44.993L24.7979 45.0821L24.6809 45.17L24.5629 45.2569L24.444 45.3426L24.3241 45.4272L24.2033 45.5107L24.0816 45.593L23.959 45.6741L23.8355 45.7541L23.7112 45.833L23.586 45.9106L23.4599 45.9871L23.333 46.0623L23.2052 46.1364L23.0767 46.2092L22.9473 46.2807L22.8172 46.3511L22.6862 46.4201L22.5546 46.488L22.4221 46.5546L22.2889 46.6199L22.155 46.6839L22.0203 46.7467L21.885 46.8081L21.749 46.8683L21.6122 46.9271L21.4749 46.9846L21.3369 47.0409L21.1982 47.0957L21.059 47.1493L20.919 47.2015L20.7786 47.2523L20.6374 47.3018L20.4958 47.3499L20.3537 47.3967L20.2109 47.4421L20.0676 47.4861L19.9238 47.5287L19.7796 47.5699L19.6348 47.6097L19.4896 47.6482L19.3438 47.6852L19.1978 47.7208L19.0512 47.755L18.9042 47.7877L18.7568 47.8191L18.609 47.849L18.4609 47.8775L18.3124 47.9045L18.1636 47.9301L18.0144 47.9542L17.865 47.9769L17.7151 47.9981L17.5651 48.0179L17.4148 48.0362L17.2642 48.053L17.1134 48.0684L16.9623 48.0823L16.8111 48.0947L16.6597 48.1057L16.5081 48.1151L16.3562 48.1231L16.2043 48.1296L16.0523 48.1345L15.9001 48.1381L15.7478 48.1401L15.5954 48.1406L15.443 48.1397L15.2906 48.1372L15.138 48.1333L14.9854 48.1277L14.8329 48.1208L14.6803 48.1124L14.5278 48.1024L14.3753 48.0909L14.2229 48.078L14.0705 48.0635L13.9182 48.0476L13.766 48.0301L13.6139 48.0112L13.4619 47.9907L13.3102 47.9687L13.1585 47.9453L13.007 47.9203L12.8558 47.8939L12.7046 47.8659L12.5538 47.8365L12.4032 47.8056L12.2529 47.7731L12.1027 47.7392L11.953 47.7038L11.8034 47.6669L11.6542 47.6285L11.5054 47.5887L11.3569 47.5474L11.2087 47.5046L11.0609 47.4604L10.9135 47.4146L10.7666 47.3674L10.62 47.3188L10.4738 47.2686L10.3282 47.217L10.183 47.1641L10.0382 47.1096L9.894 47.0537L9.75032 46.9963L9.60712 46.9375L9.46448 46.8773L9.3224 46.8157L9.18088 46.7526L9.03992 46.6881L8.8996 46.6222L8.75992 46.5549L8.62088 46.4862L8.4824 46.4161L8.34464 46.3447L8.2076 46.2718L8.07112 46.1977L7.93544 46.1221L7.80048 46.0451L7.66624 45.9668L7.53272 45.8871L7.4 45.8061L7.268 45.7237L7.1368 45.6401L7.00648 45.5551L6.87688 45.4689L6.74816 45.3812L6.62032 45.2923L6.49328 45.2021L6.36713 45.1106L6.24186 45.0179L6.1175 44.9238L5.99405 44.8285L5.87152 44.7321L5.74993 44.6342L5.6293 44.5353L5.50962 44.435L5.39093 44.3336L5.27322 44.2309L5.15653 44.127L5.04085 44.022L4.9262 43.9158L4.81258 43.8084L4.70003 43.6999L4.58854 43.5901L4.47813 43.4793L4.36881 43.3674L4.26059 43.2543L4.15349 43.1401L4.04751 43.0249L3.94268 42.9085L3.83899 42.791L3.73646 42.6725L3.63511 42.5529L3.53494 42.4324L3.43598 42.3107L3.33821 42.1881L3.24166 42.0644L3.14634 41.9397L3.05226 41.8141L2.95943 41.6874L2.86786 41.5598L2.77756 41.4313L2.68854 41.3018L2.60082 41.1714L2.51439 41.0401L2.42928 40.9079L2.34548 40.7748L2.26302 40.6408L2.1819 40.506L2.10212 40.3702L2.02371 40.2337L1.94666 40.0964L1.87099 39.9582L1.79671 39.8192L1.72382 39.6794L1.65234 39.5389L1.58226 39.3977L1.51361 39.2557L1.44638 39.1129L1.38059 38.9694L1.31625 38.8252L1.25335 38.6804L1.19192 38.5348L1.13196 38.3886L1.07346 38.2417L1.01646 38.0942L0.960944 37.9461L0.90692 37.7974L0.8544 37.6481L0.803384 37.4983L0.753888 37.3478L0.70592 37.1969L0.659472 37.0453L0.614568 36.8933L0.5712 36.7408L0.529376 36.5877L0.489104 36.4343L0.450392 36.2804L0.41324 36.126L0.377664 35.9712L0.343656 35.8159L0.311224 35.6603L0.280376 35.5043L0.251112 35.348L0.22344 35.1913L0.197368 35.0342L0.172888 34.8769L0.150016 34.7192L0.128752 34.5612L0.109104 34.4029L0.0910641 34.2445L0.0746401 34.0857L0.05984 33.9269L0.046664 33.7677L0.035112 33.6083L0.0251921 33.4488L0.0169041 33.2891L0.010248 33.1293L0.00522404 32.9693L0.00184002 32.8093L0.000103951 32.6491L0 32.4889ZM15.5025 20.7542L15.466 17.6741L15.4314 17.6774L15.2723 17.6943L15.1137 17.7128L14.9551 17.7328L14.7972 17.7543L14.6394 17.7774L14.4818 17.8021L14.3247 17.8282L14.1678 17.8559L14.0116 17.8851L13.8552 17.9158L13.6999 17.948L13.5444 17.9818L13.3897 18.017L13.2351 18.0538L13.0813 18.092L12.9278 18.1317L12.7748 18.1729L12.6222 18.2156L12.4704 18.2597L12.3188 18.3054L12.168 18.3524L12.0176 18.401L11.868 18.4509L11.7186 18.5024L11.5701 18.5552L11.4222 18.6095L11.2748 18.6652L11.1282 18.7223L10.9823 18.7808L10.8369 18.8408L10.6922 18.9021L10.5482 18.9648L10.405 19.0289L10.2625 19.0944L10.1208 19.1611L9.9796 19.2294L9.83944 19.2988L9.7 19.3697L9.56136 19.4419L9.42352 19.5154L9.28664 19.5901L9.15032 19.6663L9.01488 19.7438L8.88064 19.8223L8.7468 19.9025L8.61424 19.9836L8.48256 20.0661L8.35152 20.1499L8.22152 20.2349L8.09248 20.3211L7.96464 20.4084L7.83728 20.4972L7.7112 20.587L7.58608 20.678L7.46184 20.7703L7.33872 20.8636L7.21672 20.9581L7.09544 21.0539L6.97552 21.1506L6.85648 21.2486L6.73856 21.3476L6.62168 21.4478L6.506 21.549L6.39118 21.6514L6.27768 21.7548L6.16514 21.8593L6.05391 21.9647L5.9437 22.0713L5.8347 22.1788L5.72682 22.2874L5.61999 22.3971L5.51456 22.5076L5.41031 22.619L5.30699 22.7317L5.2051 22.8452L5.10446 22.9594L5.00486 23.0749L4.9067 23.191L4.80962 23.3082L4.71386 23.4262L4.61934 23.5452L4.52606 23.6649L4.43416 23.7855L4.34346 23.9069L4.254 24.0293L4.16598 24.1523L4.07914 24.2763L3.99369 24.4009L3.90955 24.5264L3.82668 24.6526L3.74521 24.7796L3.66507 24.9072L3.58628 25.0356L3.5089 25.1646L3.43278 25.2945L3.35804 25.425L3.28477 25.5561L3.21281 25.6878L3.14222 25.8203L3.07307 25.9533L3.00528 26.087L2.93894 26.2212L2.87399 26.356L2.81047 26.4913L2.74834 26.6273L2.68767 26.7637L2.62838 26.9008L2.57054 27.0383L2.51418 27.1762L2.45923 27.3147L2.40572 27.4537L2.35368 27.593L2.30308 27.7329L2.25398 27.873L2.20629 28.0137L2.16008 28.1548L2.11535 28.2962L2.0721 28.4379L2.0303 28.5801L1.99 28.7225L1.95118 28.8653L1.91382 29.0084L1.87796 29.1518L1.84359 29.2954L1.81071 29.4393L1.77932 29.5835L1.74942 29.7279L1.72102 29.8725L1.69411 30.0173L1.6687 30.1622L1.64479 30.3074L1.62238 30.4527L1.60147 30.5981L1.58206 30.7437L1.56415 30.8894L1.54774 31.0352L1.53284 31.1811L1.51944 31.327L1.50754 31.4729L1.49714 31.619L1.48824 31.7651L1.48084 31.9111L1.47494 32.0572L1.47054 32.2032L1.46765 32.3492L1.46624 32.4951L1.46634 32.641L1.46792 32.7868L1.471 32.9325L1.47557 33.0781L1.48162 33.2236L1.48918 33.3689L1.4982 33.5141L1.50871 33.6591L1.5207 33.8039L1.53418 33.9485L1.54911 34.093L1.56553 34.2372L1.58341 34.3812L1.60275 34.5249L1.62356 34.6683L1.64583 34.8115L1.66954 34.9543L1.69472 35.0969L1.72134 35.2391L1.74939 35.3809L1.77889 35.5225L1.80982 35.6637L1.84218 35.8045L1.87596 35.9449L1.91116 36.0849L1.94778 36.2245L1.9858 36.3635L2.02524 36.5022L2.06607 36.6405L2.1083 36.7782L2.15191 36.9155L2.1969 37.0522L2.24326 37.1885L2.29101 37.3241L2.34011 37.4593L2.39056 37.5939L2.44239 37.728L2.49554 37.8614L2.55002 37.9943L2.60586 38.1265L2.663 38.2581L2.72147 38.3892L2.78125 38.5196L2.84233 38.6493L2.9047 38.7783L2.96836 38.9066L3.0333 39.0343L3.09951 39.1613L3.16698 39.2875L3.23572 39.413L3.3057 39.5377L3.37691 39.6617L3.44936 39.785L3.52304 39.9074L3.5979 40.0291L3.67401 40.15L3.75128 40.27L3.82976 40.3893L3.90942 40.5077L3.99022 40.6252L4.07219 40.7419L4.15534 40.8577L4.23959 40.9727L4.32501 41.0868L4.4115 41.1999L4.49916 41.3121L4.58786 41.4234L4.67769 41.5338L4.76862 41.6433L4.86056 41.7518L4.9536 41.8593L5.04767 41.9659L5.14282 42.0715L5.23896 42.1761L5.3361 42.2797L5.43428 42.3822L5.53344 42.4838L5.63362 42.5844L5.73474 42.6838L5.83685 42.7823L5.93987 42.8797L6.04385 42.9761L6.14878 43.0713L6.25462 43.1655L6.3613 43.2585L6.46896 43.3505L6.57752 43.4414L6.6868 43.5312L6.79712 43.6199L6.90816 43.7073L7.02008 43.7937L7.1328 43.879L7.2464 43.9631L7.36072 44.046L7.47584 44.1277L7.59168 44.2083L7.7084 44.2877L7.82576 44.3659L7.944 44.4429L8.0628 44.5188L8.1824 44.5933L8.30272 44.6668L8.4236 44.7389L8.54528 44.8099L8.66752 44.8796L8.79048 44.9481L8.914 45.0153L9.03824 45.0813L9.16296 45.146L9.28832 45.2095L9.41432 45.2717L9.54088 45.3326L9.66792 45.3923L9.79552 45.4507L9.9236 45.5077L10.0523 45.5636L10.1814 45.6181L10.3111 45.6713L10.4412 45.7233L10.5718 45.7738L10.7028 45.8232L10.8342 45.8712L10.966 45.9178L11.0983 45.9632L11.231 46.0073L11.364 46.05L11.4973 46.0913L11.6311 46.1314L11.7651 46.1701L11.8995 46.2075L12.0342 46.2436L12.1692 46.2783L12.3045 46.3117L12.4399 46.3437L12.5758 46.3744L12.7118 46.4037L12.8479 46.4317L12.9844 46.4583L13.121 46.4836L13.2578 46.5075L13.3948 46.5301L13.5319 46.5513L13.6692 46.5711L13.8066 46.5896L13.9441 46.6068L14.0817 46.6225L14.2194 46.6369L14.3571 46.6501L14.495 46.6617L14.6328 46.6721L14.7706 46.6811L14.9086 46.6888L15.0464 46.695L15.1842 46.7L15.3221 46.7036L15.4599 46.7057L15.5976 46.7066L15.7353 46.7061L15.8729 46.7043L16.0103 46.7012L16.1477 46.6966L16.285 46.6908L16.4221 46.6836L16.559 46.675L16.6958 46.6652L16.8324 46.654L16.9688 46.6414L17.105 46.6275L17.241 46.6123L17.3766 46.5958L17.5122 46.578L17.6474 46.5588L17.7823 46.5383L17.917 46.5165L18.0514 46.4934L18.1854 46.469L18.3191 46.4433L18.4525 46.4164L18.5855 46.3881L18.7182 46.3585L18.8504 46.3277L18.9823 46.2955L19.1138 46.2621L19.2448 46.2274L19.3754 46.1915L19.5056 46.1543L19.6353 46.1158L19.7646 46.0761L19.8933 46.0353L20.0216 45.993L20.1494 45.9497L20.2765 45.905L20.4033 45.8591L20.5294 45.8121L20.655 45.7637L20.7801 45.7143L20.9045 45.6637L21.0283 45.6117L21.1516 45.5587L21.2742 45.5045L21.3962 45.4491L21.5176 45.3925L21.6383 45.3348L21.7583 45.276L21.8778 45.2159L21.9964 45.1548L22.1144 45.0925L22.2318 45.0291L22.3482 44.9646L22.4641 44.899L22.5791 44.8324L22.6936 44.7645L22.807 44.6957L22.92 44.6257L23.0319 44.5548L23.1431 44.4827L23.2536 44.4096L23.3633 44.3353L23.4719 44.2603L23.5798 44.1841L23.687 44.1069L23.7932 44.0287L23.8986 43.9494L24.003 43.8693L24.1068 43.7881L24.2094 43.706L24.3112 43.6229L24.4122 43.5389L24.5122 43.4538L24.6112 43.368L24.7094 43.2811L24.8065 43.1934L24.9027 43.1048L24.998 43.0153L25.0922 42.9249L25.1855 42.8336L25.2778 42.7414L25.3691 42.6485L25.4594 42.5546L25.5486 42.4601L25.6368 42.3647L25.7242 42.2682L25.8102 42.1713L25.8954 42.0733L25.9794 41.9748L26.0625 41.8753L26.1444 41.7753L26.2252 41.6744L26.305 41.5727L26.3837 41.4705L26.4614 41.3673L26.5378 41.2637L26.6132 41.1592L26.6876 41.054L26.7606 40.9484L26.8326 40.8419L26.9034 40.7349L26.9732 40.6272L27.0419 40.5188L27.1093 40.41L27.1755 40.3005L27.2407 40.1902L27.3046 40.0797L27.3674 39.9685L27.429 39.8566L27.4894 39.7445L27.5486 39.6315L27.6067 39.5181L27.6634 39.4045L27.7191 39.2901L27.7736 39.1752L27.8268 39.06L27.8788 38.9443L27.9296 38.8281L27.9791 38.7117L28.0275 38.5945L28.0746 38.4771L28.1205 38.3596L28.1651 38.2412L28.2085 38.1228L28.2507 38.0038L28.2917 37.8846L28.3314 37.765L28.3697 37.6454L28.407 37.5249L28.4428 37.4046L28.4774 37.2839L28.5109 37.163L28.543 37.0417L28.5738 36.9203L28.6035 36.7985L28.6318 36.6765L28.659 36.5545L28.6848 36.4321L28.7093 36.3097L28.7326 36.1869L28.7546 36.0643L28.7753 35.9413L28.7947 35.8181L28.8129 35.695L28.8298 35.5717L28.8454 35.4485L28.8598 35.3247L28.8729 35.2014L28.8847 35.0777L28.8952 34.9543L28.9045 34.8305L28.9125 34.7071L28.9192 34.5833L28.9246 34.4595L28.9288 34.336L28.9318 34.2127L28.9334 34.0889L28.9338 33.9654L28.9329 33.8421L28.9307 33.7188L28.9273 33.5955L28.9226 33.4727L28.9166 33.3494L28.9094 33.2267L28.901 33.104L28.8913 32.9817L28.8803 32.8591L28.8682 32.7371L28.8547 32.615L28.84 32.4933L28.8241 32.3717L28.807 32.2505L28.7885 32.1293L28.7689 32.0085L28.7481 31.8882L28.726 31.7678L28.7026 31.6478L28.6782 31.5283L28.6524 31.4087L28.6256 31.29L28.5974 31.1711L28.5682 31.053L28.5375 30.9348L28.5058 30.8174L28.473 30.7002L28.4389 30.5833L28.4037 30.467L28.3673 30.3512L28.3296 30.2354L28.291 30.1205L28.251 30.0057L28.21 29.8917L28.1678 29.7778L28.1245 29.6648L28.0799 29.5519L28.0343 29.4397L27.9877 29.3281L27.9399 29.2171L27.8908 29.1062L27.841 28.9964L27.7897 28.8866L27.7375 28.7779L27.6842 28.6696L27.6298 28.5617L27.5744 28.4546L27.5178 28.3481L27.4602 28.242L27.4018 28.1369L27.342 28.0321L27.2814 27.9282L27.2195 27.8248L27.157 27.7224L27.093 27.6202L27.0284 27.519L26.9626 27.4183L26.8958 27.3185L26.8282 27.2195L26.7594 27.1209L26.6898 27.0233L26.6192 26.9263L26.5476 26.8302L26.4751 26.7347L26.4017 26.6401L26.3274 26.5462L26.2521 26.4532L26.1759 26.3609L26.0988 26.2694L26.0208 26.1788L25.942 26.0889L25.8624 26L25.7818 25.9118L25.7002 25.8244L25.6182 25.7381L25.5349 25.6524L25.4511 25.5678L25.3664 25.4839L25.281 25.401L25.1944 25.3188L25.1075 25.2378L25.0195 25.1575L24.9308 25.0781L24.8416 24.9998L24.7515 24.9224L24.6604 24.8457L24.5688 24.7701L24.4766 24.6954L24.3835 24.6217L24.2898 24.5489L24.1955 24.4773L24.1002 24.4063L24.0046 24.3366L23.9082 24.2678L23.8111 24.1999L23.7136 24.1331L23.615 24.0671L23.5165 24.0025L23.4168 23.9385L23.3168 23.8757L23.216 23.8139L23.1148 23.7531L23.013 23.6934L22.9109 23.6349L22.8078 23.577L22.7046 23.5205L22.6006 23.4649L22.4962 23.4105L22.3914 23.3571L22.286 23.3047L22.1802 23.2533L22.0739 23.2032L21.9671 23.154L21.8601 23.106L21.7525 23.0589L21.641 23.0116L21.5362 22.9683L21.4272 22.9245L21.3183 22.882L21.2086 22.8403L21.0988 22.8L20.9886 22.7606L20.8781 22.7225L20.7671 22.6853L20.6561 22.6493L20.5446 22.6145L20.4328 22.5807L20.321 22.5481L20.2086 22.5166L20.0959 22.4861L19.9834 22.4569L19.8706 22.4288L19.757 22.4017L19.6439 22.3759L19.5302 22.3511L19.4166 22.3275L19.3025 22.305L19.1886 22.2836L19.0743 22.2634L18.9602 22.2443L18.8454 22.2263L18.731 22.2095L18.6164 22.1938L18.5016 22.1792L18.3868 22.1658L18.272 22.1535L18.1571 22.1424L18.0422 22.1324L17.9271 22.1235L17.812 22.1157L17.6972 22.1091L17.5823 22.1036L17.467 22.0993L17.3524 22.0961L17.2375 22.094L17.1227 22.093L17.0078 22.0932L16.9847 22.0934L17.021 25.1512L17.0862 25.1509L17.1701 25.1513L17.254 25.1526L17.338 25.1548L17.4221 25.1577L17.5062 25.1616L17.5902 25.1662L17.6744 25.1717L17.7586 25.178L17.8427 25.1851L17.9269 25.1931L18.011 25.2019L18.0951 25.2116L18.1792 25.2221L18.2632 25.2333L18.3472 25.2456L18.4311 25.2585L18.515 25.2724L18.5988 25.2871L18.6825 25.3026L18.7661 25.319L18.8496 25.3362L18.933 25.3542L19.0163 25.3731L19.0994 25.3929L19.1825 25.4134L19.2653 25.4348L19.348 25.457L19.4306 25.4801L19.513 25.504L19.5952 25.5287L19.6772 25.5542L19.759 25.5806L19.8406 25.6078L19.922 25.6359L20.0031 25.6648L20.0841 25.6945L20.1647 25.7249L20.2452 25.7563L20.3254 25.7885L20.4053 25.8214L20.4849 25.8553L20.5642 25.8898L20.6433 25.9253L20.722 25.9614L20.8004 25.9985L20.8786 26.0363L20.9563 26.0749L21.0338 26.1144L21.1109 26.1546L21.1876 26.1956L21.264 26.2374L21.34 26.28L21.4156 26.3233L21.4909 26.3675L21.5658 26.4125L21.6402 26.4581L21.7142 26.5046L21.7878 26.5519L21.861 26.5999L21.9337 26.6486L22.006 26.6981L22.0778 26.7485L22.1492 26.7994L22.2201 26.8512L22.2905 26.9037L22.3605 26.9569L22.4298 27.0109L22.4988 27.0657L22.5672 27.121L22.6351 27.1772L22.7025 27.2341L22.7694 27.2916L22.8357 27.3498L22.9014 27.4088L22.9666 27.4685L23.0312 27.5288L23.0953 27.5898L23.1587 27.6515L23.2216 27.7139L23.2839 27.7769L23.3456 27.8407L23.4067 27.905L23.4671 27.9701L23.527 28.0357L23.5862 28.1021L23.6447 28.1689L23.7026 28.2365L23.7599 28.3047L23.8166 28.3735L23.8725 28.4429L23.9278 28.5129L23.9823 28.5836L24.0362 28.6548L24.0894 28.7266L24.1419 28.7989L24.1938 28.8719L24.2448 28.9454L24.2952 29.0195L24.3448 29.0941L24.3937 29.1693L24.4418 29.245L24.4893 29.3213L24.536 29.398L24.5819 29.4753L24.627 29.5531L24.6714 29.6313L24.715 29.7101L24.7578 29.7894L24.7999 29.8692L24.8412 29.9494L24.8816 30.0301L24.9213 30.1113L24.9602 30.1929L24.9982 30.2749L25.0354 30.3575L25.0718 30.4404L25.1074 30.5237L25.1421 30.6075L25.176 30.6917L25.209 30.7762L25.2412 30.8611L25.2726 30.9465L25.303 31.0321L25.3327 31.1182L25.3615 31.2046L25.3894 31.2914L25.4164 31.3785L25.4426 31.4659L25.4678 31.5537L25.4922 31.6417L25.5157 31.7301L25.5383 31.8188L25.56 31.9077L25.5808 31.9969L25.6007 32.0865L25.6197 32.1762L25.6378 32.2662L25.6549 32.3565L25.6711 32.447L25.6865 32.5377L25.7009 32.6286L25.7143 32.7198L25.7269 32.8111L25.7385 32.9026L25.7492 32.9944L25.7589 33.0863L25.7677 33.1783L25.7756 33.2705L25.7825 33.3629L25.7885 33.4553L25.7934 33.5479L25.7975 33.6406L25.8006 33.7335L25.8028 33.8264L25.804 33.9194L25.8042 34.0125L25.8035 34.1057L25.8018 34.1989L25.7992 34.2921L25.7956 34.3855L25.791 34.4788L25.7855 34.5721L25.779 34.6656L25.7716 34.7589L25.7631 34.8523L25.7538 34.9457L25.7434 35.0389L25.7321 35.1323L25.7198 35.2255L25.7065 35.3187L25.6922 35.4118L25.677 35.5049L25.6609 35.5978L25.6437 35.6907L25.6256 35.7835L25.6065 35.8761L25.5864 35.9687L25.5654 36.0611L25.5434 36.1533L25.5205 36.2454L25.4966 36.3374L25.4717 36.4292L25.4458 36.5208L25.419 36.6121L25.3913 36.7033L25.3626 36.7944L25.3328 36.8852L25.3022 36.9757L25.2706 37.066L25.2381 37.1561L25.2046 37.2458L25.1701 37.3353L25.1347 37.4246L25.0984 37.5136L25.0611 37.6023L25.0229 37.6906L24.9838 37.7787L24.9437 37.8665L24.9026 37.9538L24.8607 38.0409L24.8178 38.1276L24.774 38.2139L24.7293 38.2999L24.6837 38.3854L24.6371 38.4706L24.5897 38.5554L24.5414 38.6398L24.4921 38.7237L24.4419 38.8073L24.3909 38.8904L24.339 38.9731L24.2861 39.0553L24.2324 39.137L24.1778 39.2182L24.1223 39.299L24.066 39.3793L24.0088 39.4591L23.9507 39.5384L23.8918 39.6172L23.8321 39.6954L23.7714 39.7731L23.71 39.8502L23.6477 39.9269L23.5846 40.0029L23.5206 40.0784L23.4558 40.1533L23.3902 40.2276L23.3238 40.3013L23.2566 40.3744L23.1886 40.4469L23.1199 40.5188L23.0503 40.59L22.98 40.6606L22.9088 40.7305L22.837 40.7999L22.7642 40.8685L22.6909 40.9365L22.6167 41.0038L22.5418 41.0704L22.4662 41.1363L22.3898 41.2016L22.3127 41.2661L22.2349 41.3299L22.1564 41.3929L22.0771 41.4553L21.9972 41.5169L21.9166 41.5777L21.8354 41.6378L21.7534 41.6972L21.6708 41.7558L21.5875 41.8136L21.5036 41.8706L21.419 41.9269L21.3338 41.9823L21.2479 42.0369L21.1615 42.0908L21.0744 42.1437L20.9868 42.196L20.8985 42.2473L20.8097 42.2978L20.7202 42.3475L20.6302 42.3964L20.5397 42.4444L20.4486 42.4915L20.3569 42.5377L20.2647 42.5831L20.172 42.6277L20.0787 42.6713L19.985 42.714L19.8907 42.7558L19.796 42.7968L19.7007 42.8368L19.605 42.8759L19.5089 42.9141L19.4122 42.9514L19.3152 42.9878L19.2177 43.0233L19.1198 43.0577L19.0214 43.0913L18.9226 43.1239L18.8234 43.1555L18.7239 43.1862L18.624 43.216L18.5237 43.2447L18.423 43.2725L18.322 43.2993L18.2206 43.3252L18.119 43.3501L18.017 43.374L17.9146 43.3969L17.812 43.4188L17.709 43.4397L17.6058 43.4596L17.5024 43.4785L17.3986 43.4965L17.2946 43.5133L17.1905 43.5292L17.086 43.5441L16.9813 43.5579L16.8764 43.5708L16.7714 43.5825L16.6661 43.5933L16.5606 43.6031L16.455 43.6118L16.3493 43.6195L16.2434 43.6261L16.1373 43.6317L16.0311 43.6363L15.9248 43.6398L15.8184 43.6423L15.7119 43.6437L15.6053 43.6441L15.4986 43.6435L15.392 43.6417L15.2852 43.639L15.1784 43.6352L15.0716 43.6303L14.9647 43.6244L14.8579 43.6174L14.751 43.6094L14.6442 43.6003L14.5374 43.5901L14.4306 43.5789L14.3239 43.5667L14.2173 43.5534L14.1106 43.539L14.0042 43.5236L13.8978 43.5071L13.7914 43.4896L13.6852 43.4709L13.5791 43.4513L13.4732 43.4306L13.3674 43.4088L13.2618 43.386L13.1563 43.3621L13.051 43.3372L12.9459 43.3112L12.841 43.2841L12.7363 43.2561L12.6318 43.2269L12.5277 43.1968L12.4237 43.1656L12.3199 43.1333L12.2165 43.1L12.1134 43.0657L12.0104 43.0303L11.9078 42.9939L11.8056 42.9565L11.7036 42.918L11.602 42.8785L11.5007 42.838L11.3998 42.7964L11.2992 42.7538L11.199 42.7103L11.0993 42.6657L10.9998 42.6201L10.9009 42.5735L10.8023 42.5259L10.7042 42.4773L10.6064 42.4277L10.5092 42.3771L10.4124 42.3255L10.3161 42.2729L10.2202 42.2194L10.1249 42.1649L10.03 42.1094L9.93568 42.0529L9.84184 41.9955L9.74856 41.9372L9.65584 41.8778L9.56368 41.8176L9.47208 41.7563L9.38104 41.6941L9.29056 41.6311L9.20072 41.5671L9.11144 41.5021L9.0228 41.4363L8.93472 41.3695L8.84736 41.3018L8.76064 41.2333L8.67456 41.1637L8.58912 41.0934L8.50432 41.0221L8.42024 40.9501L8.33688 40.877L8.25416 40.8032L8.17216 40.7285L8.09096 40.6529L8.0104 40.5765L7.93056 40.4993L7.85152 40.4212L7.77328 40.3423L7.69576 40.2625L7.61896 40.1821L7.54296 40.1007L7.46784 40.0186L7.39344 39.9357L7.31984 39.852L7.24712 39.7675L7.17512 39.6823L7.10408 39.5963L7.03376 39.5095L6.9644 39.4221L6.89584 39.3338L6.82816 39.2449L6.76136 39.1552L6.69536 39.0649L6.63032 38.9737L6.56624 38.882L6.50296 38.7895L6.44064 38.6964L6.37925 38.6026L6.31878 38.5081L6.25923 38.413L6.20064 38.3173L6.14299 38.2209L6.0863 38.1239L6.03058 38.0262L5.97582 37.9281L5.92204 37.8292L5.86925 37.7298L5.81744 37.6298L5.76663 37.5293L5.71683 37.4281L5.66804 37.3265L5.62026 37.2243L5.57351 37.1215L5.52778 37.0183L5.4831 36.9145L5.43945 36.8102L5.39684 36.7055L5.3553 36.6003L5.3148 36.4945L5.27537 36.3884L5.237 36.2818L5.19971 36.1747L5.1635 36.0673L5.12838 35.9593L5.09434 35.851L5.06139 35.7424L5.02954 35.6333L4.9988 35.5238L4.96916 35.414L4.94064 35.3037L4.91323 35.1933L4.88694 35.0824L4.86178 34.9712L4.83774 34.8597L4.81483 34.7479L4.79306 34.6358L4.77243 34.5234L4.75294 34.4108L4.73461 34.2979L4.71742 34.1848L4.70138 34.0714L4.6865 33.9578L4.67278 33.844L4.66022 33.73L4.64882 33.6158L4.63858 33.5014L4.62953 33.3869L4.62164 33.2722L4.61492 33.1573L4.60938 33.0424L4.60502 32.9273L4.60185 32.8121L4.59985 32.6969L4.59903 32.5814L4.59941 32.466L4.60096 32.3505L4.60371 32.2349L4.60764 32.1193L4.61277 32.0037L4.61909 31.8881L4.62659 31.7724L4.6353 31.6568L4.64518 31.5411L4.65627 31.4256L4.66856 31.31L4.68203 31.1945L4.6967 31.0791L4.71257 30.9637L4.72962 30.8485L4.74788 30.7333L4.76732 30.6183L4.78796 30.5034L4.80979 30.3886L4.83282 30.274L4.85702 30.1596L4.88243 30.0453L4.90902 29.9312L4.9368 29.8173L4.96576 29.7036L4.99591 29.5901L5.02724 29.4769L5.05975 29.3639L5.09345 29.2512L5.12831 29.1387L5.16436 29.0265L5.20158 28.9146L5.23996 28.803L5.27952 28.6917L5.32024 28.5808L5.36212 28.4701L5.40516 28.3599L5.44936 28.25L5.49471 28.1405L5.54122 28.0313L5.58886 27.9225L5.63766 27.8142L5.68759 27.7063L5.73866 27.5988L5.79086 27.4917L5.8442 27.3852L5.89866 27.279L5.95423 27.1734L6.01092 27.0682L6.06873 26.9636L6.12764 26.8594L6.18765 26.7557L6.24876 26.6527L6.31097 26.5501L6.37426 26.4481L6.43864 26.3467L6.50408 26.2458L6.57064 26.1456L6.63816 26.0459L6.70688 25.9469L6.77656 25.8484L6.84728 25.7505L6.91912 25.6534L6.99192 25.5569L7.06584 25.461L7.14072 25.3658L7.21664 25.2713L7.29352 25.1776L7.37144 25.0845L7.4504 24.9921L7.53032 24.9004L7.6112 24.8095L7.69312 24.7193L7.77592 24.6299L7.85976 24.5413L7.94456 24.4533L8.03024 24.3663L8.11688 24.28L8.20448 24.1945L8.29304 24.1098L8.38248 24.0259L8.4728 23.9429L8.56408 23.8607L8.65624 23.7794L8.7492 23.6989L8.84312 23.6193L8.93792 23.5406L9.03352 23.4628L9.13 23.3858L9.22736 23.3098L9.32552 23.2347L9.42448 23.1605L9.52432 23.0873L9.62488 23.0149L9.72624 22.9436L9.82848 22.8732L9.93144 22.8037L10.0351 22.7353L10.1397 22.6678L10.2449 22.6013L10.3509 22.5359L10.4576 22.4714L10.565 22.4079L10.6731 22.3454L10.782 22.284L10.8915 22.2236L11.0017 22.1643L11.1126 22.106L11.2241 22.0488L11.3362 21.9926L11.449 21.9375L11.5625 21.8835L11.6766 21.8306L11.7912 21.7787L11.9065 21.728L12.0223 21.6784L12.1387 21.6298L12.2557 21.5824L12.3731 21.5361L12.4912 21.491L12.6098 21.447L12.7289 21.4041L12.8485 21.3624L12.9686 21.3218L13.0891 21.2824L13.2101 21.2441L13.3316 21.207L13.4535 21.1711L13.5759 21.1364L13.6986 21.1029L13.8218 21.0705L13.9454 21.0393L14.0694 21.0094L14.1938 20.9806L14.3185 20.953L14.4435 20.9267L14.5689 20.9015L14.6946 20.8776L14.8206 20.8549L14.947 20.8335L15.0736 20.8132L15.2005 20.7942L15.3276 20.7764L15.455 20.7599L15.5025 20.7542ZM15.5562 25.2895L15.5196 22.1981L15.4152 22.2127L15.303 22.2296L15.1906 22.2475L15.079 22.2665L14.9673 22.2866L14.8561 22.3078L14.7451 22.33L14.6346 22.3533L14.5242 22.3777L14.4142 22.4032L14.3044 22.4297L14.1951 22.4572L14.0859 22.4859L13.981 22.5145L13.8693 22.5463L13.7614 22.5781L13.6539 22.6109L13.547 22.6446L13.4404 22.6795L13.3342 22.7154L13.2284 22.7523L13.1232 22.7901L13.0184 22.8291L12.9141 22.8689L12.8102 22.9099L12.707 22.9517L12.6039 22.9947L12.5016 23.0385L12.3998 23.0833L12.2986 23.1291L12.1978 23.1759L12.0974 23.2237L11.998 23.2722L11.8987 23.3219L11.8005 23.3724L11.7024 23.424L11.6053 23.4762L11.5083 23.5297L11.4123 23.5838L11.317 23.6389L11.2221 23.695L11.1279 23.7519L11.0342 23.8098L10.9415 23.8684L10.8492 23.928L10.7578 23.9884L10.667 24.0496L10.5768 24.1117L10.4872 24.1748L10.3986 24.2384L10.3106 24.3031L10.2232 24.3685L10.1366 24.4348L10.0509 24.5017L9.96568 24.5697L9.88144 24.6382L9.79792 24.7076L9.71504 24.7779L9.6332 24.8487L9.55192 24.9205L9.47144 24.9929L9.39184 25.0661L9.31312 25.1399L9.23496 25.2146L9.15792 25.2898L9.0816 25.3658L9.006 25.4426L8.93136 25.52L8.85752 25.5981L8.78456 25.6769L8.71248 25.7562L8.6412 25.8363L8.57072 25.9171L8.50144 25.9983L8.4328 26.0803L8.36504 26.1629L8.29824 26.2461L8.2324 26.3297L8.16728 26.4142L8.1032 26.4991L8.04 26.5846L7.97776 26.6707L7.9164 26.7573L7.85608 26.8444L7.79664 26.9321L7.73808 27.0203L7.68048 27.109L7.62392 27.1981L7.56832 27.2878L7.5136 27.3781L7.45984 27.4687L7.40712 27.5598L7.35528 27.6514L7.30456 27.7433L7.25472 27.8357L7.20576 27.9287L7.158 28.0218L7.11112 28.1156L7.06528 28.2097L7.0204 28.304L6.97656 28.3989L6.93368 28.494L6.89184 28.5895L6.85096 28.6853L6.8112 28.7815L6.7724 28.878L6.73456 28.9749L6.69776 29.072L6.66208 29.1693L6.62728 29.2671L6.59368 29.3649L6.56096 29.4632L6.52936 29.5617L6.49872 29.6604L6.4692 29.7593L6.44064 29.8584L6.4132 29.9577L6.38673 30.0573L6.36132 30.1569L6.33696 30.2569L6.31365 30.3569L6.29137 30.4571L6.27013 30.5575L6.24996 30.658L6.23082 30.7585L6.21272 30.8593L6.19569 30.9601L6.17968 31.0611L6.16474 31.162L6.15083 31.2631L6.13798 31.3642L6.12618 31.4654L6.11542 31.5666L6.1057 31.6679L6.09704 31.7692L6.08942 31.8704L6.08285 31.9717L6.07731 32.073L6.07282 32.1742L6.06938 32.2754L6.06698 32.3765L6.06562 32.4777L6.06529 32.5788L6.066 32.6797L6.06775 32.7806L6.07054 32.8814L6.07434 32.9821L6.07919 33.0827L6.08506 33.1832L6.09196 33.2834L6.09989 33.3837L6.10883 33.4837L6.1188 33.5835L6.12978 33.6832L6.14178 33.7827L6.15479 33.8821L6.16881 33.9811L6.18384 34.0801L6.19986 34.1786L6.2169 34.2771L6.23493 34.3753L6.25394 34.4732L6.27396 34.5709L6.29495 34.6683L6.31694 34.7655L6.33989 34.8622L6.36384 34.9588L6.38875 35.055L6.41464 35.1509L6.44144 35.2465L6.46928 35.3417L6.498 35.4366L6.52776 35.5312L6.5584 35.6254L6.59 35.7192L6.62256 35.8125L6.656 35.9056L6.6904 35.9982L6.72576 36.0905L6.762 36.1822L6.79912 36.2736L6.8372 36.3645L6.87616 36.455L6.91608 36.545L6.9568 36.6346L6.99848 36.7237L7.04104 36.8123L7.0844 36.9005L7.12872 36.9881L7.17384 37.0753L7.21984 37.1619L7.26672 37.248L7.3144 37.3336L7.36296 37.4186L7.41232 37.5031L7.46256 37.587L7.5136 37.6705L7.56544 37.7533L7.61808 37.8355L7.6716 37.9173L7.72576 37.9982L7.78088 38.0788L7.83664 38.1586L7.89328 38.2379L7.95064 38.3165L8.0088 38.3945L8.06768 38.4719L8.12736 38.5487L8.18768 38.6248L8.2488 38.7002L8.31064 38.775L8.3732 38.8492L8.43648 38.9225L8.50048 38.9954L8.56512 39.0674L8.63048 39.1389L8.69648 39.2095L8.7632 39.2795L8.83056 39.3488L8.89864 39.4173L8.96728 39.4852L9.03664 39.5523L9.10664 39.6187L9.17712 39.6843L9.2484 39.7493L9.32016 39.8133L9.39256 39.8767L9.4656 39.9393L9.5392 40.0012L9.61336 40.0623L9.68808 40.1225L9.76336 40.1821L9.8392 40.2408L9.9156 40.2988L9.99256 40.3559L10.0699 40.4122L10.1478 40.4677L10.2263 40.5225L10.3053 40.5764L10.3848 40.6295L10.4647 40.6817L10.5451 40.7332L10.626 40.7838L10.7073 40.8336L10.789 40.8825L10.8713 40.9306L10.9538 40.9778L11.037 41.0242L11.1203 41.0697L11.2042 41.1145L11.2885 41.1583L11.373 41.2012L11.4581 41.2433L11.5435 41.2845L11.6292 41.3249L11.7152 41.3644L11.8017 41.403L11.8883 41.4407L11.9754 41.4775L12.0627 41.5135L12.1504 41.5485L12.2382 41.5827L12.3265 41.616L12.415 41.6484L12.5037 41.6799L12.5926 41.7105L12.6819 41.7402L12.7714 41.7689L12.861 41.7969L12.951 41.8238L13.041 41.8499L13.1313 41.8751L13.2218 41.8993L13.3124 41.9228L13.4032 41.9452L13.4942 41.9667L13.5853 41.9873L13.6766 42.0071L13.7679 42.0259L13.8594 42.0437L13.951 42.0607L14.0426 42.0768L14.1345 42.092L14.2263 42.1061L14.3182 42.1195L14.4102 42.1319L14.5022 42.1434L14.5943 42.154L14.6864 42.1637L14.7786 42.1724L14.8707 42.1802L14.9629 42.1871L15.055 42.1932L15.1471 42.1982L15.2392 42.2025L15.3314 42.2057L15.4234 42.2081L15.5153 42.2096L15.6072 42.2101L15.699 42.2098L15.7908 42.2085L15.8825 42.2065L15.974 42.2034L16.0655 42.1995L16.1568 42.1946L16.248 42.1889L16.339 42.1823L16.43 42.1748L16.5207 42.1664L16.6114 42.1571L16.7018 42.1469L16.7921 42.1359L16.8822 42.124L16.972 42.1113L17.0617 42.0976L17.1511 42.083L17.2402 42.0677L17.3293 42.0513L17.418 42.0342L17.5065 42.0163L17.5948 41.9974L17.6826 41.9777L17.7703 41.9573L17.8577 41.9358L17.9448 41.9137L18.0316 41.8906L18.1181 41.8667L18.2042 41.842L18.2901 41.8165L18.3755 41.7901L18.4606 41.7629L18.5455 41.7349L18.6299 41.7061L18.714 41.6765L18.7977 41.6461L18.881 41.6149L18.9638 41.5829L19.0463 41.5501L19.1285 41.5165L19.2102 41.4822L19.2914 41.4471L19.3722 41.4113L19.4526 41.3746L19.5326 41.3372L19.6121 41.299L19.691 41.2602L19.7697 41.2205L19.8477 41.1801L19.9254 41.1389L20.0023 41.0972L20.079 41.0546L20.1551 41.0113L20.2306 40.9673L20.3058 40.9226L20.3803 40.8773L20.4542 40.8312L20.5278 40.7844L20.6006 40.737L20.673 40.6889L20.745 40.64L20.8162 40.5905L20.8867 40.5405L20.957 40.4897L21.0264 40.4384L21.0954 40.3863L21.1638 40.3336L21.2313 40.2804L21.2986 40.2264L21.3651 40.1718L21.4308 40.1168L21.4962 40.0609L21.5608 40.0046L21.6247 39.9478L21.6882 39.8901L21.7508 39.8322L21.8129 39.7736L21.8743 39.7144L21.935 39.6547L21.995 39.5944L22.0545 39.5336L22.1132 39.4722L22.1711 39.4104L22.2285 39.348L22.2852 39.2851L22.341 39.2218L22.3964 39.1578L22.4509 39.0935L22.5046 39.0287L22.5578 38.9633L22.6102 38.8977L22.6618 38.8313L22.7128 38.7647L22.763 38.6975L22.8125 38.63L22.8611 38.5621L22.9092 38.4936L22.9564 38.4249L23.0029 38.3557L23.0487 38.286L23.0935 38.2161L23.1378 38.1457L23.1813 38.0749L23.224 38.0039L23.2658 37.9325L23.3071 37.8605L23.3474 37.7886L23.387 37.716L23.4258 37.6433L23.4638 37.5702L23.5011 37.4966L23.5374 37.4232L23.5732 37.3489L23.6079 37.2749L23.6422 37.2001L23.6753 37.1255L23.7078 37.0502L23.7395 36.975L23.7703 36.8995L23.8004 36.8237L23.8297 36.7476L23.858 36.6715L23.8858 36.5949L23.9125 36.5183L23.9385 36.4415L23.9637 36.3645L23.9881 36.2872L24.0117 36.2098L24.0344 36.1324L24.0563 36.0546L24.0774 35.9769L24.0977 35.8989L24.1171 35.8208L24.1358 35.7427L24.1536 35.6642L24.1706 35.5858L24.1868 35.5073L24.2021 35.4289L24.2166 35.3502L24.2303 35.2713L24.2432 35.1926L24.2553 35.1137L24.2665 35.0348L24.2769 34.956L24.2865 34.877L24.2953 34.7978L24.3032 34.7192L24.3104 34.6399L24.3167 34.5609L24.3222 34.4821L24.3269 34.4031L24.3307 34.3242L24.3338 34.2454L24.336 34.1664L24.3374 34.0878L24.338 34.0089L24.3378 33.9303L24.3368 33.8517L24.335 33.7733L24.3323 33.6949L24.3289 33.6165L24.3246 33.5385L24.3196 33.4603L24.3138 33.3823L24.3072 33.3047L24.2998 33.2269L24.2915 33.1495L24.2825 33.072L24.2727 32.9949L24.2622 32.9178L24.2508 32.8409L24.2386 32.7642L24.2258 32.6878L24.2121 32.6116L24.1976 32.5356L24.1823 32.4595L24.1663 32.384L24.1496 32.3087L24.1321 32.2335L24.1138 32.1585L24.0948 32.0841L24.075 32.0094L24.0545 31.9354L24.0332 31.8615L24.0112 31.7881L23.9885 31.7147L23.965 31.6417L23.9408 31.5691L23.9159 31.4968L23.8902 31.4245L23.8639 31.3529L23.8368 31.2815L23.809 31.2105L23.7806 31.1397L23.7514 31.0693L23.7215 30.9994L23.6909 30.9297L23.6597 30.8605L23.6278 30.7917L23.5951 30.723L23.5618 30.6548L23.5279 30.5872L23.4932 30.5197L23.458 30.4529L23.4221 30.3865L23.3854 30.3202L23.3483 30.2547L23.3104 30.1894L23.2719 30.1247L23.2327 30.0602L23.1931 29.9965L23.1526 29.9329L23.1118 29.87L23.0702 29.8075L23.028 29.7455L22.9851 29.6838L22.9418 29.6228L22.8979 29.5623L22.8533 29.5021L22.8082 29.4425L22.7625 29.3834L22.7164 29.3249L22.6695 29.2668L22.6222 29.2093L22.5742 29.1522L22.5258 29.0957L22.477 29.0398L22.4274 28.9843L22.3774 28.9295L22.3269 28.8751L22.276 28.8215L22.2243 28.7681L22.1724 28.7156L22.1198 28.6633L22.0668 28.6119L22.0134 28.561L21.9595 28.5106L21.905 28.4608L21.8502 28.4117L21.7949 28.3631L21.739 28.3149L21.683 28.2677L21.6263 28.2208L21.5693 28.1746L21.5118 28.1291L21.4539 28.084L21.3957 28.0397L21.3372 27.9961L21.278 27.9529L21.2184 27.9102L21.1588 27.8685L21.0984 27.8272L21.0381 27.7868L20.9772 27.7468L20.9159 27.7074L20.8542 27.6687L20.7925 27.6308L20.7301 27.5933L20.6676 27.5567L20.6046 27.5205L20.5416 27.4853L20.4781 27.4505L20.4142 27.4164L20.3502 27.3829L20.2859 27.3503L20.2213 27.3181L20.1563 27.2867L20.0913 27.256L20.0261 27.226L19.9602 27.1965L19.8946 27.1678L19.8285 27.1398L19.7621 27.1124L19.6956 27.0857L19.629 27.0598L19.5622 27.0345L19.4949 27.0098L19.4278 26.986L19.3602 26.9627L19.2926 26.9401L19.225 26.9183L19.157 26.8972L19.0891 26.8767L19.0206 26.8569L18.9524 26.8378L18.884 26.8194L18.8154 26.8017L18.7468 26.7847L18.6778 26.7684L18.609 26.7528L18.5402 26.7379L18.4711 26.7237L18.4018 26.7101L18.333 26.6973L18.2636 26.6852L18.1944 26.6737L18.1249 26.6629L18.0558 26.6529L17.9861 26.6435L17.9169 26.6349L17.8474 26.6269L17.778 26.6197L17.7086 26.6131L17.6391 26.6072L17.5699 26.602L17.5003 26.5975L17.431 26.5937L17.3619 26.5905L17.2923 26.5881L17.2233 26.5863L17.1542 26.5853L17.0851 26.5849L17.0379 26.585L17.0737 29.6053L17.095 29.6054L17.1347 29.606L17.1745 29.6069L17.2143 29.6082L17.2542 29.6101L17.2941 29.6122L17.334 29.6148L17.374 29.6178L17.414 29.6213L17.4541 29.6251L17.4942 29.6293L17.5342 29.634L17.5744 29.6391L17.6145 29.6446L17.6546 29.6505L17.6948 29.6569L17.735 29.6637L17.775 29.6709L17.8152 29.6786L17.8553 29.6866L17.8954 29.6952L17.9354 29.7041L17.9755 29.7134L18.0154 29.7232L18.0554 29.7333L18.0954 29.744L18.1352 29.755L18.175 29.7665L18.2148 29.7784L18.2545 29.7907L18.2941 29.8035L18.3337 29.8167L18.3731 29.8303L18.4126 29.8443L18.4518 29.8588L18.491 29.8737L18.5302 29.8889L18.5692 29.9047L18.6081 29.9209L18.6469 29.9374L18.6856 29.9545L18.7242 29.9719L18.7626 29.9897L18.801 30.0081L18.8391 30.0267L18.8772 30.0458L18.915 30.0654L18.9528 30.0853L18.9904 30.1057L19.0278 30.1265L19.0651 30.1477L19.1022 30.1693L19.1391 30.1913L19.1759 30.2138L19.2125 30.2367L19.2489 30.26L19.285 30.2836L19.321 30.3077L19.3569 30.3322L19.3925 30.3571L19.4278 30.3824L19.463 30.4081L19.498 30.4341L19.5327 30.4606L19.5672 30.4875L19.6015 30.5148L19.6355 30.5425L19.6693 30.5705L19.7029 30.5989L19.7362 30.6277L19.7692 30.6569L19.802 30.6865L19.8345 30.7165L19.8667 30.7469L19.8986 30.7776L19.9304 30.8087L19.9618 30.8401L19.9929 30.872L20.0238 30.9041L20.0542 30.9367L20.0845 30.9697L20.1144 31.0029L20.1441 31.0365L20.1734 31.0705L20.2023 31.1049L20.231 31.1395L20.2594 31.1745L20.2874 31.2099L20.315 31.2456L20.3424 31.2817L20.3694 31.318L20.3961 31.3547L20.4223 31.3917L20.4483 31.429L20.4739 31.4667L20.4991 31.5047L20.524 31.5429L20.5486 31.5816L20.5726 31.6205L20.5964 31.6597L20.6198 31.6992L20.6427 31.7389L20.6654 31.779L20.6875 31.8194L20.7094 31.8601L20.7308 31.901L20.7518 31.9422L20.7724 31.9837L20.7926 32.0254L20.8123 32.0675L20.8317 32.1097L20.8506 32.1523L20.8692 32.1951L20.8873 32.2381L20.905 32.2814L20.9222 32.3249L20.939 32.3687L20.9554 32.4127L20.9713 32.4569L20.9867 32.5014L21.0018 32.5461L21.0163 32.5909L21.0304 32.6361L21.0441 32.6813L21.0573 32.7269L21.07 32.7726L21.0823 32.8185L21.0942 32.8645L21.1054 32.9109L21.1163 32.9573L21.1267 33.0039L21.1366 33.0508L21.1461 33.0977L21.155 33.1448L21.1634 33.1921L21.1714 33.2396L21.179 33.2871L21.1859 33.3349L21.1924 33.3827L21.1984 33.4307L21.2039 33.4789L21.209 33.5271L21.2134 33.5754L21.2174 33.6239L21.221 33.6725L21.2239 33.7212L21.2264 33.77L21.2283 33.8189L21.2298 33.8678L21.2307 33.9169L21.2312 33.966L21.231 34.0151L21.2305 34.0644L21.2294 34.1137L21.2277 34.1631L21.2255 34.2125L21.2228 34.262L21.2196 34.3115L21.2158 34.361L21.2115 34.4106L21.2067 34.4602L21.2014 34.5098L21.1955 34.5594L21.1891 34.6091L21.1822 34.6588L21.1748 34.7084L21.1668 34.758L21.1582 34.8076L21.1492 34.8572L21.1396 34.9068L21.1295 34.9563L21.1188 35.0058L21.1076 35.0553L21.0959 35.1047L21.0836 35.1541L21.0708 35.2034L21.0575 35.2526L21.0436 35.3018L21.0292 35.3509L21.0142 35.3999L20.9988 35.4489L20.9828 35.4977L20.9662 35.5465L20.9492 35.5951L20.9315 35.6436L20.9134 35.6921L20.8947 35.7403L20.8755 35.7885L20.8558 35.8365L20.8355 35.8845L20.8147 35.9322L20.7934 35.9799L20.7715 36.0273L20.7491 36.0746L20.7262 36.1218L20.7028 36.1688L20.6788 36.2156L20.6543 36.2622L20.6293 36.3086L20.6038 36.3549L20.5778 36.4009L20.5512 36.4468L20.5241 36.4925L20.4966 36.5378L20.4684 36.5831L20.4398 36.6281L20.4107 36.6728L20.381 36.7173L20.351 36.7616L20.3203 36.8057L20.2892 36.8494L20.2575 36.8929L20.2254 36.9362L20.1928 36.9792L20.1597 37.0219L20.1261 37.0644L20.092 37.1065L20.0574 37.1484L20.0224 37.19L19.9869 37.2313L19.9508 37.2722L19.9143 37.3129L19.8774 37.3533L19.8399 37.3933L19.8021 37.4329L19.7637 37.4724L19.7249 37.5114L19.6856 37.5501L19.6459 37.5885L19.6057 37.6265L19.565 37.6641L19.524 37.7013L19.4825 37.7383L19.4406 37.7749L19.3982 37.811L19.3554 37.8468L19.3121 37.8822L19.2684 37.9173L19.2243 37.9518L19.1798 37.9861L19.135 38.0199L19.0896 38.0533L19.0439 38.0863L18.9978 38.1189L18.9513 38.1511L18.9043 38.1828L18.857 38.2141L18.8094 38.2449L18.7613 38.2754L18.7128 38.3054L18.664 38.3349L18.6148 38.364L18.5653 38.3926L18.5154 38.4208L18.465 38.4485L18.4145 38.4757L18.3635 38.5025L18.3122 38.5288L18.2606 38.5545L18.2086 38.5799L18.1563 38.6047L18.1037 38.629L18.0508 38.6529L17.9975 38.6761L17.944 38.699L17.8902 38.7213L17.836 38.7431L17.7815 38.7644L17.7268 38.7852L17.6718 38.8054L17.6165 38.8252L17.561 38.8444L17.5051 38.863L17.449 38.8812L17.3927 38.8987L17.3362 38.9157L17.2793 38.9323L17.2222 38.9482L17.165 38.9637L17.1074 38.9785L17.0497 38.9928L16.9917 39.0065L16.9335 39.0197L16.8751 39.0322L16.8166 39.0443L16.7578 39.0557L16.6988 39.0666L16.6397 39.0769L16.5803 39.0867L16.5209 39.0958L16.4612 39.1044L16.4014 39.1124L16.3414 39.1198L16.2814 39.1266L16.2211 39.1328L16.1607 39.1385L16.1002 39.1434L16.0396 39.1479L15.9788 39.1517L15.918 39.1549L15.857 39.1576L15.796 39.1596L15.7348 39.1609L15.6736 39.1617L15.6123 39.162L15.551 39.1616L15.4895 39.1605L15.428 39.1589L15.3665 39.1566L15.3049 39.1537L15.2432 39.1502L15.1815 39.1461L15.1198 39.1414L15.0582 39.1361L14.9964 39.1301L14.9347 39.1235L14.873 39.1162L14.8113 39.1084L14.7495 39.0999L14.6878 39.0909L14.6262 39.0811L14.5646 39.0708L14.503 39.0598L14.4414 39.0482L14.3799 39.0361L14.3185 39.0232L14.2571 39.0097L14.1958 38.9956L14.1346 38.9809L14.0734 38.9656L14.0124 38.9496L13.9515 38.9329L13.8906 38.9157L13.83 38.8979L13.7694 38.8794L13.7089 38.8603L13.6486 38.8406L13.5883 38.8203L13.5283 38.7993L13.4684 38.7777L13.4086 38.7555L13.3491 38.7327L13.2897 38.7093L13.2305 38.6852L13.1714 38.6605L13.1126 38.6353L13.054 38.6093L12.9955 38.5829L12.9374 38.5557L12.8793 38.528L12.8215 38.4997L12.764 38.4707L12.7067 38.4412L12.6497 38.411L12.5929 38.3803L12.5363 38.3489L12.4801 38.317L12.424 38.2845L12.3683 38.2513L12.3129 38.2177L12.2578 38.1833L12.2029 38.1485L12.1483 38.113L12.0941 38.0769L12.0402 38.0403L11.9866 38.0031L11.9334 37.9653L11.8804 37.927L11.8278 37.8881L11.7756 37.8486L11.7238 37.8086L11.6722 37.768L11.6211 37.7269L11.5703 37.6852L11.5199 37.6429L11.4699 37.6001L11.4203 37.5568L11.3711 37.5129L11.3223 37.4685L11.2739 37.4236L11.2259 37.3781L11.1784 37.3321L11.1312 37.2857L11.0846 37.2386L11.0383 37.1911L10.9925 37.143L10.9471 37.0945L10.9022 37.0454L10.8578 36.9959L10.8138 36.9459L10.7704 36.8953L10.7274 36.8444L10.6848 36.7929L10.6428 36.7409L10.6013 36.6885L10.5602 36.6356L10.5197 36.5822L10.4797 36.5284L10.4402 36.4741L10.4013 36.4194L10.3628 36.3642L10.3249 36.3086L10.2875 36.2526L10.2507 36.1961L10.2145 36.1393L10.1787 36.082L10.1436 36.0243L10.109 35.9661L10.075 35.9077L10.0415 35.8487L10.0086 35.7894L9.97632 35.7297L9.94464 35.6697L9.91352 35.6092L9.88296 35.5484L9.85304 35.4873L9.82376 35.4257L9.79504 35.3638L9.76696 35.3016L9.73952 35.239L9.71264 35.1761L9.6864 35.1129L9.6608 35.0493L9.63584 34.9854L9.61152 34.9212L9.58792 34.8567L9.56488 34.7919L9.54248 34.7269L9.52072 34.6615L9.49968 34.5958L9.47928 34.5299L9.45952 34.4637L9.4404 34.3973L9.422 34.3305L9.40432 34.2636L9.3872 34.1964L9.37088 34.1289L9.3552 34.0613L9.34016 33.9934L9.32584 33.9253L9.31224 33.857L9.29928 33.7885L9.28704 33.7198L9.27552 33.6509L9.26472 33.5819L9.25456 33.5126L9.24512 33.4433L9.23648 33.3737L9.22848 33.304L9.2212 33.2341L9.21464 33.1641L9.2088 33.0939L9.20368 33.0237L9.19928 32.9533L9.1956 32.8828L9.19264 32.8122L9.1904 32.7415L9.18896 32.6707L9.18824 32.5999L9.18816 32.5289L9.18888 32.4579L9.1904 32.3869L9.19256 32.3157L9.19552 32.2445L9.1992 32.1733L9.2036 32.1021L9.20872 32.0309L9.21464 31.9596L9.22128 31.8883L9.22864 31.817L9.2368 31.7457L9.24568 31.6745L9.25528 31.6033L9.26568 31.5321L9.2768 31.4609L9.28872 31.3897L9.30128 31.3186L9.31464 31.2476L9.3288 31.1766L9.34368 31.1057L9.35928 31.0349L9.3756 30.9642L9.39272 30.8937L9.41056 30.8231L9.4292 30.7527L9.44856 30.6825L9.46864 30.6123L9.48944 30.5422L9.51104 30.4724L9.53336 30.4026L9.5564 30.333L9.58024 30.2637L9.6048 30.1944L9.63008 30.1253L9.65608 30.0565L9.68288 29.9878L9.7104 29.9193L9.73864 29.851L9.7676 29.783L9.79728 29.7152L9.82776 29.6476L9.85888 29.5802L9.8908 29.5131L9.92336 29.4463L9.95672 29.3797L9.99072 29.3133L10.0255 29.2473L10.061 29.1816L10.0972 29.1161L10.1341 29.0509L10.1717 28.9861L10.21 28.9216L10.249 28.8573L10.2887 28.7934L10.3292 28.7299L10.3703 28.6666L10.4121 28.6037L10.4546 28.5413L10.4978 28.4791L10.5416 28.4173L10.5862 28.356L10.6314 28.2949L10.6772 28.2343L10.7238 28.1741L10.771 28.1143L10.8189 28.0549L10.8674 27.9959L10.9166 27.9374L10.9664 27.8793L11.0169 27.8216L11.068 27.7644L11.1198 27.7076L11.1722 27.6513L11.2252 27.5955L11.2789 27.5401L11.3331 27.4853L11.388 27.4309L11.4435 27.3769L11.4996 27.3236L11.5563 27.2707L11.6136 27.2183L11.6714 27.1665L11.7299 27.1151L11.789 27.0644L11.8486 27.0141L11.9089 26.9644L11.9696 26.9153L12.031 26.8666L12.0928 26.8186L12.1553 26.7712L12.2182 26.7243L12.2818 26.678L12.3458 26.6323L12.4104 26.5872L12.4755 26.5426L12.5412 26.4987L12.6073 26.4554L12.6739 26.4128L12.7411 26.3707L12.8087 26.3293L12.8769 26.2885L12.9454 26.2483L13.0146 26.2088L13.0841 26.1699L13.1541 26.1317L13.2246 26.0941L13.2954 26.0573L13.3668 26.021L13.4386 25.9855L13.5108 25.9506L13.5834 25.9165L13.6565 25.8829L13.7299 25.8501L13.8038 25.8181L13.8781 25.7866L13.9527 25.7559L14.0277 25.726L14.1031 25.6967L14.1789 25.6681L14.255 25.6403L14.3314 25.6133L14.4083 25.5869L14.4854 25.5613L14.563 25.5364L14.6407 25.5122L14.7189 25.4889L14.7973 25.4662L14.876 25.4444L14.955 25.4233L15.0343 25.4029L15.1139 25.3833L15.1938 25.3645L15.2739 25.3465L15.3542 25.3292L15.4349 25.3127L15.5157 25.297L15.5562 25.2895ZM16.5498 31.0977L15.6277 31.3181L15.5735 26.7505L15.5301 26.7602L15.4646 26.7757L15.3993 26.7917L15.3344 26.8084L15.2696 26.8257L15.2052 26.8436L15.1408 26.8622L15.077 26.8813L15.0131 26.9011L14.95 26.9213L14.8867 26.9424L14.8238 26.964L14.7613 26.9861L14.699 27.0089L14.6372 27.0321L14.5755 27.0561L14.5142 27.0806L14.4532 27.1057L14.3923 27.1314L14.3322 27.1575L14.2722 27.1844L14.2126 27.2117L14.1532 27.2397L14.0943 27.2681L14.0356 27.2971L13.9775 27.3266L13.9197 27.3567L13.8622 27.3873L13.8052 27.4185L13.7485 27.4501L13.6922 27.4824L13.6365 27.515L13.5807 27.5484L13.5257 27.5821L13.4711 27.6163L13.4169 27.651L13.363 27.6863L13.3096 27.7221L13.2566 27.7583L13.2041 27.7949L13.1521 27.8321L13.1003 27.8697L13.0491 27.9079L12.9984 27.9465L12.9481 27.9855L12.8983 28.0249L12.849 28.0648L12.8001 28.1052L12.7516 28.1461L12.7038 28.1872L12.6563 28.2289L12.6094 28.2709L12.5629 28.3133L12.5169 28.3563L12.4714 28.3996L12.4265 28.4432L12.3819 28.4873L12.338 28.5317L12.2946 28.5766L12.2517 28.6217L12.2091 28.6675L12.1673 28.7133L12.1259 28.7597L12.085 28.8064L12.0448 28.8533L12.005 28.9007L11.9658 28.9482L11.927 28.9964L11.889 29.0446L11.8513 29.0933L11.8142 29.1424L11.7778 29.1916L11.7418 29.2411L11.7064 29.2909L11.6715 29.3412L11.6372 29.3916L11.6035 29.4424L11.5704 29.4933L11.5378 29.5445L11.5058 29.5961L11.4744 29.6477L11.4434 29.6999L11.4132 29.752L11.3834 29.8045L11.3542 29.8573L11.3258 29.9101L11.2978 29.9633L11.2704 30.0166L11.2435 30.0703L11.2174 30.1239L11.1917 30.178L11.1666 30.2321L11.1422 30.2864L11.1183 30.3409L11.095 30.3956L11.0724 30.4503L11.0503 30.5053L11.0289 30.5605L11.0079 30.6157L10.9877 30.671L10.968 30.7266L10.9489 30.7823L10.9304 30.8381L10.9125 30.8939L10.8952 30.95L10.8785 31.0061L10.8625 31.0621L10.847 31.1185L10.832 31.1749L10.8178 31.2313L10.8041 31.2877L10.791 31.3443L10.7785 31.4009L10.7666 31.4577L10.7554 31.5143L10.7446 31.571L10.7346 31.6279L10.7251 31.6846L10.7162 31.7414L10.7079 31.7984L10.7002 31.8551L10.6932 31.9121L10.6867 31.9688L10.6808 32.0257L10.6755 32.0826L10.6708 32.1393L10.6667 32.1961L10.6632 32.2529L10.6602 32.3096L10.6579 32.3662L10.6562 32.4228L10.655 32.4794L10.6544 32.5359L10.6545 32.5923L10.655 32.6486L10.6562 32.7049L10.658 32.7611L10.6603 32.8172L10.6632 32.8732L10.6667 32.929L10.6708 32.9848L10.6754 33.0405L10.6806 33.096L10.6864 33.1515L10.6927 33.2066L10.6996 33.2619L10.707 33.3168L10.7151 33.3717L10.7237 33.4264L10.7328 33.4809L10.7425 33.5354L10.7527 33.5896L10.7635 33.6437L10.7748 33.6974L10.7867 33.7512L10.7991 33.8046L10.8121 33.858L10.8255 33.9109L10.8396 33.964L10.8541 34.0165L10.8691 34.0691L10.8847 34.1213L10.9008 34.1733L10.9174 34.2251L10.9346 34.2765L10.9522 34.328L10.9704 34.379L10.989 34.4297L11.0082 34.4804L11.0278 34.5307L11.048 34.5807L11.0686 34.6305L11.0897 34.6799L11.1114 34.7292L11.1334 34.7781L11.156 34.8268L11.179 34.8751L11.2025 34.9231L11.2266 34.971L11.2509 35.0184L11.2758 35.0655L11.3011 35.1124L11.327 35.1589L11.3532 35.2051L11.3798 35.251L11.407 35.2965L11.4346 35.3417L11.4625 35.3866L11.4909 35.4311L11.5198 35.4753L11.549 35.5192L11.5786 35.5628L11.6086 35.6057L11.6391 35.6486L11.67 35.691L11.7012 35.733L11.733 35.7748L11.765 35.8161L11.7974 35.8569L11.8302 35.8975L11.8634 35.9377L11.8968 35.9774L11.9308 36.0169L11.965 36.0559L11.9996 36.0945L12.0347 36.1327L12.0699 36.1704L12.1056 36.2079L12.1416 36.2449L12.1778 36.2814L12.2146 36.3176L12.2515 36.3533L12.2888 36.3887L12.3264 36.4236L12.3643 36.4581L12.4026 36.4921L12.441 36.5257L12.4798 36.5589L12.5189 36.5917L12.5582 36.6241L12.5979 36.656L12.6379 36.6874L12.678 36.7184L12.7185 36.7489L12.7592 36.7791L12.8002 36.8088L12.8414 36.838L12.8828 36.8668L12.9245 36.8951L12.9664 36.9229L13.0085 36.9503L13.0508 36.9773L13.0935 37.0038L13.1362 37.0297L13.1792 37.0553L13.2225 37.0805L13.2658 37.105L13.3093 37.1292L13.3532 37.1529L13.3971 37.1761L13.4412 37.1989L13.4854 37.2211L13.53 37.2429L13.5745 37.2642L13.6194 37.2851L13.6642 37.3055L13.7092 37.3253L13.7545 37.3448L13.7998 37.3637L13.8452 37.3822L13.8908 37.4002L13.9365 37.4177L13.9824 37.4347L14.0282 37.4513L14.0743 37.4673L14.1203 37.4829L14.1665 37.498L14.2128 37.5126L14.2592 37.5268L14.3056 37.5404L14.3521 37.5536L14.3987 37.5662L14.4454 37.5785L14.492 37.5901L14.5387 37.6014L14.5854 37.6121L14.6322 37.6224L14.6791 37.6322L14.726 37.6415L14.7729 37.6504L14.8198 37.6587L14.8667 37.6666L14.9137 37.674L14.9606 37.6809L15.0074 37.6873L15.0544 37.6933L15.1013 37.6988L15.1482 37.7038L15.1951 37.7083L15.242 37.7124L15.2888 37.716L15.3355 37.7191L15.3823 37.7217L15.429 37.7239L15.4755 37.7257L15.5222 37.7269L15.5686 37.7277L15.615 37.728L15.6614 37.7278L15.7077 37.7273L15.754 37.7261L15.8002 37.7246L15.8461 37.7227L15.892 37.7202L15.938 37.7173L15.9836 37.714L16.0293 37.7102L16.0747 37.706L16.1202 37.7013L16.1654 37.6961L16.2105 37.6906L16.2556 37.6846L16.3004 37.6781L16.345 37.6713L16.3898 37.664L16.4342 37.6562L16.4784 37.6481L16.5226 37.6394L16.5666 37.6304L16.6102 37.6209L16.6538 37.6111L16.6973 37.6008L16.7406 37.5901L16.7836 37.579L16.8265 37.5675L16.8691 37.5556L16.9118 37.5432L16.954 37.5305L16.9959 37.5173L17.038 37.5037L17.0796 37.4898L17.121 37.4756L17.1622 37.4609L17.2032 37.4457L17.2441 37.4302L17.2846 37.4144L17.3249 37.3981L17.365 37.3816L17.4048 37.3645L17.4445 37.3472L17.4837 37.3295L17.5229 37.3114L17.5617 37.293L17.6002 37.2742L17.6386 37.2551L17.6765 37.2357L17.7143 37.2158L17.7518 37.1956L17.789 37.1751L17.8259 37.1543L17.8626 37.1331L17.899 37.1116L17.935 37.0897L17.9708 37.0676L18.0063 37.0451L18.0415 37.0224L18.0765 36.9993L18.111 36.9759L18.1454 36.9521L18.1794 36.9281L18.213 36.9039L18.2463 36.8793L18.2794 36.8544L18.3121 36.8292L18.3445 36.8037L18.3766 36.778L18.4083 36.7521L18.4398 36.7258L18.4708 36.6993L18.5015 36.6725L18.532 36.6454L18.5621 36.6181L18.5918 36.5905L18.6211 36.5628L18.6502 36.5347L18.679 36.5064L18.7074 36.4779L18.7354 36.4492L18.763 36.4201L18.7902 36.391L18.8173 36.3615L18.8438 36.332L18.8701 36.3021L18.8959 36.272L18.9214 36.2418L18.9466 36.2113L18.9713 36.1807L18.9958 36.1498L19.0198 36.1189L19.0434 36.0877L19.0668 36.0562L19.0897 36.0248L19.1122 35.9929L19.1345 35.961L19.1562 35.9291L19.1777 35.8968L19.1988 35.8645L19.2194 35.832L19.2397 35.7993L19.2596 35.7665L19.2791 35.7336L19.2983 35.7005L19.317 35.6673L19.3354 35.6341L19.3534 35.6005L19.371 35.5671L19.3882 35.5334L19.4051 35.4997L19.4216 35.4658L19.4377 35.4317L19.4534 35.3977L19.4686 35.3636L19.4835 35.3294L19.4981 35.295L19.5122 35.2607L19.526 35.2261L19.5393 35.1917L19.5523 35.1569L19.5648 35.1225L19.577 35.0877L19.5889 35.0528L19.6002 35.0181L19.6113 34.9832L19.6219 34.9484L19.6322 34.9132L19.642 34.8785L19.6516 34.8432L19.6606 34.8085L19.6694 34.7733L19.6777 34.7381L19.6856 34.7031L19.6931 34.6682L19.7003 34.6329L19.7071 34.5979L19.7135 34.5626L19.7195 34.5277L19.7252 34.4927L19.7305 34.4576L19.7354 34.4225L19.7398 34.3874L19.744 34.3525L19.7478 34.3177L19.7511 34.2826L19.7542 34.2478L19.7568 34.2129L19.759 34.1781L19.761 34.1434L19.7625 34.1088L19.7636 34.0743L19.7644 34.0396L19.7649 34.0049L19.765 33.9706L19.7646 33.9363L19.764 33.9021L19.763 33.8679L19.7616 33.8336L19.7598 33.7999L19.7578 33.7655L19.7554 33.732L19.7526 33.6983L19.7494 33.6644L19.7459 33.6309L19.7422 33.5977L19.7379 33.564L19.7334 33.531L19.7286 33.4978L19.7234 33.4651L19.7178 33.4321L19.712 33.3993L19.7058 33.3668L19.6994 33.3344L19.6925 33.3019L19.6853 33.2698L19.6778 33.2377L19.67 33.2059L19.6619 33.1743L19.6534 33.1425L19.6447 33.1113L19.6356 33.0797L19.6262 33.0488L19.6166 33.0178L19.6066 32.9871L19.5962 32.9565L19.5856 32.9259L19.5748 32.8958L19.5636 32.8658L19.5521 32.8357L19.5403 32.8061L19.5282 32.7764L19.516 32.7473L19.5033 32.718L19.4905 32.6891L19.4773 32.6605L19.4638 32.6318L19.4502 32.6035L19.4362 32.5753L19.4219 32.5473L19.4074 32.5197L19.3926 32.4921L19.3777 32.4649L19.3624 32.4377L19.3468 32.4109L19.3311 32.3842L19.3151 32.3578L19.2988 32.3315L19.2823 32.3057L19.2656 32.2799L19.2486 32.2544L19.2314 32.229L19.2141 32.2041L19.1964 32.1792L19.1786 32.1546L19.1605 32.1303L19.1422 32.1062L19.1238 32.0824L19.105 32.0587L19.0861 32.0354L19.067 32.0123L19.0477 31.9894L19.0282 31.9668L19.0086 31.9445L18.9886 31.9224L18.9686 31.9005L18.9483 31.8789L18.9279 31.8576L18.9073 31.8365L18.8865 31.8157L18.8656 31.7952L18.8445 31.7749L18.8233 31.7549L18.8017 31.7351L18.7802 31.7157L18.7585 31.6964L18.7366 31.6775L18.7146 31.6588L18.6924 31.6405L18.6701 31.6223L18.6477 31.6045L18.6251 31.5869L18.6024 31.5695L18.5796 31.5525L18.5566 31.5357L18.5335 31.5193L18.5104 31.5031L18.4871 31.4871L18.4638 31.4715L18.4402 31.4561L18.4166 31.441L18.393 31.4262L18.369 31.4117L18.3452 31.3974L18.3213 31.3835L18.2972 31.3698L18.273 31.3564L18.2488 31.3433L18.2246 31.3304L18.2002 31.3178L18.1758 31.3056L18.1512 31.2935L18.1267 31.2818L18.1021 31.2705L18.0774 31.2593L18.0527 31.2484L18.0278 31.2377L18.0032 31.2275L17.9782 31.2175L17.9533 31.2077L17.9284 31.1983L17.9034 31.1891L17.8785 31.1802L17.8534 31.1716L17.8284 31.1632L17.8034 31.1552L17.7783 31.1473L17.7532 31.1398L17.7282 31.1326L17.703 31.1257L17.678 31.119L17.6529 31.1126L17.6278 31.1065L17.6026 31.1006L17.5776 31.095L17.5525 31.0897L17.5274 31.0847L17.5025 31.0799L17.4775 31.0754L17.4524 31.0712L17.4276 31.0673L17.4025 31.0636L17.3778 31.0601L17.3528 31.0569L17.328 31.0541L17.3034 31.0514L17.2786 31.0491L17.2539 31.0469L17.2293 31.0451L17.2047 31.0435L17.1802 31.0421L17.1557 31.0411L17.1314 31.0403L17.107 31.0397L17.0828 31.0393L17.0586 31.0393L17.0345 31.0395L17.0104 31.0399L16.9865 31.0405L16.9626 31.0415L16.9389 31.0426L16.915 31.0441L16.8915 31.0457L16.868 31.0475L16.8446 31.0497L16.8213 31.052L16.7979 31.0545L16.7749 31.0573L16.7518 31.0604L16.729 31.0637L16.7061 31.0672L16.6834 31.0709L16.6608 31.0748L16.6385 31.0789L16.616 31.0833L16.5938 31.0879L16.5717 31.0927L16.5498 31.0977Z" fill="#94A3B8"/>
<path d="M48.8062 35.6758C48.8062 35.3711 48.7593 35.0977 48.6655 34.8555C48.5796 34.6055 48.4155 34.3789 48.1733 34.1758C47.9312 33.9648 47.5913 33.7578 47.1538 33.5547C46.7163 33.3516 46.1499 33.1406 45.4546 32.9219C44.6812 32.6719 43.9468 32.3906 43.2515 32.0781C42.564 31.7656 41.9546 31.4023 41.4233 30.9883C40.8999 30.5664 40.4858 30.0781 40.1812 29.5234C39.8843 28.9688 39.7358 28.3242 39.7358 27.5898C39.7358 26.8789 39.8921 26.2344 40.2046 25.6562C40.5171 25.0703 40.9546 24.5703 41.5171 24.1562C42.0796 23.7344 42.7437 23.4102 43.5093 23.1836C44.2827 22.957 45.1304 22.8438 46.0522 22.8438C47.3101 22.8438 48.4077 23.0703 49.3452 23.5234C50.2827 23.9766 51.0093 24.5977 51.5249 25.3867C52.0483 26.1758 52.3101 27.0781 52.3101 28.0938H48.8179C48.8179 27.5938 48.7124 27.1562 48.5015 26.7812C48.2983 26.3984 47.9858 26.0977 47.564 25.8789C47.1499 25.6602 46.6265 25.5508 45.9937 25.5508C45.3843 25.5508 44.8765 25.6445 44.4702 25.832C44.064 26.0117 43.7593 26.2578 43.5562 26.5703C43.353 26.875 43.2515 27.2188 43.2515 27.6016C43.2515 27.8906 43.3218 28.1523 43.4624 28.3867C43.6108 28.6211 43.8296 28.8398 44.1187 29.043C44.4077 29.2461 44.7632 29.4375 45.1851 29.6172C45.6069 29.7969 46.0952 29.9727 46.6499 30.1445C47.5796 30.4258 48.396 30.7422 49.0991 31.0938C49.8101 31.4453 50.4038 31.8398 50.8804 32.2773C51.3569 32.7148 51.7163 33.2109 51.9585 33.7656C52.2007 34.3203 52.3218 34.9492 52.3218 35.6523C52.3218 36.3945 52.1772 37.0586 51.8882 37.6445C51.5991 38.2305 51.1812 38.7266 50.6343 39.1328C50.0874 39.5391 49.4351 39.8477 48.6772 40.0586C47.9194 40.2695 47.0718 40.375 46.1343 40.375C45.2905 40.375 44.4585 40.2656 43.6382 40.0469C42.8179 39.8203 42.0718 39.4805 41.3999 39.0273C40.7358 38.5742 40.2046 37.9961 39.8062 37.293C39.4077 36.5898 39.2085 35.7578 39.2085 34.7969H42.7358C42.7358 35.3281 42.8179 35.7773 42.9819 36.1445C43.146 36.5117 43.3765 36.8086 43.6733 37.0352C43.978 37.2617 44.3374 37.4258 44.7515 37.5273C45.1733 37.6289 45.6343 37.6797 46.1343 37.6797C46.7437 37.6797 47.2437 37.5938 47.6343 37.4219C48.0327 37.25 48.3257 37.0117 48.5132 36.707C48.7085 36.4023 48.8062 36.0586 48.8062 35.6758ZM66.0913 30.0273V32.7695H57.1851V30.0273H66.0913ZM58.228 23.0781V40.1406H54.7124V23.0781H58.228ZM68.5991 23.0781V40.1406H65.0952V23.0781H68.5991ZM83.1069 37.3984V40.1406H74.0249V37.3984H83.1069ZM75.1733 23.0781V40.1406H71.6577V23.0781H75.1733ZM81.9233 30.0273V32.6992H74.0249V30.0273H81.9233ZM83.0952 23.0781V25.832H74.0249V23.0781H83.0952ZM96.1265 37.3984V40.1406H87.5366V37.3984H96.1265ZM88.6733 23.0781V40.1406H85.1577V23.0781H88.6733ZM109.111 37.3984V40.1406H100.521V37.3984H109.111ZM101.658 23.0781V40.1406H98.1421V23.0781H101.658ZM120.009 35.6758C120.009 35.3711 119.962 35.0977 119.869 34.8555C119.783 34.6055 119.619 34.3789 119.376 34.1758C119.134 33.9648 118.794 33.7578 118.357 33.5547C117.919 33.3516 117.353 33.1406 116.658 32.9219C115.884 32.6719 115.15 32.3906 114.455 32.0781C113.767 31.7656 113.158 31.4023 112.626 30.9883C112.103 30.5664 111.689 30.0781 111.384 29.5234C111.087 28.9688 110.939 28.3242 110.939 27.5898C110.939 26.8789 111.095 26.2344 111.408 25.6562C111.72 25.0703 112.158 24.5703 112.72 24.1562C113.283 23.7344 113.947 23.4102 114.712 23.1836C115.486 22.957 116.333 22.8438 117.255 22.8438C118.513 22.8438 119.611 23.0703 120.548 23.5234C121.486 23.9766 122.212 24.5977 122.728 25.3867C123.251 26.1758 123.513 27.0781 123.513 28.0938H120.021C120.021 27.5938 119.916 27.1562 119.705 26.7812C119.501 26.3984 119.189 26.0977 118.767 25.8789C118.353 25.6602 117.83 25.5508 117.197 25.5508C116.587 25.5508 116.08 25.6445 115.673 25.832C115.267 26.0117 114.962 26.2578 114.759 26.5703C114.556 26.875 114.455 27.2188 114.455 27.6016C114.455 27.8906 114.525 28.1523 114.666 28.3867C114.814 28.6211 115.033 28.8398 115.322 29.043C115.611 29.2461 115.966 29.4375 116.388 29.6172C116.81 29.7969 117.298 29.9727 117.853 30.1445C118.783 30.4258 119.599 30.7422 120.302 31.0938C121.013 31.4453 121.607 31.8398 122.083 32.2773C122.56 32.7148 122.919 33.2109 123.162 33.7656C123.404 34.3203 123.525 34.9492 123.525 35.6523C123.525 36.3945 123.38 37.0586 123.091 37.6445C122.802 38.2305 122.384 38.7266 121.837 39.1328C121.291 39.5391 120.638 39.8477 119.88 40.0586C119.123 40.2695 118.275 40.375 117.337 40.375C116.494 40.375 115.662 40.2656 114.841 40.0469C114.021 39.8203 113.275 39.4805 112.603 39.0273C111.939 38.5742 111.408 37.9961 111.009 37.293C110.611 36.5898 110.412 35.7578 110.412 34.7969H113.939C113.939 35.3281 114.021 35.7773 114.185 36.1445C114.349 36.5117 114.58 36.8086 114.876 37.0352C115.181 37.2617 115.541 37.4258 115.955 37.5273C116.376 37.6289 116.837 37.6797 117.337 37.6797C117.947 37.6797 118.447 37.5938 118.837 37.4219C119.236 37.25 119.529 37.0117 119.716 36.707C119.912 36.4023 120.009 36.0586 120.009 35.6758Z" fill="#94A3B8"/>
</svg>
