<svg width="185" height="25" viewBox="0 0 185 25" fill="none" xmlns="http://www.w3.org/2000/svg">
<path d="M18.1479 5.15774H6.48094C4.19094 5.15774 2.33594 6.99274 2.33594 9.25674V15.0247C2.33594 17.2887 4.19194 19.1247 6.48094 19.1247H18.1479C20.4379 19.1247 22.2929 17.2887 22.2929 15.0247V9.25674C22.2929 6.99274 20.4369 5.15674 18.1479 5.15674V5.15774ZM15.3449 12.4207L9.88794 14.9957C9.85465 15.0118 9.81786 15.0191 9.78097 15.0171C9.74408 15.0151 9.70831 15.0038 9.67697 14.9842C9.64563 14.9646 9.61975 14.9375 9.60174 14.9052C9.58372 14.873 9.57416 14.8367 9.57394 14.7997V9.49074C9.5746 9.45361 9.58466 9.41726 9.60316 9.38506C9.62166 9.35287 9.64801 9.32588 9.67976 9.30662C9.7115 9.28735 9.74761 9.27643 9.78471 9.27488C9.82181 9.27333 9.8587 9.28119 9.89194 9.29774L15.3499 12.0327C15.3863 12.0509 15.4168 12.0789 15.4379 12.1136C15.4591 12.1482 15.47 12.1882 15.4695 12.2288C15.469 12.2694 15.457 12.3091 15.435 12.3432C15.413 12.3773 15.3817 12.4045 15.3449 12.4217V12.4207Z" fill="#E2E8F0"/>
<path d="M49.3822 6.00563V8.75362H47.3682V12.1136H49.3822V22.0996H53.5162V12.1146H56.2912C56.2912 12.1146 56.5512 10.5036 56.6772 8.74162H53.5332V6.44362C53.5332 6.10063 53.9832 5.63862 54.4292 5.63862H56.6832V2.14062H53.6192C49.2792 2.14062 49.3822 5.50362 49.3822 6.00563Z" fill="#E2E8F0"/>
<path d="M102.336 6.04754C101.586 6.37492 100.792 6.58958 99.9799 6.68454C100.833 6.18378 101.474 5.38965 101.784 4.45054C100.976 4.92087 100.095 5.25215 99.1769 5.43054C98.7905 5.02575 98.3256 4.70393 97.8107 4.48472C97.2958 4.26551 96.7416 4.15351 96.1819 4.15554C93.9159 4.15554 92.0789 5.96554 92.0789 8.19554C92.0789 8.51154 92.1149 8.82054 92.1849 9.11554C90.5595 9.03824 88.9681 8.62295 87.5121 7.89618C86.0562 7.16942 84.7677 6.14713 83.7289 4.89454C83.3648 5.50895 83.1734 6.21033 83.1749 6.92454C83.1756 7.59251 83.3428 8.24977 83.6612 8.83694C83.9797 9.4241 84.4394 9.92266 84.9989 10.2875C84.3484 10.2665 83.712 10.0929 83.1409 9.78054V9.83054C83.1409 11.7885 84.5559 13.4215 86.4309 13.7935C86.0785 13.887 85.7155 13.9344 85.3509 13.9345C85.0859 13.9345 84.8289 13.9095 84.5779 13.8595C84.846 14.6675 85.359 15.3719 86.0458 15.8749C86.7325 16.3779 87.5588 16.6546 88.4099 16.6665C86.95 17.7911 85.1578 18.3986 83.3149 18.3935C82.9829 18.3935 82.6569 18.3735 82.3359 18.3375C84.2172 19.5283 86.3985 20.1588 88.6249 20.1555C96.1719 20.1555 100.298 13.9985 100.298 8.65954L100.284 8.13654C101.089 7.57021 101.784 6.86239 102.336 6.04754Z" fill="#E2E8F0"/>
<path d="M136.353 2.14062H128.283C126.706 2.14248 125.194 2.76977 124.079 3.88486C122.965 4.99995 122.338 6.51178 122.336 8.08862V16.1586C122.338 17.7355 122.965 19.2472 124.08 20.3621C125.195 21.477 126.707 22.104 128.284 22.1056H136.354C137.931 22.1038 139.443 21.4765 140.557 20.3614C141.672 19.2463 142.299 17.7345 142.301 16.1576V8.08763C142.299 6.51078 141.672 4.99906 140.557 3.88415C139.442 2.76925 137.93 2.14221 136.353 2.14063V2.14062ZM140.293 16.1576C140.293 16.675 140.191 17.1874 139.993 17.6654C139.795 18.1434 139.505 18.5778 139.139 18.9436C138.773 19.3095 138.339 19.5997 137.861 19.7977C137.383 19.9957 136.87 20.0976 136.353 20.0976H128.283C127.238 20.0974 126.236 19.6821 125.498 18.9433C124.759 18.2044 124.344 17.2024 124.344 16.1576V8.08763C124.344 7.04285 124.759 6.04095 125.498 5.30227C126.237 4.56359 127.239 4.14862 128.284 4.14862H136.354C137.399 4.14889 138.401 4.56411 139.139 5.30298C139.878 6.04184 140.293 7.04385 140.293 8.08862V16.1586V16.1576Z" fill="#E2E8F0"/>
<path d="M132.318 6.95972C130.949 6.96183 129.637 7.5065 128.67 8.47432C127.702 9.44214 127.158 10.7541 127.156 12.1227C127.157 13.4916 127.702 14.804 128.67 15.7721C129.638 16.7402 130.95 17.2849 132.319 17.2867C133.688 17.2851 135 16.7406 135.969 15.7725C136.937 14.8044 137.481 13.4918 137.483 12.1227C137.481 10.7538 136.936 9.4416 135.967 8.47391C134.999 7.50622 133.687 6.96204 132.318 6.96072V6.95972ZM132.318 15.2787C131.481 15.2787 130.679 14.9463 130.087 14.3546C129.495 13.763 129.163 12.9605 129.163 12.1237C129.163 11.287 129.495 10.4845 130.087 9.8928C130.679 9.30112 131.481 8.96872 132.318 8.96872C133.155 8.96872 133.957 9.30112 134.549 9.8928C135.14 10.4845 135.473 11.287 135.473 12.1237C135.473 12.9605 135.14 13.763 134.549 14.3546C133.957 14.9463 133.155 15.2787 132.318 15.2787Z" fill="#E2E8F0"/>
<path d="M137.492 8.23572C138.175 8.23572 138.729 7.68189 138.729 6.99872C138.729 6.31554 138.175 5.76172 137.492 5.76172C136.809 5.76172 136.255 6.31554 136.255 6.99872C136.255 7.68189 136.809 8.23572 137.492 8.23572Z" fill="#E2E8F0"/>
<path d="M182.295 13.8595V21.2385H178.017V14.3535C178.017 12.6235 177.398 11.4435 175.85 11.4435C174.668 11.4435 173.964 12.2395 173.655 13.0085C173.542 13.2835 173.513 13.6665 173.513 14.0515V21.2385H169.233C169.233 21.2385 169.291 9.5785 169.233 8.3695H173.513V10.1935L173.485 10.2355H173.513V10.1935C174.081 9.3185 175.096 8.0675 177.369 8.0675C180.184 8.0675 182.295 9.9075 182.295 13.8595ZM164.757 2.1665C163.294 2.1665 162.336 3.1265 162.336 4.3895C162.336 5.6245 163.266 6.6135 164.701 6.6135H164.729C166.222 6.6135 167.149 5.6245 167.149 4.3895C167.123 3.1265 166.223 2.1665 164.758 2.1665H164.757ZM162.59 21.2385H166.868V8.3695H162.59V21.2385Z" fill="#E2E8F0"/>
</svg>
