<svg width="367" height="237" viewBox="0 0 367 237" fill="none" xmlns="http://www.w3.org/2000/svg">
<path d="M4 218.676L19.7555 204.251L35.2296 178.624L50.7038 165.889L66.4592 191.152L81.9334 185.538L97.6889 178.624L113.444 137.944H128.918L144.674 150.919L160.148 170.567L175.904 156.532L191.378 93.8431L207.133 81.6795L222.607 99.4624L238.082 106.007L253.837 93.8431L269.311 119.106L285.067 122.849L300.541 137.944L316.296 163.082L331.77 150.919L347.526 111.621L363 33.9755" stroke="#A5B4FC" stroke-width="2" stroke-linecap="round" stroke-linejoin="round"/>
<path d="M4 218.676L19.7555 204.251L35.2296 178.624L50.7038 165.889L66.4592 191.152L81.9334 185.538L97.6889 178.624L113.444 137.944H128.918L144.674 150.919L160.148 170.567L175.904 156.532L191.378 93.8431L207.133 81.6795L222.607 99.4624L238.082 106.007L253.837 93.8431L269.311 119.106L285.067 122.849L300.541 137.944L316.296 163.082L331.77 150.919L347.526 111.621L363 33.9755" stroke="#A5B4FC" stroke-width="8" stroke-linecap="round" stroke-linejoin="round" stroke-dasharray="0.01 50"/>
<path d="M4 218.676L19.7555 204.251L35.2296 178.624L50.7038 165.889L66.4592 191.152L81.9334 185.538L97.6889 178.624L113.444 137.944H128.918L144.674 150.919L160.148 170.567L175.904 156.532L191.378 93.8431L207.133 81.6795L222.607 99.4624L238.082 106.007L253.837 93.8431L269.311 119.106L285.067 122.849L300.541 137.944L316.296 163.082L331.77 150.919L347.526 111.621L363 33.9755" stroke="#0F172A" stroke-width="6" stroke-linecap="round" stroke-linejoin="round" stroke-dasharray="0.01 50"/>
<path d="M4 232.676L19.7555 174.492L35.2296 151.995L50.7038 123.071L66.4593 126.285L81.9334 113.43L97.6889 126.285L113.444 113.43L128.919 119.857H144.674L160.148 131.106H175.904L191.378 113.43L207.133 99.7753L222.607 90.9327H238.081L253.837 81.2912L269.311 70.8462L285.067 81.2912L300.541 99.7753L316.296 137.533L331.77 134.319L345.83 101.031L354.415 62.8116L363 4.97546" stroke="#6366F1" stroke-width="2" stroke-linecap="round" stroke-linejoin="round"/>
<path d="M4 232.676L19.7555 174.492L35.2296 151.995L50.7038 123.071L66.4593 126.285L81.9334 113.43L97.6889 126.285L113.444 113.43L128.919 119.857H144.674L160.148 131.106H175.904L191.378 113.43L207.133 99.7753L222.607 90.9327H238.081L253.837 81.2912L269.311 70.8462L285.067 81.2912L300.541 99.7753L316.296 137.533L331.77 134.319L345.83 101.031L354.415 62.8116L363 4.97546" stroke="#6366F1" stroke-width="8" stroke-linecap="round" stroke-linejoin="round" stroke-dasharray="0.01 50"/>
<path d="M4 232.676L19.7555 174.492L35.2296 151.995L50.7038 123.071L66.4593 126.285L81.9334 113.43L97.6889 126.285L113.444 113.43L128.919 119.857H144.674L160.148 131.106H175.904L191.378 113.43L207.133 99.7753L222.607 90.9327H238.081L253.837 81.2912L269.311 70.8462L285.067 81.2912L300.541 99.7753L316.296 137.533L331.77 134.319L345.83 101.031L354.415 62.8116L363 4.97546" stroke="#0F172A" stroke-width="6" stroke-linecap="round" stroke-linejoin="round" stroke-dasharray="0.01 50"/>
</svg>
