<svg width="320" height="65" viewBox="0 0 320 65" fill="none" xmlns="http://www.w3.org/2000/svg">
<path fill-rule="evenodd" clip-rule="evenodd" d="M16 48.1406C24.8366 48.1406 32 40.9772 32 32.1406C32 23.3041 24.8366 16.1406 16 16.1406C7.16343 16.1406 0 23.3041 0 32.1406C0 40.9772 7.16343 48.1406 16 48.1406ZM20.9915 23.5941C21.2344 22.7311 20.3969 22.2207 19.632 22.7657L8.9545 30.3723C8.12498 30.9633 8.25546 32.1406 9.1505 32.1406H11.9622V32.1189H17.442L12.977 33.6943L11.0086 40.6872C10.7656 41.5502 11.6031 42.0605 12.368 41.5156L23.0455 33.909C23.8751 33.3181 23.7445 32.1406 22.8496 32.1406H18.5857L20.9915 23.5941Z" fill="#94A3B8"/>
<path d="M53.8633 37.3984V40.1406H41.7695V37.3984H53.8633ZM53.6875 25.0352L43.3281 40.1406H40.8555V38.125L51.2969 23.0781H53.6875V25.0352ZM52.4805 23.0781V25.832H40.8672V23.0781H52.4805ZM55.0938 33.9297V33.6836C55.0938 32.7539 55.2266 31.8984 55.4922 31.1172C55.7578 30.3281 56.1445 29.6445 56.6523 29.0664C57.1602 28.4883 57.7852 28.0391 58.5273 27.7188C59.2695 27.3906 60.1211 27.2266 61.082 27.2266C62.043 27.2266 62.8984 27.3906 63.6484 27.7188C64.3984 28.0391 65.0273 28.4883 65.5352 29.0664C66.0508 29.6445 66.4414 30.3281 66.707 31.1172C66.9727 31.8984 67.1055 32.7539 67.1055 33.6836V33.9297C67.1055 34.8516 66.9727 35.707 66.707 36.4961C66.4414 37.2773 66.0508 37.9609 65.5352 38.5469C65.0273 39.125 64.4023 39.5742 63.6602 39.8945C62.918 40.2148 62.0664 40.375 61.1055 40.375C60.1445 40.375 59.2891 40.2148 58.5391 39.8945C57.7969 39.5742 57.168 39.125 56.6523 38.5469C56.1445 37.9609 55.7578 37.2773 55.4922 36.4961C55.2266 35.707 55.0938 34.8516 55.0938 33.9297ZM58.4688 33.6836V33.9297C58.4688 34.4609 58.5156 34.957 58.6094 35.418C58.7031 35.8789 58.8516 36.2852 59.0547 36.6367C59.2656 36.9805 59.5391 37.25 59.875 37.4453C60.2109 37.6406 60.6211 37.7383 61.1055 37.7383C61.5742 37.7383 61.9766 37.6406 62.3125 37.4453C62.6484 37.25 62.918 36.9805 63.1211 36.6367C63.3242 36.2852 63.4727 35.8789 63.5664 35.418C63.668 34.957 63.7188 34.4609 63.7188 33.9297V33.6836C63.7188 33.168 63.668 32.6836 63.5664 32.2305C63.4727 31.7695 63.3203 31.3633 63.1094 31.0117C62.9062 30.6523 62.6367 30.3711 62.3008 30.168C61.9648 29.9648 61.5586 29.8633 61.082 29.8633C60.6055 29.8633 60.1992 29.9648 59.8633 30.168C59.5352 30.3711 59.2656 30.6523 59.0547 31.0117C58.8516 31.3633 58.7031 31.7695 58.6094 32.2305C58.5156 32.6836 58.4688 33.168 58.4688 33.6836ZM68.6406 33.9297V33.6836C68.6406 32.7539 68.7734 31.8984 69.0391 31.1172C69.3047 30.3281 69.6914 29.6445 70.1992 29.0664C70.707 28.4883 71.332 28.0391 72.0742 27.7188C72.8164 27.3906 73.668 27.2266 74.6289 27.2266C75.5898 27.2266 76.4453 27.3906 77.1953 27.7188C77.9453 28.0391 78.5742 28.4883 79.082 29.0664C79.5977 29.6445 79.9883 30.3281 80.2539 31.1172C80.5195 31.8984 80.6523 32.7539 80.6523 33.6836V33.9297C80.6523 34.8516 80.5195 35.707 80.2539 36.4961C79.9883 37.2773 79.5977 37.9609 79.082 38.5469C78.5742 39.125 77.9492 39.5742 77.207 39.8945C76.4648 40.2148 75.6133 40.375 74.6523 40.375C73.6914 40.375 72.8359 40.2148 72.0859 39.8945C71.3438 39.5742 70.7148 39.125 70.1992 38.5469C69.6914 37.9609 69.3047 37.2773 69.0391 36.4961C68.7734 35.707 68.6406 34.8516 68.6406 33.9297ZM72.0156 33.6836V33.9297C72.0156 34.4609 72.0625 34.957 72.1562 35.418C72.25 35.8789 72.3984 36.2852 72.6016 36.6367C72.8125 36.9805 73.0859 37.25 73.4219 37.4453C73.7578 37.6406 74.168 37.7383 74.6523 37.7383C75.1211 37.7383 75.5234 37.6406 75.8594 37.4453C76.1953 37.25 76.4648 36.9805 76.668 36.6367C76.8711 36.2852 77.0195 35.8789 77.1133 35.418C77.2148 34.957 77.2656 34.4609 77.2656 33.9297V33.6836C77.2656 33.168 77.2148 32.6836 77.1133 32.2305C77.0195 31.7695 76.8672 31.3633 76.6562 31.0117C76.4531 30.6523 76.1836 30.3711 75.8477 30.168C75.5117 29.9648 75.1055 29.8633 74.6289 29.8633C74.1523 29.8633 73.7461 29.9648 73.4102 30.168C73.082 30.3711 72.8125 30.6523 72.6016 31.0117C72.3984 31.3633 72.25 31.7695 72.1562 32.2305C72.0625 32.6836 72.0156 33.168 72.0156 33.6836ZM86.1016 30.0859V40.1406H82.7148V27.4609H85.8906L86.1016 30.0859ZM85.6328 33.3555H84.6953C84.6953 32.4727 84.8008 31.6602 85.0117 30.918C85.2305 30.168 85.5469 29.5195 85.9609 28.9727C86.3828 28.418 86.9023 27.9883 87.5195 27.6836C88.1367 27.3789 88.8516 27.2266 89.6641 27.2266C90.2266 27.2266 90.7422 27.3125 91.2109 27.4844C91.6797 27.6484 92.082 27.9102 92.418 28.2695C92.7617 28.6211 93.0273 29.082 93.2148 29.6523C93.4023 30.2148 93.4961 30.8906 93.4961 31.6797V40.1406H90.1211V32.0547C90.1211 31.4766 90.043 31.0312 89.8867 30.7188C89.7305 30.4062 89.5078 30.1875 89.2188 30.0625C88.9375 29.9375 88.5977 29.875 88.1992 29.875C87.7617 29.875 87.3789 29.9648 87.0508 30.1445C86.7305 30.3242 86.4648 30.5742 86.2539 30.8945C86.043 31.207 85.8867 31.5742 85.7852 31.9961C85.6836 32.418 85.6328 32.8711 85.6328 33.3555ZM93.1797 32.9688L91.9727 33.1211C91.9727 32.293 92.0742 31.5234 92.2773 30.8125C92.4883 30.1016 92.7969 29.4766 93.2031 28.9375C93.6172 28.3984 94.1289 27.9805 94.7383 27.6836C95.3477 27.3789 96.0508 27.2266 96.8477 27.2266C97.457 27.2266 98.0117 27.3164 98.5117 27.4961C99.0117 27.668 99.4375 27.9453 99.7891 28.3281C100.148 28.7031 100.422 29.1953 100.609 29.8047C100.805 30.4141 100.902 31.1602 100.902 32.043V40.1406H97.5156V32.043C97.5156 31.457 97.4375 31.0117 97.2812 30.707C97.1328 30.3945 96.9141 30.1797 96.625 30.0625C96.3438 29.9375 96.0078 29.875 95.6172 29.875C95.2109 29.875 94.8555 29.957 94.5508 30.1211C94.2461 30.2773 93.9922 30.4961 93.7891 30.7773C93.5859 31.0586 93.4336 31.3867 93.332 31.7617C93.2305 32.1289 93.1797 32.5312 93.1797 32.9688ZM109.352 40.375C108.367 40.375 107.484 40.2188 106.703 39.9062C105.922 39.5859 105.258 39.1445 104.711 38.582C104.172 38.0195 103.758 37.3672 103.469 36.625C103.18 35.875 103.035 35.0781 103.035 34.2344V33.7656C103.035 32.8047 103.172 31.9258 103.445 31.1289C103.719 30.332 104.109 29.6406 104.617 29.0547C105.133 28.4688 105.758 28.0195 106.492 27.707C107.227 27.3867 108.055 27.2266 108.977 27.2266C109.875 27.2266 110.672 27.375 111.367 27.6719C112.062 27.9688 112.645 28.3906 113.113 28.9375C113.59 29.4844 113.949 30.1406 114.191 30.9062C114.434 31.6641 114.555 32.5078 114.555 33.4375V34.8438H104.477V32.5938H111.238V32.3359C111.238 31.8672 111.152 31.4492 110.98 31.082C110.816 30.707 110.566 30.4102 110.23 30.1914C109.895 29.9727 109.465 29.8633 108.941 29.8633C108.496 29.8633 108.113 29.9609 107.793 30.1562C107.473 30.3516 107.211 30.625 107.008 30.9766C106.812 31.3281 106.664 31.7422 106.562 32.2188C106.469 32.6875 106.422 33.2031 106.422 33.7656V34.2344C106.422 34.7422 106.492 35.2109 106.633 35.6406C106.781 36.0703 106.988 36.4414 107.254 36.7539C107.527 37.0664 107.855 37.3086 108.238 37.4805C108.629 37.6523 109.07 37.7383 109.562 37.7383C110.172 37.7383 110.738 37.6211 111.262 37.3867C111.793 37.1445 112.25 36.7812 112.633 36.2969L114.273 38.0781C114.008 38.4609 113.645 38.8281 113.184 39.1797C112.73 39.5312 112.184 39.8203 111.543 40.0469C110.902 40.2656 110.172 40.375 109.352 40.375ZM119.852 30.2266V40.1406H116.477V27.4609H119.652L119.852 30.2266ZM123.672 27.3789L123.613 30.5078C123.449 30.4844 123.25 30.4648 123.016 30.4492C122.789 30.4258 122.582 30.4141 122.395 30.4141C121.918 30.4141 121.504 30.4766 121.152 30.6016C120.809 30.7188 120.52 30.8945 120.285 31.1289C120.059 31.3633 119.887 31.6484 119.77 31.9844C119.66 32.3203 119.598 32.7031 119.582 33.1328L118.902 32.9219C118.902 32.1016 118.984 31.3477 119.148 30.6602C119.312 29.9648 119.551 29.3594 119.863 28.8438C120.184 28.3281 120.574 27.9297 121.035 27.6484C121.496 27.3672 122.023 27.2266 122.617 27.2266C122.805 27.2266 122.996 27.2422 123.191 27.2734C123.387 27.2969 123.547 27.332 123.672 27.3789ZM128.641 30.2266V40.1406H125.266V27.4609H128.441L128.641 30.2266ZM132.461 27.3789L132.402 30.5078C132.238 30.4844 132.039 30.4648 131.805 30.4492C131.578 30.4258 131.371 30.4141 131.184 30.4141C130.707 30.4141 130.293 30.4766 129.941 30.6016C129.598 30.7188 129.309 30.8945 129.074 31.1289C128.848 31.3633 128.676 31.6484 128.559 31.9844C128.449 32.3203 128.387 32.7031 128.371 33.1328L127.691 32.9219C127.691 32.1016 127.773 31.3477 127.938 30.6602C128.102 29.9648 128.34 29.3594 128.652 28.8438C128.973 28.3281 129.363 27.9297 129.824 27.6484C130.285 27.3672 130.812 27.2266 131.406 27.2266C131.594 27.2266 131.785 27.2422 131.98 27.2734C132.176 27.2969 132.336 27.332 132.461 27.3789Z" fill="#94A3B8"/>
</svg>
